<?xml version="1.0" encoding="UTF-8" standalone="no"?>
<svg
   xmlns:dc="http://purl.org/dc/elements/1.1/"
   xmlns:cc="http://creativecommons.org/ns#"
   xmlns:rdf="http://www.w3.org/1999/02/22-rdf-syntax-ns#"
   xmlns:svg="http://www.w3.org/2000/svg"
   xmlns="http://www.w3.org/2000/svg"
   version="1.1"
   viewBox="0 0 204.72808 200.89"
   id="svg10"
   width="204.72809"
   height="200.89">
  <defs
     id="defs12" />
  <title
     id="title2">Fedora logo (2021)</title>
  <metadata
     id="metadata4">
    <rdf:RDF>
      <cc:Work
         rdf:about="">
        <dc:format>image/svg+xml</dc:format>
        <dc:type
           rdf:resource="http://purl.org/dc/dcmitype/StillImage" />
        <dc:title>Fedora logo (2021)</dc:title>
      </cc:Work>
    </rdf:RDF>
  </metadata>
  <path
     d="m 102.41809,0 c -56.53,0 -102.3,44.93 -102.4,100.4 H 0 v 77.72 h 0.01809 c 0.02713,12.58 10.43,22.77 23.26,22.77 h 79.15 c 56.54,-0.0355 102.3,-44.96 102.3,-100.4 8e-5,-55.47 -45.82,-100.4 -102.4,-100.4 z m 20.8,41.3419 c 17.19,0 33.42,12.91 33.42,30.72 0,1.652 0.01,3.305 -0.2653,5.178 -0.4763,4.738 -4.891,8.143 -9.698,7.475 -4.807,-0.6758 -8.069,-5.153 -7.18,-9.837 0.0815,-0.5346 0.1105,-1.374 0.1105,-2.817 0,-10.1 -8.425,-14 -16.39,-14 -7.963,0 -15.14,6.568 -15.15,14 0.1376,8.593 0,17.12 0,25.7 l 14.78,-0.1084 c 11.54,-0.2344 11.67,16.81 0.1331,16.73 l -14.91,0.1084 c -0.0361,6.912 0.0543,5.662 0.0181,9.143 0,0 0.125,8.454 -0.1322,14.86 -1.784,18.82 -18.12,33.86 -37.75,33.86 -20.81,0 -37.95,-16.68 -37.95,-37.14 0.6248,-21.04 17.73,-37.59 39.28,-37.4 l 12.02,-0.0888 v 16.7 l -12.02,0.1083 h -0.06342 c -11.84,0.3437 -21.99,8.232 -22.18,20.67 0,11.33 9.334,20.41 20.92,20.41 11.57,0 20.83,-8.257 20.83,-20.39 l -0.01808,-63.25 c 0.006,-1.174 0.04525,-2.107 0.1766,-3.402 1.953,-15.47 16.06,-27.26 32.03,-27.26 z"
     style="fill:#51a2da"
     id="path8" />
</svg>
