<?xml version="1.0" encoding="UTF-8" standalone="no"?>
<svg
   xmlns:dc="http://purl.org/dc/elements/1.1/"
   xmlns:cc="http://creativecommons.org/ns#"
   xmlns:rdf="http://www.w3.org/1999/02/22-rdf-syntax-ns#"
   xmlns:svg="http://www.w3.org/2000/svg"
   xmlns="http://www.w3.org/2000/svg"
   xmlns:sodipodi="http://sodipodi.sourceforge.net/DTD/sodipodi-0.dtd"
   xmlns:inkscape="http://www.inkscape.org/namespaces/inkscape"
   viewBox="0 0 135.02156 159.48959"
   height="159.48959"
   width="135.02156"
   version="1.1"
   id="svg4"
   sodipodi:docname="KaiOS_logo.svg"
   inkscape:version="0.92.3 (2405546, 2018-03-11)">
  <metadata
     id="metadata10">
    <rdf:RDF>
      <cc:Work
         rdf:about="">
        <dc:format>image/svg+xml</dc:format>
        <dc:type
           rdf:resource="http://purl.org/dc/dcmitype/StillImage" />
        <dc:title></dc:title>
      </cc:Work>
    </rdf:RDF>
  </metadata>
  <defs
     id="defs8" />
  <sodipodi:namedview
     pagecolor="#ffffff"
     bordercolor="#666666"
     borderopacity="1"
     objecttolerance="10"
     gridtolerance="10"
     guidetolerance="10"
     inkscape:pageopacity="0"
     inkscape:pageshadow="2"
     inkscape:window-width="1920"
     inkscape:window-height="1051"
     id="namedview6"
     showgrid="false"
     fit-margin-top="0"
     fit-margin-left="0"
     fit-margin-right="0"
     fit-margin-bottom="0"
     inkscape:zoom="1.0971429"
     inkscape:cx="31.730192"
     inkscape:cy="85.491928"
     inkscape:window-x="0"
     inkscape:window-y="0"
     inkscape:window-maximized="1"
     inkscape:current-layer="svg4" />
  <path
     d="m 103.47123,48.873332 c 13.496,0 24.436,-10.939999 24.436,-24.435999 C 127.90723,10.941333 116.96723,0 103.47123,0 89.975233,0 79.033903,10.941333 79.033903,24.437333 c 0,13.496 10.94133,24.435999 24.437327,24.435999 m -23.675997,7.873335 c -5.74936,-8.210665 -17.0667,-10.206665 -25.277362,-4.455998 -8.211066,5.747998 -10.2064,17.065328 -4.457467,25.275998 L 102.0032,151.74786 c 5.74933,8.21094 17.06533,10.2052 25.27733,4.45734 8.21067,-5.75054 10.20667,-17.06667 4.45734,-25.27707 L 79.795203,56.746667 M 18.5104,3e-6 C 8.286933,3e-6 0,8.28667 0,18.509336 V 140.97866 c 0,10.22294 8.286933,18.51094 18.5104,18.51094 10.223466,0 18.510399,-8.288 18.510399,-18.51094 V 18.509336 C 37.020799,8.28667 28.733866,3e-6 18.5104,3e-6"
     id="path2"
     inkscape:connector-curvature="0"
     style="fill:#6f02b5"
     sodipodi:nodetypes="cssscccccccccsssssc" />
</svg>
