<svg xmlns="http://www.w3.org/2000/svg" viewBox="0 0 640 480">
    <g aria-label="?" >
        <path d="M 0 0 H640 V480 H0z" fill="white" />
        <path d="M 401.5368 187.0813 c 0 -47.1582 -34.9181 -82.438 -80.9976 -82.438 c -42.8383 0 -77.7577 27.7201 -82.0776 83.518 H 286.3406 c 3.2399 -24.4788 13.6791 -35.9994 33.1186 -35.9994 c 19.7999 0 34.1999 14.0396 34.1999 33.479 c 0 10.7997 -5.3998 21.5994 -16.1995 30.5995 c -35.9994 29.5196 -43.9196 46.7991 -43.9196 91.7973 H 341.419 c 0.3604 -31.3191 3.6003 -39.2393 23.3989 -56.5188 c 27.7201 -24.1184 36.7189 -40.3179 36.7189 -64.4376 M 341.419 375.3562 V 329.2767 h -47.879 v 46.0795 z" />
    </g>
</svg>
