<svg width="32" height="32" viewBox="0 0 32 32" fill="none" xmlns="http://www.w3.org/2000/svg">
<g id="logo">
<g id="Group 427322434">
<g id="Group 427322427">
<g id="Group 427322426">
<g id="Group">
<path id="Vector" fill-rule="evenodd" clip-rule="evenodd" d="M5.91509 18.6928C5.91509 17.0726 6.87225 15.4469 8.74599 14.1642C10.6124 12.887 13.268 12.0499 16.2723 12.0499C19.2766 12.0499 21.9322 12.887 23.7986 14.1642C24.7429 14.8111 25.4547 15.5457 25.9287 16.3213C26.5041 15.2586 26.7531 14.1287 26.6184 13.0026C26.6092 12.9281 26.6184 12.8535 26.6387 12.7845C26.2551 12.4359 25.842 12.1096 25.4049 11.8113C23.0074 10.1687 19.7745 9.19925 16.2741 9.19925C12.7738 9.19925 9.54085 10.1687 7.14335 11.8113C4.74954 13.4501 3.07129 15.8589 3.07129 18.6928C3.07129 21.5267 4.74954 23.9355 7.13966 25.5725C9.53716 27.215 12.7701 28.1845 16.2705 28.1845C19.7708 28.1845 23.0056 27.215 25.4012 25.5725C27.7914 23.9355 29.4696 21.5286 29.4696 18.6928C29.4696 16.8899 28.7909 15.2604 27.6826 13.892C27.6254 15.1542 27.1809 16.366 26.4432 17.4698C26.565 17.8743 26.6258 18.2845 26.6258 18.6928C26.6258 20.313 25.6687 21.9387 23.7949 23.2214C21.9286 24.4986 19.2729 25.3357 16.2686 25.3357C13.2644 25.3357 10.6087 24.4986 8.7423 23.2214C6.87041 21.9387 5.91141 20.313 5.91141 18.6928H5.91509Z" fill="#3762FF"/>
<path id="Vector_2" fill-rule="evenodd" clip-rule="evenodd" d="M5.89339 15.3839C5.13541 17.5392 5.3143 19.4837 6.30096 20.8783C7.28763 22.2729 9.05994 23.0876 11.3413 23.0876C13.6189 23.0876 16.2746 22.2598 18.7145 20.5297C21.1544 18.7995 22.8161 16.5678 23.5722 14.4163C24.3302 12.261 24.1513 10.3165 23.1646 8.92188C22.178 7.52731 20.4057 6.71256 18.1243 6.71256C15.8467 6.71256 13.191 7.54036 10.7511 9.27053C8.31118 11.0007 6.64952 13.2324 5.89339 15.3839ZM3.16577 14.4219C4.14506 11.6421 6.2106 8.94053 9.08022 6.90646C11.948 4.87053 15.1791 3.81528 18.1225 3.81528C21.0622 3.81528 23.8507 4.87985 25.5252 7.24765C27.198 9.61544 27.2773 12.6022 26.2998 15.3802C25.3205 18.16 23.255 20.8615 20.3854 22.8956C17.5157 24.9297 14.2865 25.9849 11.3413 25.9868C8.40154 25.9868 5.61307 24.9222 3.9385 22.5544C2.26394 20.1866 2.18648 17.198 3.16393 14.4219H3.16577Z" fill="#1041F3"/>
</g>
</g>
</g>
</g>
</g>
</svg>
