<?xml version="1.0" encoding="UTF-8"?>
<svg xmlns="http://www.w3.org/2000/svg" width="500" height="500" version="1.1" viewBox="0 0 500 500">
  <!-- Generator: Adobe Illustrator 28.7.1, SVG Export Plug-In . SVG Version: 1.2.0 Build 142)  -->
  <g>
    <g id="Layer_2">
      <g>
        <circle cx="246.93" cy="249.67" r="240"/>
        <path d="M246.94,117.25c-83.4,0-151,67.04-151,149.77v71.7h27.83v-7.15c0-33.55,27.41-60.75,61.23-60.75s61.23,27.21,61.23,60.75v7.15h27.83v-7.15c0-48.8-39.89-88.33-89.07-88.33-19.15,0-36.89,5.99-51.42,16.21,15.2-29.97,46.51-50.53,82.65-50.53,51.06,0,92.46,41.07,92.46,91.71v38.1h27.84v-38.1c0-65.89-53.86-119.32-120.3-119.32-29.87,0-57.2,10.8-78.24,28.69,20.66-38.73,61.68-65.13,108.95-65.13,68.03,0,123.17,54.69,123.17,122.16v71.7h27.83v-71.7c0-82.72-67.6-149.77-151-149.77Z" fill="#fff"/>
      </g>
    </g>
  </g>
</svg>