<?xml version="1.0" encoding="UTF-8" standalone="no"?>
<!-- Created with Inkscape (http://www.inkscape.org/) -->

<svg
   xmlns:dc="http://purl.org/dc/elements/1.1/"
   xmlns:cc="http://creativecommons.org/ns#"
   xmlns:rdf="http://www.w3.org/1999/02/22-rdf-syntax-ns#"
   xmlns:svg="http://www.w3.org/2000/svg"
   xmlns="http://www.w3.org/2000/svg"
   xmlns:sodipodi="http://sodipodi.sourceforge.net/DTD/sodipodi-0.dtd"
   xmlns:inkscape="http://www.inkscape.org/namespaces/inkscape"
   version="1.1"
   id="svg2"
   xml:space="preserve"
   width="43.438663"
   height="42.366489"
   viewBox="0 0 43.438663 42.366489"
   sodipodi:docname="GitHub-Mark.svg"
   inkscape:version="0.92.1 r15371"><metadata
     id="metadata8"><rdf:RDF><cc:Work
         rdf:about=""><dc:format>image/svg+xml</dc:format><dc:type
           rdf:resource="http://purl.org/dc/dcmitype/StillImage" /><dc:title></dc:title></cc:Work></rdf:RDF></metadata><defs
     id="defs6" /><sodipodi:namedview
     pagecolor="#ffffff"
     bordercolor="#666666"
     borderopacity="1"
     objecttolerance="10"
     gridtolerance="10"
     guidetolerance="10"
     inkscape:pageopacity="0"
     inkscape:pageshadow="2"
     inkscape:window-width="1920"
     inkscape:window-height="1051"
     id="namedview4"
     showgrid="false"
     fit-margin-top="0"
     fit-margin-left="0"
     fit-margin-right="0"
     fit-margin-bottom="0"
     inkscape:zoom="4.005133"
     inkscape:cx="-89.541244"
     inkscape:cy="12.85132"
     inkscape:window-x="0"
     inkscape:window-y="0"
     inkscape:window-maximized="1"
     inkscape:current-layer="g10" /><g
     id="g10"
     inkscape:groupmode="layer"
     inkscape:label="ink_ext_XXXXXX"
     transform="matrix(1.3333333,0,0,-1.3333333,-94.097559,576.25689)"><path
       inkscape:connector-curvature="0"
       id="path16"
       style="fill:#1b1817;fill-opacity:1;fill-rule:evenodd;stroke:none;stroke-width:0.09999999"
       d="m 86.861171,432.19268 c -8.994,0 -16.288,-7.293 -16.288,-16.29 0,-7.196 4.667,-13.302 11.14,-15.457 0.815,-0.149 1.112,0.354 1.112,0.786 0,0.387 -0.014,1.411 -0.022,2.77 -4.531001,-0.984 -5.487,2.184 -5.487,2.184 -0.741,1.882 -1.809,2.383 -1.809,2.383 -1.479,1.01 0.112,0.99 0.112,0.99 1.635,-0.115 2.494999,-1.679 2.494999,-1.679 1.453001,-2.489 3.813001,-1.77 4.741001,-1.353 0.148,1.052 0.569,1.77 1.034,2.177 -3.617,0.412 -7.42,1.809 -7.42,8.051 0,1.779 0.635,3.232 1.676999,4.371 -0.167999,0.412 -0.726999,2.068 0.16,4.311 0,0 1.367001,0.438 4.479001,-1.669 1.299,0.361 2.693,0.541 4.078,0.548 1.384,-0.007 2.777,-0.187 4.078,-0.548 3.11,2.107 4.475,1.669 4.475,1.669 0.889,-2.243 0.33,-3.899 0.163,-4.311 1.044,-1.139 1.674,-2.592 1.674,-4.371 0,-6.258 -3.809,-7.635 -7.437,-8.038 0.584,-0.503 1.105,-1.497 1.105,-3.017 0,-2.177 -0.02,-3.934 -0.02,-4.468 0,-0.436 0.294,-0.943 1.12,-0.784 6.467999,2.159 11.130999,8.26 11.130999,15.455 0,8.997 -7.294,16.29 -16.291,16.29" /></g></svg>