<?xml version="1.0" encoding="UTF-8" standalone="no"?>
<!-- Created with Inkscape (http://www.inkscape.org/) -->

<svg
   xmlns:dc="http://purl.org/dc/elements/1.1/"
   xmlns:cc="http://creativecommons.org/ns#"
   xmlns:rdf="http://www.w3.org/1999/02/22-rdf-syntax-ns#"
   xmlns:svg="http://www.w3.org/2000/svg"
   xmlns="http://www.w3.org/2000/svg"
   xmlns:sodipodi="http://sodipodi.sourceforge.net/DTD/sodipodi-0.dtd"
   xmlns:inkscape="http://www.inkscape.org/namespaces/inkscape"
   version="1.1"
   width="35.758125"
   height="49.661877"
   id="svg2"
   xml:space="preserve"
   sodipodi:docname="Reddit_logo_and_wordmark.svg"
   inkscape:version="0.92.1 r15371"><metadata
     id="metadata89"><rdf:RDF><cc:Work
         rdf:about=""><dc:format>image/svg+xml</dc:format><dc:type
           rdf:resource="http://purl.org/dc/dcmitype/StillImage" /><dc:title></dc:title></cc:Work></rdf:RDF></metadata><sodipodi:namedview
     pagecolor="#ffffff"
     bordercolor="#666666"
     borderopacity="1"
     objecttolerance="10"
     gridtolerance="10"
     guidetolerance="10"
     inkscape:pageopacity="0"
     inkscape:pageshadow="2"
     inkscape:window-width="1920"
     inkscape:window-height="1051"
     id="namedview87"
     showgrid="false"
     fit-margin-top="0"
     fit-margin-left="0"
     fit-margin-right="0"
     fit-margin-bottom="0"
     inkscape:zoom="2.3933333"
     inkscape:cx="70.857352"
     inkscape:cy="25.021"
     inkscape:window-x="0"
     inkscape:window-y="0"
     inkscape:window-maximized="1"
     inkscape:current-layer="svg2" /><defs
     id="defs6"><clipPath
       id="clipPath20"><path
         d="M 0,792 H 612 V 0 H 0 Z"
         id="path22"
         inkscape:connector-curvature="0" /></clipPath></defs><g
     id="g4855"
     transform="translate(-3.1685,-0.35912499)"><g
       transform="matrix(1.25,0,0,-1.25,26.685125,29.090625)"
       id="g24"><path
         d="m 0,0 c 2.437,0 4.412,-2.383 4.412,-5.324 0,-2.942 -1.975,-5.324 -4.412,-5.324 -2.437,0 -4.41,2.382 -4.41,5.324 C -4.41,-2.383 -2.437,0 0,0"
         id="path26"
         style="fill:#ffffff;fill-opacity:1;fill-rule:nonzero;stroke:none"
         inkscape:connector-curvature="0" /></g><g
       transform="matrix(1.25,0,0,-1.25,26.685125,29.090625)"
       id="g28"><path
         d="m 0,0 c 2.437,0 4.412,-2.383 4.412,-5.324 0,-2.942 -1.975,-5.324 -4.412,-5.324 -2.437,0 -4.41,2.382 -4.41,5.324 C -4.41,-2.383 -2.437,0 0,0 Z"
         id="path30"
         style="fill:none;stroke:#000000;stroke-width:1.10000002;stroke-linecap:butt;stroke-linejoin:miter;stroke-miterlimit:4;stroke-dasharray:none;stroke-opacity:1"
         inkscape:connector-curvature="0" /></g><g
       transform="matrix(1.25,0,0,-1.25,18.007875,49.329875)"
       id="g32"><path
         d="m 0,0 c 0.063,0.197 0.108,0.401 0.108,0.615 0,1.361 -1.361,2.464 -3.04,2.464 -1.679,0 -3.039,-1.103 -3.039,-2.464 0,-0.214 0.044,-0.418 0.108,-0.615 z"
         id="path34"
         style="fill:#ffffff;fill-opacity:1;fill-rule:nonzero;stroke:none"
         inkscape:connector-curvature="0" /></g><g
       transform="matrix(1.25,0,0,-1.25,18.007875,49.329875)"
       id="g36"><path
         d="m 0,0 c 0.063,0.197 0.108,0.401 0.108,0.615 0,1.361 -1.361,2.464 -3.04,2.464 -1.679,0 -3.039,-1.103 -3.039,-2.464 0,-0.214 0.044,-0.418 0.108,-0.615 z"
         id="path38"
         style="fill:none;stroke:#000000;stroke-width:1.10000002;stroke-linecap:round;stroke-linejoin:round;stroke-miterlimit:4;stroke-dasharray:none;stroke-opacity:1"
         inkscape:connector-curvature="0" /></g><g
       transform="matrix(1.25,0,0,-1.25,31.31475,49.329875)"
       id="g40"><path
         d="m 0,0 c 0.063,0.197 0.107,0.401 0.107,0.615 0,1.361 -1.361,2.464 -3.04,2.464 -1.679,0 -3.039,-1.103 -3.039,-2.464 0,-0.214 0.044,-0.418 0.107,-0.615 z"
         id="path42"
         style="fill:#ffffff;fill-opacity:1;fill-rule:nonzero;stroke:none"
         inkscape:connector-curvature="0" /></g><g
       transform="matrix(1.25,0,0,-1.25,31.31475,49.329875)"
       id="g44"><path
         d="m 0,0 c 0.063,0.197 0.107,0.401 0.107,0.615 0,1.361 -1.361,2.464 -3.04,2.464 -1.679,0 -3.039,-1.103 -3.039,-2.464 0,-0.214 0.044,-0.418 0.107,-0.615 z"
         id="path46"
         style="fill:none;stroke:#000000;stroke-width:1.10000002;stroke-linecap:round;stroke-linejoin:round;stroke-miterlimit:4;stroke-dasharray:none;stroke-opacity:1"
         inkscape:connector-curvature="0" /></g><g
       transform="matrix(1.25,0,0,-1.25,10.611,15.01775)"
       id="g48"><path
         d="m 0,0 c 0,-1.493 -1.21,-2.702 -2.703,-2.702 -1.492,0 -2.701,1.209 -2.701,2.702 0,1.493 1.209,2.703 2.701,2.703 C -1.21,2.703 0,1.493 0,0"
         id="path50"
         style="fill:#ffffff;fill-opacity:1;fill-rule:nonzero;stroke:none"
         inkscape:connector-curvature="0" /></g><g
       transform="matrix(1.25,0,0,-1.25,10.611,15.01775)"
       id="g52"><path
         d="m 0,0 c 0,-1.493 -1.21,-2.702 -2.703,-2.702 -1.492,0 -2.701,1.209 -2.701,2.702 0,1.493 1.209,2.703 2.701,2.703 C -1.21,2.703 0,1.493 0,0 Z"
         id="path54"
         style="fill:none;stroke:#000000;stroke-width:1.10000002;stroke-linecap:butt;stroke-linejoin:miter;stroke-miterlimit:4;stroke-dasharray:none;stroke-opacity:1"
         inkscape:connector-curvature="0" /></g><g
       transform="matrix(1.25,0,0,-1.25,38.239125,15.01775)"
       id="g56"><path
         d="m 0,0 c 0,-1.493 -1.21,-2.702 -2.703,-2.702 -1.492,0 -2.701,1.209 -2.701,2.702 0,1.493 1.209,2.703 2.701,2.703 C -1.21,2.703 0,1.493 0,0"
         id="path58"
         style="fill:#ffffff;fill-opacity:1;fill-rule:nonzero;stroke:none"
         inkscape:connector-curvature="0" /></g><g
       transform="matrix(1.25,0,0,-1.25,38.239125,15.01775)"
       id="g60"><path
         d="m 0,0 c 0,-1.493 -1.21,-2.702 -2.703,-2.702 -1.492,0 -2.701,1.209 -2.701,2.702 0,1.493 1.209,2.703 2.701,2.703 C -1.21,2.703 0,1.493 0,0 Z"
         id="path62"
         style="fill:none;stroke:#000000;stroke-width:1.10000002;stroke-linecap:butt;stroke-linejoin:miter;stroke-miterlimit:4;stroke-dasharray:none;stroke-opacity:1"
         inkscape:connector-curvature="0" /></g><g
       transform="matrix(1.25,0,0,-1.25,30.41075,3.162875)"
       id="g64"><path
         d="M 0,0 -5.404,1.272 -7.39,-5.006"
         id="path66"
         style="fill:none;stroke:#000000;stroke-width:1.10000002;stroke-linecap:round;stroke-linejoin:round;stroke-miterlimit:4;stroke-dasharray:none;stroke-opacity:1"
         inkscape:connector-curvature="0" /></g><g
       transform="matrix(1.25,0,0,-1.25,15.311875,29.090625)"
       id="g68"><path
         d="m 0,0 c 2.437,0 4.411,-2.383 4.411,-5.324 0,-2.942 -1.974,-5.324 -4.411,-5.324 -2.436,0 -4.41,2.382 -4.41,5.324 C -4.41,-2.383 -2.436,0 0,0"
         id="path70"
         style="fill:#ffffff;fill-opacity:1;fill-rule:nonzero;stroke:none"
         inkscape:connector-curvature="0" /></g><g
       transform="matrix(1.25,0,0,-1.25,15.311875,29.090625)"
       id="g72"><path
         d="m 0,0 c 2.437,0 4.411,-2.383 4.411,-5.324 0,-2.942 -1.974,-5.324 -4.411,-5.324 -2.436,0 -4.41,2.382 -4.41,5.324 C -4.41,-2.383 -2.436,0 0,0 Z"
         id="path74"
         style="fill:none;stroke:#000000;stroke-width:1.10000002;stroke-linecap:butt;stroke-linejoin:miter;stroke-miterlimit:4;stroke-dasharray:none;stroke-opacity:1"
         inkscape:connector-curvature="0" /></g><g
       transform="matrix(1.25,0,0,-1.25,35.830125,3.709125)"
       id="g76"><path
         d="m 0,0 c 0,-1.176 -0.954,-2.13 -2.129,-2.13 -1.178,0 -2.131,0.954 -2.131,2.13 0,1.177 0.953,2.13 2.131,2.13 C -0.954,2.13 0,1.177 0,0"
         id="path78"
         style="fill:#ffffff;fill-opacity:1;fill-rule:nonzero;stroke:none"
         inkscape:connector-curvature="0" /></g><g
       transform="matrix(1.25,0,0,-1.25,35.830125,3.709125)"
       id="g80"><path
         d="m 0,0 c 0,-1.176 -0.954,-2.13 -2.129,-2.13 -1.178,0 -2.131,0.954 -2.131,2.13 0,1.177 0.953,2.13 2.131,2.13 C -0.954,2.13 0,1.177 0,0 Z"
         id="path82"
         style="fill:none;stroke:#000000;stroke-width:1.10000002;stroke-linecap:butt;stroke-linejoin:miter;stroke-miterlimit:4;stroke-dasharray:none;stroke-opacity:1"
         inkscape:connector-curvature="0" /></g><g
       transform="matrix(1.25,0,0,-1.25,19.10525,49.3335)"
       id="g84"><path
         d="m 0,0 h 2.99 c 2.656,1.382 4.624,6.34 4.624,12.261 0,6.99 -2.74,12.656 -6.119,12.656 -3.38,0 -6.119,-5.666 -6.119,-12.656 C -4.624,6.34 -2.656,1.382 0,0"
         id="path86"
         style="fill:#ffffff;fill-opacity:1;fill-rule:nonzero;stroke:none"
         inkscape:connector-curvature="0" /></g><g
       transform="matrix(1.25,0,0,-1.25,19.10525,49.3335)"
       id="g88"><path
         d="m 0,0 h 2.99 c 2.656,1.382 4.624,6.34 4.624,12.261 0,6.99 -2.74,12.656 -6.119,12.656 -3.38,0 -6.119,-5.666 -6.119,-12.656 C -4.624,6.34 -2.656,1.382 0,0 Z"
         id="path90"
         style="fill:none;stroke:#000000;stroke-width:1.10000002;stroke-linecap:butt;stroke-linejoin:miter;stroke-miterlimit:4;stroke-dasharray:none;stroke-opacity:1"
         inkscape:connector-curvature="0" /></g><g
       transform="matrix(1.25,0,0,-1.25,36.272,19.663125)"
       id="g92"><path
         d="m 0,0 c 0,-4.411 -5.479,-7.986 -12.239,-7.986 -6.759,0 -12.238,3.575 -12.238,7.986 0,4.411 5.479,7.987 12.238,7.987 C -5.479,7.987 0,4.411 0,0"
         id="path94"
         style="fill:#ffffff;fill-opacity:1;fill-rule:nonzero;stroke:none"
         inkscape:connector-curvature="0" /></g><g
       transform="matrix(1.25,0,0,-1.25,36.272,19.663125)"
       id="g96"><path
         d="m 0,0 c 0,-4.411 -5.479,-7.986 -12.239,-7.986 -6.759,0 -12.238,3.575 -12.238,7.986 0,4.411 5.479,7.987 12.238,7.987 C -5.479,7.987 0,4.411 0,0 Z"
         id="path98"
         style="fill:none;stroke:#000000;stroke-width:1.10000002;stroke-linecap:butt;stroke-linejoin:miter;stroke-miterlimit:4;stroke-dasharray:none;stroke-opacity:1"
         inkscape:connector-curvature="0" /></g><g
       transform="matrix(1.25,0,0,-1.25,16.950125,49.329875)"
       id="g100"><path
         d="M 0,0 H 6.596"
         id="path102"
         style="fill:none;stroke:#000000;stroke-width:1.10000002;stroke-linecap:round;stroke-linejoin:round;stroke-miterlimit:4;stroke-dasharray:none;stroke-opacity:1"
         inkscape:connector-curvature="0" /></g><g
       transform="matrix(1.25,0,0,-1.25,17.4505,17.71425)"
       id="g156"><path
         d="m 0,0 c 0,-0.79 -0.641,-1.43 -1.43,-1.43 -0.791,0 -1.431,0.64 -1.431,1.43 0,0.791 0.64,1.431 1.431,1.431 C -0.641,1.431 0,0.791 0,0"
         id="path158"
         style="fill:#ff4500;fill-opacity:1;fill-rule:nonzero;stroke:none"
         inkscape:connector-curvature="0" /></g><g
       transform="matrix(1.25,0,0,-1.25,17.4505,17.71425)"
       id="g160"><path
         d="m 0,0 c 0,-0.79 -0.641,-1.43 -1.43,-1.43 -0.791,0 -1.431,0.64 -1.431,1.43 0,0.791 0.64,1.431 1.431,1.431 C -0.641,1.431 0,0.791 0,0 Z"
         id="path162"
         style="fill:none;stroke:#ff4500;stroke-width:1.10000002;stroke-linecap:butt;stroke-linejoin:miter;stroke-miterlimit:4;stroke-dasharray:none;stroke-opacity:1"
         inkscape:connector-curvature="0" /></g><g
       transform="matrix(1.25,0,0,-1.25,28.22875,17.71425)"
       id="g164"><path
         d="m 0,0 c 0,-0.79 -0.64,-1.43 -1.43,-1.43 -0.789,0 -1.43,0.64 -1.43,1.43 0,0.791 0.641,1.431 1.43,1.431 C -0.64,1.431 0,0.791 0,0"
         id="path166"
         style="fill:#ff4500;fill-opacity:1;fill-rule:nonzero;stroke:none"
         inkscape:connector-curvature="0" /></g><g
       transform="matrix(1.25,0,0,-1.25,28.22875,17.71425)"
       id="g168"><path
         d="m 0,0 c 0,-0.79 -0.64,-1.43 -1.43,-1.43 -0.789,0 -1.43,0.64 -1.43,1.43 0,0.791 0.641,1.431 1.43,1.431 C -0.64,1.431 0,0.791 0,0 Z"
         id="path170"
         style="fill:none;stroke:#ff4500;stroke-width:1.10000002;stroke-linecap:butt;stroke-linejoin:miter;stroke-miterlimit:4;stroke-dasharray:none;stroke-opacity:1"
         inkscape:connector-curvature="0" /></g><g
       transform="matrix(1.25,0,0,-1.25,15.763,24.258375)"
       id="g172"><path
         d="M 0,0 C 1.066,-1.066 2.786,-1.271 4.212,-1.271"
         id="path174"
         style="fill:none;stroke:#000000;stroke-width:1.10000002;stroke-linecap:round;stroke-linejoin:miter;stroke-miterlimit:4;stroke-dasharray:none;stroke-opacity:1"
         inkscape:connector-curvature="0" /></g><g
       transform="matrix(1.25,0,0,-1.25,26.33175,24.258375)"
       id="g176"><path
         d="M 0,0 C -1.067,-1.066 -2.785,-1.271 -4.212,-1.271"
         id="path178"
         style="fill:none;stroke:#000000;stroke-width:1.10000002;stroke-linecap:round;stroke-linejoin:miter;stroke-miterlimit:4;stroke-dasharray:none;stroke-opacity:1"
         inkscape:connector-curvature="0" /></g></g></svg>