<?xml version="1.0" encoding="UTF-8" standalone="no"?>
<!-- Created with Inkscape (http://www.inkscape.org/) by Marsupilami -->

<svg
   xmlns:dc="http://purl.org/dc/elements/1.1/"
   xmlns:cc="http://creativecommons.org/ns#"
   xmlns:rdf="http://www.w3.org/1999/02/22-rdf-syntax-ns#"
   xmlns:svg="http://www.w3.org/2000/svg"
   xmlns="http://www.w3.org/2000/svg"
   xmlns:sodipodi="http://sodipodi.sourceforge.net/DTD/sodipodi-0.dtd"
   xmlns:inkscape="http://www.inkscape.org/namespaces/inkscape"
   version="1.0"
   width="234.48869"
   height="275.52844"
   viewBox="0 0 32.4453 38.135001"
   id="svg2268"
   sodipodi:docname="Xing_logo.svg"
   inkscape:version="0.92.2 (5c3e80d, 2017-08-06)">
  <metadata
     id="metadata9">
    <rdf:RDF>
      <cc:Work
         rdf:about="">
        <dc:format>image/svg+xml</dc:format>
        <dc:type
           rdf:resource="http://purl.org/dc/dcmitype/StillImage" />
        <dc:title></dc:title>
      </cc:Work>
    </rdf:RDF>
  </metadata>
  <sodipodi:namedview
     pagecolor="#ffffff"
     bordercolor="#666666"
     borderopacity="1"
     objecttolerance="10"
     gridtolerance="10"
     guidetolerance="10"
     inkscape:pageopacity="0"
     inkscape:pageshadow="2"
     inkscape:window-width="1920"
     inkscape:window-height="1051"
     id="namedview7"
     showgrid="false"
     fit-margin-top="0"
     fit-margin-left="0"
     fit-margin-right="0"
     fit-margin-bottom="0"
     inkscape:zoom="0.35058594"
     inkscape:cx="-268.66868"
     inkscape:cy="73.028433"
     inkscape:window-x="0"
     inkscape:window-y="0"
     inkscape:window-maximized="1"
     inkscape:current-layer="svg2268" />
  <defs
     id="defs2270" />
  <path
     inkscape:connector-curvature="0"
     id="path19359"
     style="fill:#005a5f;fill-opacity:1;fill-rule:nonzero;stroke:none"
     d="m 2.9533105,7.53125 c -0.33125,1e-7 -0.61,0.11625 -0.75,0.34375 -0.145,0.2350001 -0.1225,0.5375 0.0312,0.84375 l 3.71875,6.4375 c 0.006,0.0125 0.006,0.02 0,0.03125 L 0.1095605,25.5 c -0.1525,0.303751 -0.145,0.60875 0,0.84375 0.14,0.226249 0.3875,0.375 0.71875,0.375 h 5.5 c 0.8225,0 1.21875,-0.555 1.5,-1.0625 0,0 5.7149995,-10.1075 5.9374995,-10.5 C 13.74331,15.12 9.9845605,8.5625 9.9845605,8.5625 9.7108105,8.0750002 9.2970605,7.53125 8.4533105,7.53125 Z"
     sodipodi:nodetypes="sccccccsscccss" />
  <path
     inkscape:connector-curvature="0"
     id="path19375"
     style="fill:#d4d600;fill-opacity:1;fill-rule:nonzero;stroke:none"
     d="m 26.05925,0 c -0.82125,0 -1.1775,0.5175 -1.4725,1.0475 0,0 -11.84875,21.0125 -12.23875,21.7025 0.02,0.0375 7.815,14.3375 7.815,14.3375 0.2725,0.4875 0.69375,1.0475 1.53625,1.0475 H 27.193 c 0.33125,0 0.59,-0.125 0.73,-0.35125 0.14625,-0.235 0.1425,-0.545 -0.0112,-0.85 L 20.15805,22.7675 c -0.007,-0.0112 -0.007,-0.025 0,-0.0362 L 32.33555,1.20005 C 32.48805,0.8963 32.4918,0.5863 32.34675,0.3513 32.20675,0.12505 31.94675,5e-5 31.6155,5e-5 Z" />
</svg>
