<?xml version="1.0" encoding="UTF-8" standalone="no"?>
<svg
   xmlns:dc="http://purl.org/dc/elements/1.1/"
   xmlns:cc="http://creativecommons.org/ns#"
   xmlns:rdf="http://www.w3.org/1999/02/22-rdf-syntax-ns#"
   xmlns:svg="http://www.w3.org/2000/svg"
   xmlns="http://www.w3.org/2000/svg"
   id="svg49"
   version="1.1"
   viewBox="0 0 350.93103 471.45953"
   height="471.45953pt"
   width="350.93103pt">
  <metadata
     id="metadata55">
    <rdf:RDF>
      <cc:Work
         rdf:about="">
        <dc:format>image/svg+xml</dc:format>
        <dc:type
           rdf:resource="http://purl.org/dc/dcmitype/StillImage" />
        <dc:title></dc:title>
      </cc:Work>
    </rdf:RDF>
  </metadata>
  <defs
     id="defs53" />
  <g
     transform="translate(-13.291167,-23.275717)"
     id="#ffffffff" />
  <g
     transform="translate(-13.291167,-23.275717)"
     id="#f15a23ff">
    <path
       id="path3"
       d="m 180.92,23.91 c 2.59,-1.44 6.42,-0.37 7.31,2.62 0.96,2.47 -0.7,4.73 -2.06,6.64 -9.63,13.65 -16.02,29.51 -19.04,45.92 -1.83,0.78 -2.36,2.7 -1.79,4.51 0.9,0.33 1.81,0.62 2.73,0.9 18.69,-1.64 37.65,-1.3 56.05,2.63 33.48,6.74 64.77,23.68 88.82,47.9 23.98,23.97 40.81,55.03 47.62,88.26 7.55,35.98 3.33,74.28 -11.77,107.79 -32.02,68.43 -86,126.31 -152.05,163 -2.13,0.99 -5.2,1.03 -6.66,-1.09 -1.72,-2.22 -1.01,-5.38 0.69,-7.4 8.91,-12.43 15.13,-26.72 18.51,-41.62 0.65,-3.09 1.54,-6.22 1.27,-9.4 -1.09,-1.42 -2.89,-0.99 -4.42,-0.94 -32.06,3.21 -65.05,-2.52 -94.02,-16.68 C 81.08,402 54.75,377.56 37.34,347.85 21.21,320.52 12.73,288.69 13.32,256.94 13.43,227.8 21.38,198.9 35.38,173.39 67.97,110.82 119.14,58.02 180.92,23.91 m -1.8,167.21 c -19.07,2.56 -36.66,13.76 -47.34,29.72 -7.23,10.96 -11.61,23.98 -11.52,37.16 -0.54,17.66 6.5,35.35 18.7,48.07 10.66,11.48 25.47,18.96 41,20.96 15.81,2.09 32.32,-1.61 45.71,-10.3 13.61,-8.64 23.98,-22.28 28.62,-37.73 8.71,-26.82 -1.73,-58.24 -24.45,-74.81 -14.27,-10.86 -32.98,-15.68 -50.72,-13.07 z"
       opacity="1"
       fill="#f15a23" />
  </g>
</svg>
