<?xml version="1.0" encoding="UTF-8" standalone="no"?>
<!-- Generator: Adobe Illustrator 19.2.1, SVG Export Plug-In . SVG Version: 6.00 Build 0)  -->

<svg
   xmlns:dc="http://purl.org/dc/elements/1.1/"
   xmlns:cc="http://creativecommons.org/ns#"
   xmlns:rdf="http://www.w3.org/1999/02/22-rdf-syntax-ns#"
   xmlns:svg="http://www.w3.org/2000/svg"
   xmlns="http://www.w3.org/2000/svg"
   xmlns:sodipodi="http://sodipodi.sourceforge.net/DTD/sodipodi-0.dtd"
   xmlns:inkscape="http://www.inkscape.org/namespaces/inkscape"
   id="Horizontal"
   width="351.53568"
   height="212.35075"
   version="1.1"
   xml:space="preserve"
   sodipodi:docname="OC.svg"
   inkscape:version="0.92.4 (5da689c313, 2019-01-14)"><metadata
   id="metadata27"><rdf:RDF><cc:Work
       rdf:about=""><dc:format>image/svg+xml</dc:format><dc:type
         rdf:resource="http://purl.org/dc/dcmitype/StillImage" /><dc:title>logo_oculus_horizontal</dc:title></cc:Work></rdf:RDF></metadata><defs
   id="defs25">
	
	
	
	
	
	
	
</defs><sodipodi:namedview
   pagecolor="#ffffff"
   bordercolor="#666666"
   borderopacity="1"
   objecttolerance="10"
   gridtolerance="10"
   guidetolerance="10"
   inkscape:pageopacity="0"
   inkscape:pageshadow="2"
   inkscape:window-width="1920"
   inkscape:window-height="1051"
   id="namedview23"
   showgrid="false"
   inkscape:zoom="0.305"
   inkscape:cx="203.9604"
   inkscape:cy="107.20338"
   inkscape:window-x="0"
   inkscape:window-y="0"
   inkscape:window-maximized="1"
   inkscape:current-layer="Horizontal"
   fit-margin-top="0"
   fit-margin-left="0"
   fit-margin-right="0"
   fit-margin-bottom="0" /><title
   id="title2">logo_oculus_horizontal</title>
<style
   type="text/css"
   id="style4">
	.st0{fill:#1C1E20;}
</style>
<path
   style="fill:#1c1e20;stroke-width:1.4152"
   inkscape:connector-curvature="0"
   id="path8"
   d="M 312.19312,24.09378 C 299.88088,14.18738 285.58736,7.2529 270.16168,3.57338 261.38744,1.45058 252.47168,0.45994 243.4144,0.1769 236.76296,-0.10614 229.97,0.03538 223.31856,0.03538 H 128.0756 c -6.65144,0 -13.4444,0 -20.09584,0.14152 C 98.92248,0.45994 90.14824,1.45058 81.23248,3.57338 65.8068,7.2529 51.6548,14.18738 39.34256,24.09378 14.43504,44.0481 0,74.19186 0,106.17538 c 0,31.98352 14.43504,62.12728 39.34256,82.0816 12.31224,9.9064 26.60576,16.84088 42.03144,20.5204 8.77424,2.1228 17.69,3.11344 26.74728,3.39648 6.65144,0.28304 13.4444,0.14152 20.09584,0.14152 h 95.24296 c 6.65144,0 13.4444,0 20.09584,-0.14152 9.05728,-0.28304 17.83152,-1.27368 26.74728,-3.39648 15.42568,-3.67952 29.57768,-10.614 41.88992,-20.5204 24.90752,-19.95432 39.34256,-50.09808 39.34256,-82.0816 0,-31.98352 -14.43504,-62.12728 -39.34256,-82.0816 z m -46.56008,110.66864 c -4.67016,3.25496 -9.9064,5.23624 -15.42568,6.08536 -5.51928,0.84912 -11.18008,0.7076 -16.69936,0.7076 H 118.1692 c -5.6608,0 -11.18008,0.14152 -16.69936,-0.7076 -5.6608,-0.84912 -10.75552,-2.8304 -15.42568,-6.08536 -9.34032,-6.50992 -15.00112,-17.12392 -15.00112,-28.58704 0,-11.46312 5.6608,-22.07712 15.00112,-28.58704 4.67016,-3.25496 9.9064,-5.23624 15.42568,-6.08536 5.51928,-0.84912 11.18008,-0.7076 16.69936,-0.7076 H 233.508 c 5.6608,0 11.18008,-0.14152 16.69936,0.7076 5.6608,0.84912 10.75552,2.8304 15.42568,6.08536 9.34032,6.50992 15.00112,17.12392 15.00112,28.58704 0.14152,11.46312 -5.51928,22.07712 -15.00112,28.58704 z"
   class="st0" />
</svg>