<?xml version="1.0" encoding="UTF-8"?>
<svg width="30px" height="30px" viewBox="0 0 30 30" version="1.1" xmlns="http://www.w3.org/2000/svg" xmlns:xlink="http://www.w3.org/1999/xlink">
    <!-- Generator: Sketch 52.5 (67469) - http://www.bohemiancoding.com/sketch -->
    <title>logo</title>
    <desc>Created with Sketch.</desc>
    <g id="logo" stroke="none" stroke-width="1" fill="none" fill-rule="evenodd">
        <g fill="#000000" id="Fill-1">
            <path d="M16,12.0712285 C16,12.2043744 15.9284539,12.2830591 15.8073877,12.2830591 L10.4363025,12.2830591 C10.3537544,12.2830591 10.2987223,12.3435701 10.2987223,12.4343546 L10.2987223,23.7881695 C10.2987223,23.9213273 10.2271871,24 10.1061209,24 L9.19261228,24 C9.07154605,24 9,23.939477 9,23.7881695 L9,11.2118186 C9,11.0786727 9.07154605,11 9.19261228,11 L15.8073877,11 C15.9284539,11 16,11.0786727 16,11.2118186 L16,12.0712285 Z M14.3695545,16.4338933 C14.3492043,16.4095446 14.3371045,16.3782271 14.3371045,16.3436951 C14.3371045,16.2667628 14.3968994,16.2043917 14.4721505,16.2043077 L14.4721622,16.2042837 L16.5089076,16.2042837 C18.956436,16.2042837 21,14.3342901 21,11.6142862 C21,9.01571413 19.0514858,7 16.0574242,7 L9.20791475,7 C9.0772228,7 9,7.07892344 9,7.21250555 L9,8.07464212 C9,8.20821224 9.0772228,8.28714767 9.20791475,8.28714767 L15.9861398,8.28714767 C18.3148531,8.28714767 19.598019,9.5500066 19.598019,11.6142862 C19.598019,13.7028546 18.3148531,14.917136 15.9861398,14.917136 L15.6653366,14.917136 L13.2356352,14.917136 C13.1049432,14.917136 13.0277204,14.9960715 13.0277204,15.1296416 L13.0277204,16.7628529 C13.0277204,16.8478575 13.0455356,16.9207118 13.0811778,16.9632201 L19.2237701,23.9089262 C19.3009929,23.9878616 19.3663388,24 19.4554502,24 L20.8554478,24 C20.9924068,24 21.0397733,23.8652424 20.9520585,23.7737368 L14.3695545,16.4338933 Z"></path>
        </g>
    </g>
</svg>