<?xml version="1.0" encoding="UTF-8" standalone="no"?>
<svg
   xmlns:dc="http://purl.org/dc/elements/1.1/"
   xmlns:cc="http://creativecommons.org/ns#"
   xmlns:rdf="http://www.w3.org/1999/02/22-rdf-syntax-ns#"
   xmlns:svg="http://www.w3.org/2000/svg"
   xmlns="http://www.w3.org/2000/svg"
   height="32.000999"
   width="30.804001"
   id="svg14"
   version="1.1"
   style="overflow:hidden"
   aria-hidden="true">
  <metadata
     id="metadata20">
    <rdf:RDF>
      <cc:Work
         rdf:about="">
        <dc:format>image/svg+xml</dc:format>
        <dc:type
           rdf:resource="http://purl.org/dc/dcmitype/StillImage" />
        <dc:title>logo-splash-copy</dc:title>
      </cc:Work>
    </rdf:RDF>
  </metadata>
  <defs
     id="defs18" />
  <title
     id="title2">logo-splash-copy</title>
  <g
     transform="translate(-0.014,0.001)"
     style="fill:#91beb5;fill-opacity:1"
     id="g832">
    <path
       d="m 27.851,21.505 c -0.301,0.001 -0.591,0.046 -0.864,0.13 l 0.021,-0.006 c 0,0 -2.748,0.724 -2.475,-2.683 v 0 c 0.226,-0.697 0.356,-1.5 0.356,-2.332 0,-1.039 -0.203,-2.031 -0.571,-2.938 l 0.019,0.052 c 0.001,-0.008 0.001,-0.017 0.001,-0.027 0,-0.01 0,-0.019 -0.002,-0.028 v 10e-4 L 24.235,13.431 C 23.79,12.38 22.852,8.795 27.957,6.528 28.064,6.486 28.343,6.356 28.343,6.356 29.41,5.781 30.124,4.671 30.124,3.394 c 0,-0.002 0,-0.004 0,-0.006 v 0 C 30.111,1.542 28.635,0.045 26.798,-0.001 h -0.004 c -1.702,0.007 -3.106,1.273 -3.328,2.915 l -0.002,0.017 c 0,0 0,0.724 0,0.843 -0.232,4.98 -6.44,4.998 -6.44,4.998 -4.049,0.019 -7.375,3.094 -7.791,7.035 L 9.23,15.841 c 0,0 0,0 0,0.036 0,0.178 0,0.362 -0.03,0.546 -0.493,5.55 -5.859,5.669 -5.859,5.669 -1.87,0.163 -3.327,1.721 -3.327,3.62 0,2.006 1.626,3.633 3.633,3.633 1.758,0 3.225,-1.249 3.56,-2.908 l 0.004,-0.023 c 0.831,-5.449 4.511,-4.155 4.511,-4.155 1.345,1.378 3.22,2.233 5.295,2.233 0.035,0 0.071,0 0.106,-0.001 h -0.005 c 1.304,-0.003 2.53,-0.332 3.602,-0.91 l -0.04,0.02 c 2.641,-1.282 3.864,0.594 4.309,1.626 0.047,0.19 0.202,0.594 0.202,0.594 v 0 c 0.496,0.986 1.5,1.65 2.659,1.65 1.639,0 2.968,-1.329 2.968,-2.968 0,-1.639 -1.329,-2.968 -2.968,-2.968 -0.002,0 -0.004,0 -0.006,0 v 0 z M 17.036,21.167 c -0.002,0 -0.004,0 -0.006,0 -2.511,0 -4.547,-2.036 -4.547,-4.547 0,-2.511 2.036,-4.547 4.547,-4.547 2.511,0 4.547,2.036 4.547,4.547 v 0 c -0.003,2.508 -2.034,4.54 -4.54,4.547 z"
       id="path4"
       style="fill:#91beb5;fill-opacity:1" />
    <path
       style="fill:#91beb5;fill-opacity:1"
       d="m 16.81,30.118 c 0,1.039 -0.842,1.882 -1.882,1.882 -1.04,0 -1.882,-0.842 -1.882,-1.882 0,-1.039 0.842,-1.882 1.882,-1.882 1.04,0 1.882,0.842 1.882,1.882 z"
       id="path6" />
    <path
       style="fill:#91beb5;fill-opacity:1"
       d="m 6.761,10.02 c 0,1.567 -1.27,2.837 -2.837,2.837 -1.567,0 -2.837,-1.27 -2.837,-2.837 0,-1.567 1.27,-2.837 2.837,-2.837 1.567,0 2.837,1.27 2.837,2.837 z"
       id="path8" />
    <path
       style="fill:#91beb5;fill-opacity:1"
       d="m 16.05,5.811 c 0,0.829 -0.672,1.502 -1.502,1.502 -0.83,0 -1.502,-0.672 -1.502,-1.502 0,-0.829 0.672,-1.502 1.502,-1.502 0.83,0 1.502,0.672 1.502,1.502 z"
       id="path10" />
    <path
       style="fill:#91beb5;fill-opacity:1"
       d="m 30.783,14.899 c 0,1.092 -0.885,1.977 -1.977,1.977 -1.092,0 -1.977,-0.885 -1.977,-1.977 0,-1.092 0.885,-1.977 1.977,-1.977 1.092,0 1.977,0.885 1.977,1.977 z"
       id="path12" />
  </g>
</svg>
