<?xml version="1.0" encoding="UTF-8"?><svg xmlns="http://www.w3.org/2000/svg" viewBox="0 0 485 366.5" preserveAspectRatio="xMidYMin slice" width="485" height="366.5"><style>.crown{fill:url(#crown-gradient)}.body{fill:url(#body-gradient)}.bottom{fill:url(#bottom-gradient)}.eye{fill:#020203;stroke:#3C3C3B;stroke-width:14;stroke-linecap:round;stroke-linejoin:round;stroke-miterlimit:10}@keyframes fadeIn{100%{opacity:1}}@keyframes scaleUpDown{0%,100%{transform:scale(1)}50%{transform:scale(1.2);fill:#2FC4F7}}.eye__pupil{fill:#00B9EA;opacity:0;animation:scaleUpDown,fadeIn;animation-fill-mode:forwards,forwards;animation-duration:.4s,.6s;transform-origin:center;animation-iteration-count:3,1;animation-delay:3s,.1s;transform-box:fill-box}.mouth{fill:none;stroke:#020203;stroke-width:4;stroke-linecap:round;stroke-linejoin:round;stroke-miterlimit:10}.blue,.lightblue,.green,.orange{opacity:0;animation:fadeIn .4s forwards;transform-box:fill-box;fill:#1D4379}.lightblue{fill:#00B9EA;animation-delay:.4s}.green{fill:#00713D;animation-delay:.8s}.orange{fill:#FB5D36;animation-delay:1.2s}@keyframes shiftminus80{0%{transform:rotate(0deg)}100%{transform:rotate(-80deg)}}@keyframes shiftminus90{0%{transform:rotate(0deg) translateY(0)}100%{transform:rotate(-90deg) translateX(65px)}}@keyframes shift80{50%{transform:rotate(80deg)}100%{transform:rotate(0deg)}}@keyframes shift5{0%{transform:rotate(-90deg) translateX(65px) translateY(0)}50%{transform:rotate(-105deg) translateX(65px) translateY(0)}100%{transform:rotate(-90deg) translateX(65px) translateY(0)}}.grey{fill:#51514F;filter:drop-shadow(0 0 3px #FFF)}.right-arm{animation:shift80,shiftminus80;animation-duration:.5s,.5s;animation-fill-mode:forwards,forwards;animation-delay:3s,1.5s;transform-box:fill-box}.right-arm__hand{animation:shiftminus90,shift5;animation-duration:.5s,.2s;animation-iteration-count:1,5;animation-fill-mode:forwards,forwards;animation-delay:1.5s,2.5s;transform-box:fill-box;transform-ogigin:center center}</style><linearGradient id="crown-gradient" x1="147.9" x2="340.3" y1="14.8" y2="14.8" gradientUnits="userSpaceOnUse"><stop offset="0" stop-color="#9d9d9c"/><stop offset="1" stop-color="#575756"/></linearGradient><path d="M340.3 14.8c0 6.6-43.1 12-96.2 12s-96.2-5.4-96.2-12 43.1-12 96.2-12 96.2 5.3 96.2 12z" class="crown"/><linearGradient id="bottom-gradient" x1="116.3" x2="373.6" y1="290.8" y2="290.8" gradientUnits="userSpaceOnUse"><stop offset="0" stop-color="#666665"/><stop offset="1" stop-color="#2d2d2c"/></linearGradient><path d="M372.5 233.8l-.2-4.1v1.8c0 1-1.6 3.2-3.8 2.8a439.8 439.8 0 0 0-247.8.2 5.1 5.1 0 0 0-3.9 4.8l-.5 44.5c0 2.2.6 5.7 1.4 7.7a1041 1041 0 0 1 18.9 54.2c.8 2.5 3.2 5 5.4 5.6a420.3 420.3 0 0 0 11.5 3l-.2-.1 5.5 1.3a397.7 397.7 0 0 0 182.6-2.5l6.2-1.6a9.1 9.1 0 0 0 5.4-5.6c6.4-19.5 12.8-37.5 19.2-53.8.8-2.1 1.5-5.5 1.4-7.7l-1.1-50.5z" class="bottom"/><linearGradient id="body-gradient" x1="116.6" x2="372.6" y1="133.4" y2="133.4" gradientUnits="userSpaceOnUse"><stop offset="0" stop-color="#e4e4e4"/><stop offset="1" stop-color="#706f6f"/></linearGradient><path d="M147.8 15.4c-10 78.5-29.6 149.8-31.2 223.1 82.5 18 173.5 18 256 0-2-73.5-22-144.9-32.3-223.7v.1c0 6.6-43.1 12-96.3 12-51.7-.1-93.9-5.2-96.2-11.5z" class="body"/><path d="M235.6 112.2a37.9 37.9 0 0 1-38.3 37.4c-21.1 0-38.3-16.7-38.3-37.4s17.1-37.4 38.3-37.4a38 38 0 0 1 38.3 37.4z" class="eye"/><path d="M221.6 112.5c0 5.4-4.3 9.8-9.5 9.8s-9.5-4.4-9.5-9.8 4.3-9.8 9.5-9.8c5.3 0 9.5 4.4 9.5 9.8z" class="eye__pupil"/><path d="M285.2 73.8c21.2 0 38.3 16.7 38.3 37.4s-17.1 37.4-38.3 37.4-38.3-16.7-38.3-37.4 17.1-37.4 38.3-37.4z" class="eye"/><path d="M271.3 103.4c5.2 0 9.5 4.4 9.5 9.8s-4.3 9.8-9.5 9.8-9.5-4.4-9.5-9.8 4.3-9.8 9.5-9.8z" class="eye__pupil"/><path d="M229.3 184.3c3.4 6.5 18.1 5.4 32.8-2.4" class="mouth"/><g><g><path d="M65.4 245.3c-2.9-.5-4.7-3.8-4-7.4.7-3.5 3.5-6 6.4-5.4s4.7 3.8 4 7.4-3.5 5.9-6.4 5.4z" class="grey"/><path d="M47.3 239c-2.5-1.5-3.2-5.2-1.4-8.3 1.8-3.1 5.3-4.5 7.8-3s3.2 5.2 1.4 8.3c-1.8 3.1-5.3 4.4-7.8 3z" class="grey"/><path d="M39.9 226.5c-2.8 2.2-6.6 2.2-8.4-.1s-1-6 1.8-8.2c2.8-2.2 6.6-2.2 8.4.1s1 5.9-1.8 8.2z" class="grey"/><path d="M36.3 188.6c-3.1-1.9-4.3-5.4-2.8-7.9s5.3-3 8.3-1.1c3.1 1.9 4.3 5.4 2.8 7.9-1.6 2.5-5.3 3-8.3 1.1z" class="grey"/><path d="M55 225.3c-11.6-6.6-16.6-19.5-11.3-28.8 5.3-9.3 19-11.5 30.6-4.9 11.6 6.6 16.6 19.5 11.3 28.8-5.4 9.4-19.1 11.5-30.6 4.9z" class="grey"/></g><path d="M109.5 154.3c6.3 0 11.4 4.1 11.4 9.2s-5.1 9.2-11.4 9.2c-6.3 0-11.4-4.1-11.4-9.2s5.1-9.2 11.4-9.2z" class="grey"/><path d="M99.3 176.2c5.4 5.2 6.4 12.8 2.3 17.1-4.1 4.3-11.8 3.6-17.2-1.5S78 179 82.1 174.7c4.1-4.3 11.8-3.7 17.2 1.5z" class="grey"/></g><g class="right-arm"><path d="M378.7 148.3c6.3 0 11.4 4.1 11.4 9.2s-5.1 9.2-11.4 9.2-11.4-4.1-11.4-9.2 5.1-9.2 11.4-9.2z" class="grey"/><path d="M391.2 167.9c6.4-3.8 14.1-2.7 17.1 2.5 3 5.1.3 12.4-6.2 16.2-6.4 3.8-14.1 2.7-17.1-2.5-3-5.2-.2-12.4 6.2-16.2z" class="grey"/></g><g class="right-arm__hand"><path d="M432.4 231.5c1.2 3.4 0 6.9-2.8 7.9s-6-.9-7.2-4.3 0-6.9 2.8-7.9c2.7-1 6 1 7.2 4.3z" class="grey"/><path d="M445.8 228.9c-2 2.1-5.7 1.9-8.4-.5s-3.2-6.2-1.2-8.3 5.7-1.9 8.4.5c2.7 2.5 3.2 6.2 1.2 8.3z" class="grey"/><path d="M456.8 214.1c-1.2 2.6-4.9 3.6-8.1 2s-4.9-4.9-3.6-7.6 4.9-3.6 8.1-2c3.2 1.6 4.8 4.9 3.6 7.6z" class="grey"/><path d="M448.9 178.5c1.8 2.3 1 6-1.9 8.2-2.8 2.2-6.6 2.1-8.4-.2-1.8-2.3-1-6 1.9-8.2 2.8-2.2 6.6-2.1 8.4.2z" class="grey"/><path d="M430.6 222c-11.3 7-25 5.4-30.7-3.7-5.7-9.1-1.1-22.2 10.2-29.2s25-5.4 30.7 3.7c5.6 9.1 1.1 22.2-10.2 29.2z" class="grey"/></g><path d="M138.1 226.5c-7.2-1.3-14.3-2.8-21.4-4.4l-.2 8.8s0 7.7-.1 7.6c-.2-.2.2 0 .2 0 7.1 1.6 14.2 3.5 21.4 4.8" class="blue"/><path d="M137.3 226.5c-.1 0-.1 0 0 0H136.4l-.3-.1h-.4l-.5-.1c0 .7-.1 3.8 0 8.7l.2 8c0-.2 0 0 0 0 7.1 1.4 13.7 2.1 20.9 3.3l.3-17.1c-10.7-1.3-13.7-1.6-19.3-2.7z" class="lightblue"/><path d="M177.3 231.6l-1-.1h-.1c-5.3-.4-10.6-1.1-15.9-1.9l-1.1-.1-1.4-.2-1.4-.2-.1 9 .1 8.2 3.5.3 3.7.4 1.5.2 3.1.3 3.7.4 1.5.2 2.8.3 1.5.2h.1l-.5-17z" class="green"/><path d="M194.7 250.1l2.8.2 1.4.1h2.4l-.5-17.4-1.4-.1h-.2l-1.5-.1-2.2-.1h-.1l-3.1-.2h-1.7l-2-.1-1.9-.1a25 25 0 0 1-2.5-.2h-.9l-1.9-.1-.9-.1-.9-.1h-.1l-2-.1.1 9.2.3 7.8 1.4.1 3.7.3 3.2.3 3.5.3 3.7.3 1.3.1z" class="orange"/></svg>