<svg width="31" height="32" viewBox="0 0 31 32" fill="none" xmlns="http://www.w3.org/2000/svg">
<path fill-rule="evenodd" clip-rule="evenodd" d="M8.13161 32L8.50888 30.0657C8.42082 28.2467 8.13522 26.4903 7.43435 24.9204C7.95948 24.0921 8.14807 22.6758 8.30019 21.1961L6.09783 17.5827C6.03376 17.597 5.71091 17.2731 5.54484 17.0465C5.46783 17.0533 5.38879 17.0598 5.30683 17.0651C1.74709 17.3203 1.67986 13.7217 2.18134 10.9817C2.67167 9.12116 -0.202139 10.1774 0.0362376 10.0615C-0.170327 9.4798 0.535514 8.5349 1.40858 8.21338C1.73391 8.48656 3.17393 8.72349 2.77725 10.9016C2.0453 12.1758 2.68493 18.0452 6.53134 15.2748L7.1029 14.4443C8.77014 13.4461 9.90018 12.7968 12.0489 11.9474C12.7038 11.1167 14.1245 9.32945 14.4613 9.00339C14.5422 8.92394 14.9638 8.57566 15.5563 8.19052C16.4869 6.97889 17.4376 4.73684 17.3474 3.80342C16.9261 4.17098 16.4808 4.57176 15.9321 3.70087C15.4976 3.01259 16.5299 2.28715 17.5177 2.40932L17.5693 2.35124C16.881 1.31214 19.0303 -0.445073 19.0536 0.103779C18.5504 0.533337 18.0678 1.02437 18.4448 1.81495C19.0303 1.36211 19.5462 1.32496 20.0587 1.51724L20.5852 1.71449C22.3216 2.081 24.3171 0.489649 24.3543 1.7451L24.3675 2.18696C24.0926 2.41848 23.7512 2.62933 23.3635 2.82528C23.6871 2.84908 24.0697 2.74627 24.3797 2.61311L24.3912 3.01416L23.7197 3.62815C23.1291 4.52023 22.4028 5.39792 21.5245 6.00563C21.5492 6.14036 21.5445 6.3936 21.5427 6.70752C22.5711 6.80824 23.6527 6.66619 24.5425 6.38235C24.5365 6.37293 24.5304 6.36351 24.5247 6.35357C24.2416 5.89183 24.5877 4.94403 25.0308 4.46189C25.1621 4.31853 25.4295 4.27118 25.5297 4.22592L26.9178 5.49288C26.8854 5.68673 26.8634 5.84082 26.7634 5.94991C26.1683 6.60105 25.2202 6.93096 24.7158 6.56312C23.8664 7.55123 22.8982 8.23458 21.703 8.53378C21.7249 8.61537 21.7499 8.69482 21.7782 8.77178C21.9443 8.97333 22.0782 9.19559 22.1684 9.44404C22.2908 9.68992 22.3899 9.9222 22.4716 10.1456C23.317 10.0822 24.0697 10.1166 25.3037 9.96089L28.4375 10.9473L30.7315 11.641L29.4015 12.3612L28.1481 11.7491C27.1713 11.5515 26.2792 12.2964 25.0549 11.5755C24.8074 11.6829 24.5239 11.8379 24.2126 12.0254C24.7426 12.1965 25.3243 12.4063 26.129 12.6178L28.0843 15.8564L28.8846 17.7091L27.4834 17.3651L27.2919 16.1603C26.3763 14.6308 25.4852 14.7543 24.6431 14.1684C23.9616 14.3284 23.0815 14.6287 22.1541 14.9111C21.6623 15.8245 21.0323 16.8593 20.0827 17.6908L16.7264 19.3545C16.7464 19.4089 16.7646 19.464 16.7808 19.5202C16.8015 19.5943 16.8187 19.6684 16.8319 19.7425C17.3037 19.9559 17.7991 20.3477 17.362 20.5747C17.2031 20.6577 17.0084 20.6749 16.8065 20.6617C16.7975 20.6993 16.7876 20.7369 16.7768 20.7741C17.1315 21.0833 17.3986 21.4882 16.9726 21.5977C16.7893 21.6449 16.5839 21.6116 16.3787 21.5454C16.3384 21.5966 16.2961 21.646 16.2514 21.6936C16.4425 22.1185 16.5133 22.5874 16.0842 22.5122C15.8899 22.4786 15.7094 22.3543 15.5444 22.2008C15.5259 22.2094 15.5072 22.2176 15.4882 22.2258C15.5495 22.7212 15.4768 23.2782 15.0684 23.0477C14.8494 22.9242 14.7004 22.6708 14.5831 22.4063C14.5301 22.4059 14.4778 22.4038 14.4255 22.3995C14.0651 23.2932 13.5855 24.1372 13.0321 24.7901L15.8043 25.4151L16.7968 26.3901L15.3365 27.1085L14.8068 25.9804C13.8385 26.0176 11.9018 26.0906 11.8549 26.0076C11.8294 25.9626 11.536 25.1051 11.1913 24.0942C10.8108 24.4168 10.3851 24.7483 9.91059 25.0868C9.87337 27.0721 9.3991 28.6601 9.27701 30.0034C9.54942 30.5531 9.54081 31.1299 9.62811 31.6869L8.13161 32ZM23.2347 7.24199C22.5095 7.33326 21.9708 7.30927 21.5452 7.21478C21.552 7.51762 21.5717 7.84295 21.6229 8.15649C22.1329 7.95037 22.658 7.67471 23.2347 7.24199Z" fill="#BFC8CD"/>
</svg>
