<?xml version="1.0" encoding="UTF-8" standalone="no"?>
<svg
   xmlns:dc="http://purl.org/dc/elements/1.1/"
   xmlns:cc="http://creativecommons.org/ns#"
   xmlns:rdf="http://www.w3.org/1999/02/22-rdf-syntax-ns#"
   xmlns:svg="http://www.w3.org/2000/svg"
   xmlns="http://www.w3.org/2000/svg"
   id="Calque_1"
   data-name="Calque 1"
   viewBox="0 0 110.27581 108.2946"
   version="1.1"
   width="110.27582"
   height="108.2946">
  <metadata
     id="metadata36">
    <rdf:RDF>
      <cc:Work
         rdf:about="">
        <dc:format>image/svg+xml</dc:format>
        <dc:type
           rdf:resource="http://purl.org/dc/dcmitype/StillImage" />
        <dc:title>logo-home2</dc:title>
      </cc:Work>
    </rdf:RDF>
  </metadata>
  <defs
     id="defs7">
    <linearGradient
       id="Dégradé_sans_nom_2"
       x1="36.40448"
       y1="152.43639"
       x2="116.50566"
       y2="152.43639"
       gradientTransform="matrix(1,0,0,-1,-0.20000019,181.21124)"
       gradientUnits="userSpaceOnUse">
      <stop
         offset="0"
         stop-color="#ffda12"
         id="stop2" />
      <stop
         offset="1"
         stop-color="#efe333"
         id="stop4" />
    </linearGradient>
  </defs>
  <title
     id="title9">logo-home2</title>
  <path
     d="m 87.456376,104.62952 c 0.50469,1.04542 1.00937,2.59554 2.09085,3.20837 a 5.00538,5.00538 0 0 0 2.52344,0.32444 h 15.645324 a 2.56645,2.56645 0 0 0 2.27109,-3.74911 c -0.97333,-1.87456 -1.9827,-3.71306 -2.956,-5.587621 l -6.02021,-11.35548 a 5.7487,5.7487 0 0 1 -0.757,-1.65826 c 0,0 -0.2163,-0.36049 0.0721,-1.33382 0.28839,-0.721 3.92935,-7.89476 4.14565,-8.61574 1.478,-4.57824 19.46653,-47.94535 -31.579004,-52.3794 a 11.55993,11.55993 0 0 1 1.11753,0.68493 36.33607,36.33607 0 0 1 10.88684,10.85079 35.71276,35.71276 0 0 1 2.73974,33.2373 34.71632,34.71632 0 0 1 -2.70369,5.119 35.35483,35.35483 0 0 1 -6.41674,7.49822 3.7504,3.7504 0 0 0 -1.33382,1.65826 2.49392,2.49392 0 0 0 0.10814,1.83851 z"
     fill="#4ba2ea"
     id="path21" />
  <path
     d="M 0.36166581,47.960269 C 8.5808658,42.372649 16.872176,42.012159 19.467666,49.726679 a 1.61653,1.61653 0 0 0 -0.03605,0.39654 35.63007,35.63007 0 0 0 30.67787,39.47379 35.20365,35.20365 0 0 0 9.73327,-0.03605 c 0.79309,-0.10814 1.55011,-0.25235 2.34319,-0.39654 a 4.70253,4.70253 0 0 1 1.73035,-0.14419 c 0.90123,11.031001 -33.70594,13.915001 -55.1191302,-12.473 -5.29923,-6.52489 -7.85870999,-19.68283 -8.43549999,-28.587"
     fill="#ff3b4a"
     id="path23" />
  <path
     d="m 107.24737,70.274679 a 52.19685,52.19685 0 0 1 -3.28047,8.039 c -0.28839,0.54074 -0.54074,1.04542 -0.82913,1.58616 -0.39654,0.721 -0.82913,1.478 -1.26172,2.199 a 13.08267,13.08267 0 0 0 -1.55011,2.55949 l 0.036,-0.14419 a 22.579,22.579 0 0 0 0.757,-2.199 47.41378,47.41378 0 0 0 -28.226484,-58.79615 c -0.18025,-0.10815 -0.32444,-0.18025 -0.50469,-0.28839 v 0 c 1.36986,0.721 -6.48884,-19.0699995 9.84141,-16.5104995 0.68493,0.36049 1.36986,0.757 2.05481,1.15357 a 51.87766,51.87766 0 0 1 12.473,10.4542495 52.39944,52.39944 0 0 1 9.228584,15.17668 55.053,55.053 0 0 1 3.677,18.96185 55.07978,55.07978 0 0 1 -2.41525,17.80823 z"
     fill="#65cee7"
     id="path25" />
  <path
     d="m 86.591186,14.759019 a 9.822,9.822 0 0 1 -0.68493,3.56887 9.65588,9.65588 0 0 1 -8.94018,6.05626 9.79667,9.79667 0 0 1 -4.57824,-1.15357 v 0 a 36.226,36.226 0 0 0 -14.41965,-4.47011 35.036,35.036 0 0 0 -18.349,3.28047 34.67684,34.67684 0 0 0 -7.71451,4.93873 35.883,35.883 0 0 0 -5.876,6.27255 36.25969,36.25969 0 0 0 -6.38071,15.10464 C 2.0920258,26.871529 38.141186,-7.7356405 78.588296,5.2780895 v 0 c 0.68493,0.18025 1.40591,0.39654 2.09085,0.61284 0.50469,0.25234 1.04542,0.50469 1.55011,0.79308 h 0.0361 a 9.68163,9.68163 0 0 1 4.32588,8.0750095 z"
     fill="#87c966"
     id="path27" />
  <path
     d="m 80.462846,5.7827795 a 11.06021,11.06021 0 0 0 -1.87456,-0.50469 v 0 a 47.12859,47.12859 0 0 0 -9.37278,-1.55011 c -0.93728,-0.0721 -1.87456,-0.0721 -2.84788,-0.0721 a 46.9904,46.9904 0 0 0 -46.71968,44.7009295 2.82766,2.82766 0 0 0 -0.0721,0.50469 v 0 c -0.03605,0.28839 -0.0721,0.57679 -0.10815,0.82913 v 0 a 9.64055,9.64055 0 0 1 -9.4809202,7.85871 h -0.28839 a 9.61243,9.61243 0 0 1 -9.33671999,-9.62512 c 0,-0.43259 0.03605,-0.82913 0.0721,-1.22567 v 0 a 53.396,53.396 0 0 1 4.83057999,-16.40236 51.57675,51.57675 0 0 1 10.9228402,-15.14063 55.4146,55.4146 0 0 1 15.429,-10.4181995 54.74409,54.74409 0 0 1 18.20489,-4.54219002 64.16007,64.16007 0 0 1 10.85079,0.0721 53.68473,53.68473 0 0 1 7.53427,1.18959002 55.08808,55.08808 0 0 1 12.25671,4.32592 z"
     fill="url(#D%C3%A9grad%C3%A9_sans_nom_2)"
     id="path29"
     style="fill:url(#D%C3%A9grad%C3%A9_sans_nom_2)" />
  <path
     d="m 71.847106,104.55742 c -0.50469,1.442 -1.9827,1.69431 -3.31652,2.01875 -1.58616,0.39654 -3.17232,0.68493 -4.79453,0.93728 -2.92,0.43259 -5.876,0.61284 -8.796,0.757 a 49.04025,49.04025 0 0 1 -9.19253,-0.57679 61.17333,61.17333 0 0 1 -9.48092,-2.16295 52.00631,52.00631 0 0 1 -20.00727,-11.824091 51.12209,51.12209 0 0 1 -7.8587102,-9.517 52.86178,52.86178 0 0 1 -7.06563,-16.97915 61.76468,61.76468 0 0 1 -1.00937999,-19.106 v -0.14419 a 46.624,46.624 0 0 0 43.15082019,43.8718 c 1.26172,0.10814 2.52344,0.14419 3.82121,0.14419 a 46.82746,46.82746 0 0 0 16.5826,-2.99207 0.917,0.917 0 0 1 0.25235,0.0721 2.49428,2.49428 0 0 1 1.55011,1.40591 c 1.18962,2.34319 2.37925,4.68639 3.53281,7.06563 0.0361,0.0721 0.0721,0.18025 0.10814,0.25235 0.61284,1.18962 1.18962,2.415301 1.80246,3.604911 0.54075,1.00937 1.15359,1.9827 0.72099,3.17232 z"
     fill="#af27cc"
     id="path31" />
</svg>
