<?xml version="1.0" encoding="utf-8"?>
<!-- Generator: Adobe Illustrator 15.0.0, SVG Export Plug-In . SVG Version: 6.00 Build 0)  -->
<!DOCTYPE svg PUBLIC "-//W3C//DTD SVG 1.1//EN" "http://www.w3.org/Graphics/SVG/1.1/DTD/svg11.dtd">
<svg version="1.1" id="Layer_1" xmlns="http://www.w3.org/2000/svg" xmlns:xlink="http://www.w3.org/1999/xlink" x="0px" y="0px"
	 width="187.5px" height="123px" viewBox="204.638 359.945 187.5 123" enable-background="new 204.638 359.945 187.5 123"
	 xml:space="preserve">
<g>
	<path fill="#91298D" d="M384.494,422.138c0-29.957-24.387-54.333-54.363-54.333c-15.306,0-29.127,6.392-39.021,16.616
		c-16.256-3.74-32.199-6.829-40.321-6.829c-25.177,0-37.417,14.309-37.417,43.765c0,37.475,20.347,45.334,37.417,45.334
		c6.769,0,23.083-3.266,40.039-7.143c9.898,10.408,23.849,16.934,39.304,16.934c6.713,0,13.12-1.277,19.063-3.516
		c3.678,3.033,8.226,4.686,13.05,4.686c5.49,0,10.66-2.139,14.546-6.01c3.89-3.896,6.018-9.061,6.018-14.547
		c0-4.227-1.272-8.256-3.631-11.656C382.544,438.365,384.494,430.488,384.494,422.138z M278.532,412.071
		c0,3.281-0.988,6.338-2.676,8.896c-0.26,0.404-0.548,0.796-0.848,1.171c0.318,0.395,0.577,0.834,0.856,1.26
		c1.699,2.611,2.667,5.676,2.667,8.818c0,1.594-0.24,3.121-0.671,4.584c-1.982,6.725-8.206,11.654-15.566,11.654
		c-0.069,0-0.129-0.016-0.191-0.016h-20.441c-3.411,0-6.161-2.762-6.161-6.156c0-3.4,2.75-6.156,6.161-6.156h20.633
		c0.023,0,0.06,0.016,0.083,0.016c2.134-0.059,3.846-1.785,3.846-3.926c0-1.143-0.471-1.965-0.866-2.459
		c-0.729-0.906-1.801-1.434-2.959-1.453c-0.033,0-0.067,0-0.104,0c-0.059,0-0.117-0.014-0.178-0.014h-15.712
		c-3.396,0-6.16-2.758-6.16-6.156c0-3.401,2.763-6.155,6.16-6.155h15.89c0.023,0,0.049,0.004,0.082,0.004
		c2.127-0.04,3.848-1.783,3.848-3.911c0-1.153-0.471-1.972-0.866-2.463c-0.753-0.938-1.872-1.466-3.063-1.466h-20.633
		c-3.411,0-6.161-2.761-6.161-6.159c0-3.402,2.75-6.156,6.161-6.156h20.633c4.93,0,9.541,2.208,12.641,6.05
		c1.355,1.681,2.314,3.635,2.909,5.698C278.261,409.029,278.532,410.54,278.532,412.071z M348.472,432.998
		c1.886-3.176,2.994-6.887,2.994-10.859c0-11.773-9.554-21.32-21.335-21.32c-11.766,0-21.315,9.547-21.315,21.32
		c0,11.785,9.551,21.328,21.315,21.328c3.341,0,6.47-0.783,9.271-2.141l5.062,5.506c-2.449,4.213-3.337,9.201-2.405,14.104
		c-3.771,1.158-7.771,1.799-11.927,1.799c-22.375,0-40.577-18.215-40.577-40.598c0-22.377,18.202-40.583,40.577-40.583
		c22.383,0,40.596,18.206,40.596,40.583c0,5.379-1.068,10.504-2.972,15.197c-0.339-0.086-0.641-0.215-0.972-0.297
		c-4.555-1.012-9.184-0.449-13.254,1.469L348.472,432.998z M367.053,461.908c-1.272,1.285-2.998,1.986-4.811,1.986
		c-1.813-0.004-3.515-0.713-4.802-1.986c-0.966-0.973-1.616-2.176-1.863-3.51c-0.434-2.221,0.266-4.514,1.863-6.104
		c1.661-1.666,4.02-2.35,6.322-1.84c1.229,0.293,2.379,0.92,3.289,1.84c1.295,1.277,1.993,2.986,1.993,4.799
		C369.046,458.906,368.348,460.617,367.053,461.908z"/>
</g>
</svg>
