<?xml version="1.0" encoding="UTF-8" standalone="no"?>
<!-- Created with Inkscape (http://www.inkscape.org/) -->
<svg
   xmlns:dc="http://purl.org/dc/elements/1.1/"
   xmlns:cc="http://web.resource.org/cc/"
   xmlns:rdf="http://www.w3.org/1999/02/22-rdf-syntax-ns#"
   xmlns:svg="http://www.w3.org/2000/svg"
   xmlns="http://www.w3.org/2000/svg"
   xmlns:sodipodi="http://sodipodi.sourceforge.net/DTD/sodipodi-0.dtd"
   xmlns:inkscape="http://www.inkscape.org/namespaces/inkscape"
   width="800.07874"
   height="182.94093"
   id="svg2191"
   sodipodi:version="0.32"
   inkscape:version="0.44"
   version="1.0"
   sodipodi:docbase="C:\Dokumente und Einstellungen\Andreas\Eigene Dateien\Eigene Bilder\sonstiges\Logos\Vektor\HiFi, Video\[[HOCHLADEN]]"
   sodipodi:docname="Aiwa-new-Logo.svg">
  <defs
     id="defs2193" />
  <sodipodi:namedview
     id="base"
     pagecolor="#ffffff"
     bordercolor="#666666"
     borderopacity="1.0"
     inkscape:pageopacity="0.0"
     inkscape:pageshadow="2"
     inkscape:zoom="0.35"
     inkscape:cx="350"
     inkscape:cy="520"
     inkscape:document-units="px"
     inkscape:current-layer="layer1"
     width="225.8mm"
     height="51.63mm"
     units="mm"
     inkscape:window-width="904"
     inkscape:window-height="574"
     inkscape:window-x="285"
     inkscape:window-y="212" />
  <metadata
     id="metadata2196">
    <rdf:RDF>
      <cc:Work
         rdf:about="">
        <dc:format>image/svg+xml</dc:format>
        <dc:type
           rdf:resource="http://purl.org/dc/dcmitype/StillImage" />
      </cc:Work>
    </rdf:RDF>
  </metadata>
  <g
     inkscape:label="Ebene 1"
     inkscape:groupmode="layer"
     id="layer1"
     transform="translate(607.8752,401.2469)">
    <path
       id="path2438"
       style="fill:#d40000;fill-rule:nonzero;stroke:none"
       d="M -470.99623,-347.45122 C -461.39359,-358.4576 -453.11491,-358.37783 -442.63495,-346.17516 C -432.20285,-333.97245 -353.5952,-237.86634 -347.59754,-230.92754 C -343.04347,-225.74339 -336.04088,-221.91507 -329.71622,-221.91507 C -325.29773,-221.91507 -289.51115,-221.91507 -285.65893,-221.91507 C -283.25827,-221.91507 -281.39995,-223.27095 -280.91344,-225.10532 C -280.41895,-227.09922 -280.81774,-228.93364 -282.49261,-231.08704 C -286.13747,-235.79266 -378.83004,-348.24879 -394.04751,-366.27369 C -409.33676,-384.37831 -422.40879,-397.61786 -442.79446,-397.61786 C -459.53527,-397.61786 -469.60847,-390.7588 -478.57306,-380.231 C -490.84753,-365.87493 -597.60111,-236.03192 -601.74843,-230.92754 C -603.9178,-228.21583 -604.6037,-226.22193 -604.2448,-224.62678 C -603.88589,-223.03168 -602.33065,-221.91507 -599.78643,-221.91507 C -596.63606,-221.83535 -587.09723,-221.83535 -583.57999,-221.91507 C -578.61915,-221.91507 -572.76505,-224.22802 -567.08642,-230.92754 C -553.55978,-246.95853 -480.88599,-336.04613 -470.99623,-347.45122 M -107.99418,-221.99484 C -98.830196,-221.99484 -90.431852,-225.98266 -81.738465,-235.39389 C -73.683063,-244.16705 -29.657685,-298.95949 -21.841596,-307.97197 C -14.663537,-316.34636 -6.0498751,-316.50586 0.88891683,-308.4505 C 8.1467015,-299.91656 60.14771,-236.35096 64.693786,-231.00727 C 69.399403,-225.66362 76.258424,-221.99484 82.080651,-221.99484 C 84.074559,-221.91507 181.77581,-221.91507 183.61018,-221.99484 C 186.40166,-221.99484 187.91703,-223.35072 188.39556,-225.02559 C 188.95387,-226.93973 188.7146,-228.77409 186.95996,-231.00727 C 182.97215,-236.11169 89.976511,-348.72733 74.982363,-366.75222 C 59.988214,-384.77712 50.816247,-397.69759 33.190115,-397.69759 C 16.840134,-397.69759 9.10377,-387.24956 0.96864253,-377.67883 C -7.1664853,-368.10806 -53.265496,-311.00267 -62.836271,-300.39514 C -71.290391,-290.98391 -83.174067,-290.74464 -92.066859,-300.9534 C -101.03943,-311.24193 -132.90998,-350.88073 -146.38082,-366.83199 C -160.00313,-383.02248 -175.81081,-397.53809 -199.16341,-397.69759 C -202.83219,-397.69759 -257.6087,-397.69759 -260.61551,-397.69759 C -262.92046,-397.69759 -264.22846,-396.82029 -264.76283,-395.38469 C -265.361,-393.70977 -264.65117,-391.63614 -262.48977,-388.92443 C -258.48602,-383.97955 -145.09673,-245.84192 -136.41128,-236.03192 C -127.46266,-225.98266 -118.25083,-221.99484 -109.3979,-221.99484 C -108.79175,-221.99484 -108.55249,-221.99484 -107.99418,-221.99484 M -175.14883,-221.91507 C -172.85983,-221.91507 -170.86593,-223.27095 -170.40335,-225.10532 C -169.9567,-226.93973 -170.46716,-229.1729 -171.97455,-231.08704 C -174.59851,-234.43678 -269.81139,-350.16293 -283.73681,-366.59273 C -297.79781,-383.18198 -313.06314,-397.3786 -336.34395,-397.61786 C -338.63295,-397.61786 -369.21145,-397.61786 -371.43665,-397.61786 C -373.83731,-397.61786 -375.09746,-396.82029 -375.62385,-395.06565 C -376.19012,-393.23124 -375.26494,-391.3171 -373.23117,-388.68516 C -370.98204,-385.89368 -247.29623,-235.79266 -243.13296,-230.92754 C -239.1292,-226.3017 -232.25423,-221.91507 -225.77005,-221.91507 C -221.66261,-221.83535 -178.73784,-221.83535 -175.14883,-221.91507" />
  </g>
</svg>
