<?xml version="1.0" encoding="UTF-8" standalone="no"?>
<!-- Created with Inkscape (http://www.inkscape.org/) -->

<svg
   xmlns:dc="http://purl.org/dc/elements/1.1/"
   xmlns:cc="http://creativecommons.org/ns#"
   xmlns:rdf="http://www.w3.org/1999/02/22-rdf-syntax-ns#"
   xmlns:svg="http://www.w3.org/2000/svg"
   xmlns="http://www.w3.org/2000/svg"
   xmlns:sodipodi="http://sodipodi.sourceforge.net/DTD/sodipodi-0.dtd"
   xmlns:inkscape="http://www.inkscape.org/namespaces/inkscape"
   width="177.31895"
   height="190.20764"
   id="svg35608"
   sodipodi:version="0.32"
   inkscape:version="0.92.1 r15371"
   version="1.0"
   sodipodi:docname="BangOlufsen.svg">
  <defs
     id="defs35610" />
  <sodipodi:namedview
     id="base"
     pagecolor="#ffffff"
     bordercolor="#666666"
     borderopacity="1.0"
     inkscape:pageopacity="0.0"
     inkscape:pageshadow="2"
     inkscape:zoom="0.35"
     inkscape:cx="-165.09108"
     inkscape:cy="244.57731"
     inkscape:document-units="px"
     inkscape:current-layer="layer1"
     inkscape:window-width="925"
     inkscape:window-height="574"
     inkscape:window-x="868"
     inkscape:window-y="238"
     width="160.15mm"
     height="52.45mm"
     units="mm"
     showgrid="false"
     fit-margin-top="0"
     fit-margin-left="0"
     fit-margin-right="0"
     fit-margin-bottom="0"
     inkscape:window-maximized="0" />
  <metadata
     id="metadata35613">
    <rdf:RDF>
      <cc:Work
         rdf:about="">
        <dc:format>image/svg+xml</dc:format>
        <dc:type
           rdf:resource="http://purl.org/dc/dcmitype/StillImage" />
        <dc:title></dc:title>
      </cc:Work>
    </rdf:RDF>
  </metadata>
  <g
     inkscape:label="Ebene 1"
     inkscape:groupmode="layer"
     id="layer1"
     transform="translate(-515.42195,-707.9221)">
    <g
       id="g35631"
       transform="translate(3.7838443,3.7840789)">
      <path
         inkscape:connector-curvature="0"
         style="fill:#acabab;fill-rule:nonzero;stroke:none;stroke-width:1.06666672"
         d="m 636.68768,894.29274 c 14.02672,0 27.12715,-5.4294 36.91939,-15.28649 9.92457,-9.8584 15.35,-22.96545 15.35,-36.90615 0,-13.94072 -5.42543,-27.04776 -15.35,-36.90524 -9.79224,-9.85788 -22.89267,-15.28688 -36.91939,-15.28688 -13.8944,0 -26.99483,5.429 -36.78707,15.28688 -9.92457,9.85748 -15.35001,22.96452 -15.35001,36.90524 0,13.9407 5.42544,27.04775 15.35001,36.90615 9.79224,9.85709 22.89267,15.28649 36.78707,15.28649 z M 597.91569,842.1001 c 0,-10.35596 4.10216,-20.0913 11.38018,-27.41431 7.41034,-7.32247 17.07025,-11.35529 27.39181,-11.35529 10.45388,0 20.11379,4.03282 27.52413,11.35529 7.27801,7.32301 11.24785,17.05835 11.24785,27.41431 0,21.37751 -17.33491,38.77065 -38.77198,38.77065 -10.32156,0 -19.98147,-4.03334 -27.39181,-11.35635 -7.27802,-7.32301 -11.38018,-17.05835 -11.38018,-27.4143 z"
         class="ps01"
         id="path35128" />
      <path
         inkscape:connector-curvature="0"
         style="fill:#acabab;fill-rule:nonzero;stroke:none;stroke-width:1.06666672"
         d="m 566.68639,833.89446 c 3.44051,6.05267 5.2931,12.95223 5.2931,19.95368 0,10.81778 -4.23449,20.98715 -11.90948,28.63569 -7.675,7.64853 -17.7319,11.86183 -28.58276,11.86183 h -19.71681 -0.13233 v -0.21436 -187.18133 -0.21436 h 0.13233 l 13.10043,0.0107 c 16.01164,0 31.09698,6.24058 42.47715,17.57047 11.24784,11.3312 17.46724,26.39537 17.46724,42.41892 0,22.20959 -12.04181,42.4536 -31.62629,52.92706 5.55776,3.55961 10.18923,8.46764 13.49742,14.23183 z m -8.86595,-34.23155 c 8.73362,-8.79542 13.62974,-20.48986 13.62974,-32.92734 0,-12.43879 -4.89612,-24.13257 -13.62974,-32.92707 -8.73362,-8.74552 -20.37845,-13.57945 -32.68491,-13.63503 v 93.12288 c 12.30646,-0.0556 23.95129,-4.88884 32.68491,-13.63344 z m -32.68491,81.25945 h 6.35172 c 14.95302,0 26.99483,-12.14503 26.99483,-27.07422 0,-7.2317 -2.77888,-14.0307 -7.93966,-19.14515 -5.02845,-5.11314 -11.90948,-7.92907 -19.05517,-7.92907 0,0 -5.29311,-0.0304 -6.35172,-0.037 z"
         class="ps01"
         id="path35130" />
      <path
         inkscape:connector-curvature="0"
         style="fill:#acabab;fill-rule:nonzero;stroke:none;stroke-width:1.06666672"
         d="m 649.78811,709.75267 -0.13233,0.14954 -3.04353,2.9906 -4.36682,4.33107 -0.13232,0.15483 -0.13233,-0.15747 c -0.66164,-0.66958 -2.3819,-2.22575 -5.42543,-2.22575 -1.85259,0 -3.96982,0.89321 -5.42543,2.33294 -0.92629,0.97657 -2.11725,2.67831 -2.11725,5.24546 0,2.41101 0.9263,3.94071 2.24957,5.38838 2.64656,2.67302 24.08363,24.10611 24.08363,24.10611 l 7.27801,-7.22112 0.13232,-0.15217 0.13233,0.15217 7.27802,7.37331 0.13233,0.15217 -0.13233,0.15085 -7.14569,7.18275 10.18923,10.16275 0.13232,0.15086 -0.13232,0.15217 -7.41035,7.34682 -0.13233,0.15219 -0.13233,-0.15219 -10.18921,-10.16407 c -1.58794,1.63688 -3.44053,3.37964 -6.48406,6.47214 -3.44052,3.44183 -8.46897,5.74434 -13.49742,6.1572 -4.23447,0.3467 -10.45387,-0.43139 -16.14395,-6.10692 -4.10216,-4.04525 -6.21941,-9.05782 -6.21941,-14.49781 0,-5.62127 2.3819,-11.46221 6.08708,-15.24545 l 4.10215,-4.05452 2.51423,-2.41763 c -0.13233,-0.12968 -0.39698,-0.27391 -0.52931,-0.4552 -2.11725,-2.01403 -7.01337,-6.73283 -7.01337,-14.67116 0,-4.60765 1.85259,-9.22853 5.16078,-12.67698 3.44051,-3.68798 8.20431,-5.72052 13.23276,-5.72052 6.7487,0 10.98319,3.37302 12.9681,5.38308 z m -1.98492,49.91793 -14.55603,-14.31917 -6.48406,6.47082 c -1.85258,1.87641 -2.9112,4.605 -2.9112,7.29919 0,2.66375 1.05862,5.10785 2.9112,7.06762 4.49914,4.48061 10.71854,3.71708 14.42372,0.0502 3.04353,-3.05147 5.95474,-5.89387 6.61637,-6.56874 z"
         class="ps01"
         id="path35132" />
    </g>
  </g>
</svg>
