<?xml version="1.0" encoding="UTF-8" standalone="no"?>
<!-- Creator: CorelDRAW -->

<svg
   xmlns:dc="http://purl.org/dc/elements/1.1/"
   xmlns:cc="http://creativecommons.org/ns#"
   xmlns:rdf="http://www.w3.org/1999/02/22-rdf-syntax-ns#"
   xmlns:svg="http://www.w3.org/2000/svg"
   xmlns="http://www.w3.org/2000/svg"
   xmlns:sodipodi="http://sodipodi.sourceforge.net/DTD/sodipodi-0.dtd"
   xmlns:inkscape="http://www.inkscape.org/namespaces/inkscape"
   xml:space="preserve"
   width="1108.0461"
   height="1108.7811"
   style="clip-rule:evenodd;fill-rule:evenodd;image-rendering:optimizeQuality;shape-rendering:geometricPrecision;text-rendering:geometricPrecision"
   viewBox="0 0 1230.1859 1230.2686"
   version="1.1"
   id="svg46"
   sodipodi:docname="Chinamobil_logo.svg"
   inkscape:version="0.92.1 r15371"><metadata
     id="metadata50"><rdf:RDF><cc:Work
         rdf:about=""><dc:format>image/svg+xml</dc:format><dc:type
           rdf:resource="http://purl.org/dc/dcmitype/StillImage" /><dc:title></dc:title></cc:Work></rdf:RDF></metadata><sodipodi:namedview
     pagecolor="#ffffff"
     bordercolor="#666666"
     borderopacity="1"
     objecttolerance="10"
     gridtolerance="10"
     guidetolerance="10"
     inkscape:pageopacity="0"
     inkscape:pageshadow="2"
     inkscape:window-width="811"
     inkscape:window-height="480"
     id="namedview48"
     showgrid="false"
     fit-margin-top="0"
     fit-margin-left="0"
     fit-margin-right="0"
     fit-margin-bottom="0"
     inkscape:zoom="0.13578826"
     inkscape:cx="371.37016"
     inkscape:cy="240.29888"
     inkscape:window-x="0"
     inkscape:window-y="0"
     inkscape:window-maximized="0"
     inkscape:current-layer="svg46" /><defs
     id="defs4"><style
       type="text/css"
       id="style2"><![CDATA[
    .fil1 {fill:#005197;fill-rule:nonzero}
    .fil2 {fill:#1F1A17;fill-rule:nonzero}
    .fil0 {fill:white;fill-rule:nonzero}
   ]]></style></defs><path
     style="fill:#ffffff;fill-rule:nonzero"
     inkscape:connector-curvature="0"
     id="path7"
     d="m 1166.0525,616.90523 c 0,310.273 -249.144,561.75797 -556.498,561.75797 -307.328,0 -556.531,-251.48497 -556.531,-561.75797 0,-310.307 249.203,-561.79 556.531,-561.79 307.355,0 556.498,251.484 556.498,561.79 z"
     class="fil0" /><path
     style="fill:#005197;fill-rule:nonzero"
     inkscape:connector-curvature="0"
     id="path9"
     d="m 691.8155,1091.8752 c -87.4516,72.8444 -167.466,7.2557 -167.466,7.2557 L 138.3485,793.38596 v -87.2969 l 334.865,269.25 c 109.194,65.70924 182.099,-14.6072 182.099,-14.6072 l 298.369,-247.447 -58.2975,-58.211 -276.601,232.899 c -65.4681,65.5297 -145.568,0 -145.568,0 l -334.865,-269.49 v -65.4943 l 313.121,247.689 c 65.59,43.7507 116.391,-7.29113 116.391,-7.29113 l 240.346,-196.766 c -43.6406,-50.9225 -87.3323,-7.13644 -87.3323,-7.13644 l -145.483,123.801 c -58.3316,65.434 -131.083,0 -131.083,0 l -313.13,-254.918 342.035,-298.704 c 152.825,-109.22 276.66,-7.34225 276.66,-7.34225 l 334.924,284.098 v 80.1264 l -334.924,-276.807 c -94.5618,-72.6897 -174.482,7.29113 -174.482,7.29113 l -313.276,269.516 65.5625,43.6996 254.729,-218.542 c 80.1355,-65.5546 167.466,-7.25704 167.466,-7.25704 l 334.924,276.937 v 58.0826 l -291.172,-233.046 c -80.1958,-65.5638 -152.825,0 -152.825,0 l -225.799,196.576 c 43.6393,43.7258 87.331,0 87.331,0 l 145.819,-123.792 c 72.7238,-58.1861 130.661,7.34225 130.661,7.34225 l 313.398,247.723 -400.393,327.60802 z M 611.68,-0.57477011 C 269.431,-0.57477011 0,276.14623 0,618.48123 c 0,335.019 269.431,611.94597 611.68,611.94597 342,0 618.506,-276.92597 618.506,-611.94597 0,-342.336 -276.506,-619.05600011 -618.506,-619.05600011 z"
     class="fil1" /></svg>