<?xml version="1.0" encoding="UTF-8" standalone="no"?>
<!-- Created with Inkscape (http://www.inkscape.org/) -->

<svg
   xmlns:dc="http://purl.org/dc/elements/1.1/"
   xmlns:cc="http://creativecommons.org/ns#"
   xmlns:rdf="http://www.w3.org/1999/02/22-rdf-syntax-ns#"
   xmlns:svg="http://www.w3.org/2000/svg"
   xmlns="http://www.w3.org/2000/svg"
   xmlns:sodipodi="http://sodipodi.sourceforge.net/DTD/sodipodi-0.dtd"
   xmlns:inkscape="http://www.inkscape.org/namespaces/inkscape"
   version="1.1"
   id="svg2"
   width="56.153465"
   height="58.75605"
   viewBox="0 0 56.153465 58.75605"
   sodipodi:docname="Landvo.svg"
   inkscape:version="0.92.2 (5c3e80d, 2017-08-06)">
  <metadata
     id="metadata8">
    <rdf:RDF>
      <cc:Work
         rdf:about="">
        <dc:format>image/svg+xml</dc:format>
        <dc:type
           rdf:resource="http://purl.org/dc/dcmitype/StillImage" />
        <dc:title></dc:title>
      </cc:Work>
    </rdf:RDF>
  </metadata>
  <defs
     id="defs6" />
  <sodipodi:namedview
     pagecolor="#ffffff"
     bordercolor="#666666"
     borderopacity="1"
     objecttolerance="10"
     gridtolerance="10"
     guidetolerance="10"
     inkscape:pageopacity="0"
     inkscape:pageshadow="2"
     inkscape:window-width="1920"
     inkscape:window-height="1051"
     id="namedview4"
     showgrid="false"
     fit-margin-top="0"
     fit-margin-left="0"
     fit-margin-right="0"
     fit-margin-bottom="0"
     inkscape:zoom="1.544221"
     inkscape:cx="124.04567"
     inkscape:cy="33.887654"
     inkscape:window-x="0"
     inkscape:window-y="0"
     inkscape:window-maximized="1"
     inkscape:current-layer="svg2" />
  <path
     style="fill:#63af00;fill-opacity:0.70980392;stroke-width:0.99999994"
     d="m 16.019686,58.423501 c -9.36834,-0.73307 -13.751659,-4.19607 -15.31251604,-12.0975 -0.658225,-3.33209 -0.970427,-24.95103 -0.434834,-30.11083 C 1.056034,8.665181 2.798552,5.072541 6.794282,2.768561 11.094155,0.28921 14.120842,0.01358 37.130052,0.006 L 56.153464,0 v 5.618731 5.61872 l -19.344482,0.002 c -13.16027,10e-4 -19.75505,0.11551 -20.628761,0.35751 -1.793859,0.49686 -2.945556,1.39836 -3.779844,2.95871 -0.699857,1.30893 -0.717218,1.61066 -0.812462,14.11976 -0.109329,14.35923 -0.0037,15.29624 1.930472,17.11917 2.014967,1.89912 1.557566,1.85983 22.969525,1.97304 l 19.665552,0.10396 v 5.44223 5.44222 l -18.541806,-0.0467 c -10.197993,-0.0257 -19.91438,-0.15411 -21.591972,-0.28538 z"
     id="path817"
     inkscape:connector-curvature="0"
     sodipodi:nodetypes="cssscccccccscscccccc" />
</svg>
