<?xml version="1.0" encoding="UTF-8" standalone="no"?>
<!-- Created with Inkscape (http://www.inkscape.org/) -->

<svg
   xmlns:dc="http://purl.org/dc/elements/1.1/"
   xmlns:cc="http://creativecommons.org/ns#"
   xmlns:rdf="http://www.w3.org/1999/02/22-rdf-syntax-ns#"
   xmlns:svg="http://www.w3.org/2000/svg"
   xmlns="http://www.w3.org/2000/svg"
   xmlns:sodipodi="http://sodipodi.sourceforge.net/DTD/sodipodi-0.dtd"
   xmlns:inkscape="http://www.inkscape.org/namespaces/inkscape"
   version="1.1"
   id="svg2"
   xml:space="preserve"
   width="85.614647"
   height="57.46133"
   viewBox="0 0 85.614645 57.461331"
   sodipodi:docname="Digma.svg"
   inkscape:version="0.92.1 r15371"><metadata
     id="metadata8"><rdf:RDF><cc:Work
         rdf:about=""><dc:format>image/svg+xml</dc:format><dc:type
           rdf:resource="http://purl.org/dc/dcmitype/StillImage" /><dc:title></dc:title></cc:Work></rdf:RDF></metadata><defs
     id="defs6" /><sodipodi:namedview
     pagecolor="#ffffff"
     bordercolor="#666666"
     borderopacity="1"
     objecttolerance="10"
     gridtolerance="10"
     guidetolerance="10"
     inkscape:pageopacity="0"
     inkscape:pageshadow="2"
     inkscape:window-width="956"
     inkscape:window-height="1051"
     id="namedview4"
     showgrid="false"
     fit-margin-top="0"
     fit-margin-left="0"
     fit-margin-right="0"
     fit-margin-bottom="0"
     inkscape:zoom="0.94519034"
     inkscape:cx="63.726194"
     inkscape:cy="-111.40428"
     inkscape:window-x="960"
     inkscape:window-y="0"
     inkscape:window-maximized="0"
     inkscape:current-layer="g10" /><g
     id="g10"
     inkscape:groupmode="layer"
     inkscape:label="ink_ext_XXXXXX"
     transform="matrix(1.3333333,0,0,-1.3333333,-136.78883,795.24265)"><path
       inkscape:connector-curvature="0"
       id="path14"
       style="fill:#f7991f;fill-opacity:1;fill-rule:nonzero;stroke:none;stroke-width:0.1"
       d="m 152,574.807 c -2.659,-6.593 -9.323,-9.644 -16.691,-9.644 h -13.655 l 8.934,19.428 h 13.11 c 8.208,0 10.288,-4.86 8.302,-9.784 m -2.49,21.625 h -26.984 c -0.179,0 -0.361,-0.05 -0.522,-0.153 -0.163,-0.104 -0.283,-0.248 -0.359,-0.411 l -18.964,-41.156 c -0.134,-0.291 -0.121,-0.64 0.064,-0.929 0.184,-0.29 0.497,-0.447 0.816,-0.447 h 33.837 c 17.186,0 26.594,12.24 28.801,21.75 2.492,10.74 -2.667,21.346 -16.689,21.346" /></g></svg>