<?xml version="1.0" encoding="UTF-8" standalone="no"?>
<!-- Generator: Adobe Illustrator 22.1.0, SVG Export Plug-In . SVG Version: 6.00 Build 0)  -->

<svg
   xmlns:dc="http://purl.org/dc/elements/1.1/"
   xmlns:cc="http://creativecommons.org/ns#"
   xmlns:rdf="http://www.w3.org/1999/02/22-rdf-syntax-ns#"
   xmlns:svg="http://www.w3.org/2000/svg"
   xmlns="http://www.w3.org/2000/svg"
   xmlns:sodipodi="http://sodipodi.sourceforge.net/DTD/sodipodi-0.dtd"
   xmlns:inkscape="http://www.inkscape.org/namespaces/inkscape"
   version="1.1"
   id="Layer_1"
   wide="200px"
   height="84.800003"
   viewBox="0 0 86.800003 84.8"
   xml:space="preserve"
   sodipodi:docname="First_National_Bank_Logo.svg"
   width="86.800003"
   inkscape:version="0.92.3 (2405546, 2018-03-11)"><metadata
   id="metadata139"><rdf:RDF><cc:Work
       rdf:about=""><dc:format>image/svg+xml</dc:format><dc:type
         rdf:resource="http://purl.org/dc/dcmitype/StillImage" /><dc:title></dc:title></cc:Work></rdf:RDF></metadata><defs
   id="defs137">
	
	
</defs><sodipodi:namedview
   pagecolor="#ffffff"
   bordercolor="#666666"
   borderopacity="1"
   objecttolerance="10"
   gridtolerance="10"
   guidetolerance="10"
   inkscape:pageopacity="0"
   inkscape:pageshadow="2"
   inkscape:window-width="1920"
   inkscape:window-height="1051"
   id="namedview135"
   showgrid="false"
   fit-margin-top="0"
   fit-margin-left="0"
   fit-margin-right="0"
   fit-margin-bottom="0"
   inkscape:zoom="3.84"
   inkscape:cx="24.145694"
   inkscape:cy="47.041805"
   inkscape:window-x="0"
   inkscape:window-y="0"
   inkscape:window-maximized="1"
   inkscape:current-layer="Layer_1" />
<style
   type="text/css"
   id="style2">
	.st0{fill:#00AAAD;}
	.st1{fill:#F47920;}
	.st2{fill:#F47B20;}
	.st3{fill:#F47D20;}
	.st4{fill:#F57E20;}
	.st5{fill:#F58220;}
	.st6{fill:#F5841F;}
	.st7{fill:#F6861F;}
	.st8{fill:#F6891F;}
	.st9{fill:#F68B1F;}
	.st10{fill:#F78D1E;}
	.st11{fill:#F78E1E;}
	.st12{fill:#F7901E;}
	.st13{fill:#F7921E;}
	.st14{fill:#F8951D;}
	.st15{fill:#F8971D;}
	.st16{fill:#F8991D;}
	.st17{fill:#F99B1C;}
	.st18{fill:#F99D1C;}
	.st19{fill:#F99F1C;}
	.st20{fill:#FAA21B;}
	.st21{fill:#FAA41A;}
	.st22{fill:#FAA61A;}
	.st23{fill:#FBAA19;}
	.st24{fill:#FBAB18;}
	.st25{fill:#FBAD18;}
	.st26{fill:#FCAF17;}
	.st27{fill:#FCB11F;}
	.st28{fill:#FCB325;}
	.st29{fill:#FCB52E;}
	.st30{fill:#FDB733;}
	.st31{fill:#FDB93B;}
	.st32{fill:#FDBB40;}
	.st33{fill:#FDBD48;}
	.st34{fill:#FEBF50;}
	.st35{fill:#FEC155;}
	.st36{fill:#FEC45C;}
	.st37{fill:#FEC661;}
	.st38{fill:#FEC667;}
	.st39{fill:#FFCA6E;}
	.st40{fill:#FFCA72;}
	.st41{fill:#FFCE79;}
	.st42{fill:#FFCE7D;}
	.st43{fill:#FFD283;}
	.st44{fill:#FFD387;}
	.st45{fill:#FFD78D;}
	.st46{fill:#FFD793;}
	.st47{fill:#FFD997;}
	.st48{fill:#FFDB9D;}
	.st49{fill:#FFDDA2;}
	.st50{fill:#FFE0A8;}
	.st51{fill:#FFE2AE;}
	.st52{fill:#FFE4B3;}
	.st53{fill:#FFE6B9;}
	.st54{fill:#FFE9BE;}
	.st55{fill:#FFEBC4;}
	.st56{fill:#FFEDC9;}
	.st57{fill:#FFEFCF;}
</style>
<g
   id="g130"
   transform="translate(-0.1)">
		<path
   style="fill:#f47920"
   inkscape:connector-curvature="0"
   id="path10"
   d="M 2.2,41.3 C 2.2,18.5 20.7,0 43.4,0 c 22.8,0 41.3,18.5 41.3,41.3 0,1.4 0,2.8 -0.2,4.2 C 79.8,63.8 63.2,77.3 43.4,77.3 23.6,77.3 7,63.8 2.4,45.5 2.2,44.1 2.2,42.7 2.2,41.3"
   class="st1" />
		<path
   style="fill:#f47920"
   inkscape:connector-curvature="0"
   id="path12"
   d="M 76.5,61.5 C 67.1,68 55.8,71.8 43.5,71.8 31.2,71.8 19.9,68 10.5,61.5 6.8,56.9 4,51.4 2.5,45.5 2.3,44.1 2.3,42.7 2.3,41.3 2.2,18.5 20.7,0 43.4,0 c 22.8,0 41.3,18.5 41.3,41.3 0,1.4 0,2.8 -0.2,4.2 -1.5,5.9 -4.3,11.4 -8,16"
   class="st1" />
		<path
   style="fill:#f47b20"
   inkscape:connector-curvature="0"
   id="path14"
   d="m 78.5,58.9 c -9.7,7.5 -21.8,12 -35,12 -13.2,0 -25.3,-4.5 -35,-12 C 5.8,54.9 3.7,50.4 2.5,45.5 2.3,44.1 2.3,42.7 2.3,41.3 2.2,18.5 20.7,0 43.4,0 c 22.8,0 41.3,18.5 41.3,41.3 0,1.4 0,2.8 -0.2,4.2 -1.2,4.9 -3.3,9.4 -6,13.4"
   class="st2" />
		<path
   style="fill:#f47d20"
   inkscape:connector-curvature="0"
   id="path16"
   d="M 80.1,56.2 C 70.2,64.7 57.4,69.9 43.4,69.9 29.4,69.9 16.6,64.8 6.8,56.2 4.9,52.9 3.4,49.3 2.4,45.5 2.2,44.1 2.2,42.7 2.2,41.3 2.2,18.5 20.7,0 43.4,0 c 22.8,0 41.3,18.5 41.3,41.3 0,1.4 0,2.8 -0.2,4.2 -1,3.8 -2.5,7.4 -4.4,10.7"
   class="st3" />
		<path
   style="fill:#f57e20"
   inkscape:connector-curvature="0"
   id="path18"
   d="M 81.5,53.7 C 71.6,63.2 58.2,69 43.4,69 28.7,69 15.3,63.2 5.4,53.7 4.1,51.1 3.1,48.4 2.4,45.5 2.2,44.1 2.2,42.7 2.2,41.3 2.2,18.5 20.7,0 43.4,0 c 22.8,0 41.3,18.5 41.3,41.3 0,1.4 0,2.8 -0.2,4.2 -0.7,2.9 -1.7,5.6 -3,8.2"
   class="st4" />
		<path
   style="fill:#f58220"
   inkscape:connector-curvature="0"
   id="path20"
   d="M 82.6,51.2 C 72.7,61.5 58.8,68 43.4,68 28,68 14.1,61.5 4.2,51.2 3.5,49.4 2.8,47.5 2.3,45.5 2.1,44.1 2.1,42.7 2.1,41.3 2.2,18.5 20.7,0 43.4,0 c 22.8,0 41.3,18.5 41.3,41.3 0,1.4 0,2.8 -0.2,4.2 -0.5,2 -1.1,3.9 -1.9,5.7"
   class="st5" />
		<path
   style="fill:#f5841f"
   inkscape:connector-curvature="0"
   id="path22"
   d="M 83.6,48.7 C 73.8,59.9 59.5,67 43.4,67 27.4,67 13,59.9 3.3,48.7 2.9,47.7 2.6,46.6 2.3,45.5 2.1,44.1 2.1,42.7 2.1,41.3 2.2,18.5 20.7,0 43.4,0 c 22.8,0 41.3,18.5 41.3,41.3 0,1.4 0,2.8 -0.2,4.2 -0.3,1.1 -0.6,2.2 -0.9,3.2"
   class="st6" />
		<path
   style="fill:#f6861f"
   inkscape:connector-curvature="0"
   id="path24"
   d="M 84.3,46.3 C 74.7,58.3 60,66 43.4,66 26.9,66 12.1,58.3 2.6,46.3 2.5,46 2.4,45.8 2.4,45.5 2.2,44.1 2.2,42.7 2.2,41.3 2.2,18.5 20.7,0 43.4,0 c 22.8,0 41.3,18.5 41.3,41.3 0,1.4 0,2.8 -0.2,4.2 0,0.3 -0.1,0.5 -0.2,0.8"
   class="st7" />
		<path
   style="fill:#f6891f"
   inkscape:connector-curvature="0"
   id="path26"
   d="M 84.6,44.3 C 75.3,56.9 60.3,65.1 43.4,65.1 26.5,65.1 11.6,56.9 2.2,44.3 c 0,-1 -0.1,-2 -0.1,-3 C 2.2,18.5 20.7,0 43.4,0 c 22.8,0 41.3,18.5 41.3,41.3 0,1 0,2 -0.1,3"
   class="st8" />
		<path
   style="fill:#f68b1f"
   inkscape:connector-curvature="0"
   id="path28"
   d="M 84.7,42.5 C 75.6,55.5 60.5,64.1 43.4,64.1 26.3,64.1 11.2,55.6 2.2,42.5 V 41.3 C 2.2,18.5 20.7,0 43.4,0 66.2,0 84.7,18.5 84.7,41.3 Z"
   class="st9" />
		<path
   style="fill:#f78d1e"
   inkscape:connector-curvature="0"
   id="path30"
   d="M 84.7,40.7 C 75.9,54.2 60.7,63.1 43.4,63.1 26.1,63.1 10.9,54.2 2.2,40.7 2.5,18.2 20.8,0 43.4,0 c 22.7,0 41,18.2 41.3,40.7"
   class="st10" />
		<path
   style="fill:#f78e1e"
   inkscape:connector-curvature="0"
   id="path32"
   d="M 84.7,39 C 76.2,52.9 60.9,62.1 43.5,62.1 26,62.2 10.7,52.9 2.2,39 3.4,17.3 21.4,0 43.4,0 65.5,0 83.5,17.3 84.7,39"
   class="st11" />
		<path
   style="fill:#f7901e"
   inkscape:connector-curvature="0"
   id="path34"
   d="M 84.6,37.3 C 76.4,51.6 61,61.2 43.4,61.2 25.8,61.2 10.5,51.6 2.3,37.4 4.3,16.4 22,0 43.4,0 64.9,0 82.6,16.4 84.6,37.3"
   class="st12" />
		<path
   style="fill:#f7921e"
   inkscape:connector-curvature="0"
   id="path36"
   d="M 84.3,35.7 C 76.5,50.3 61.1,60.3 43.4,60.3 25.7,60.3 10.3,50.4 2.5,35.7 5.3,15.5 22.6,0 43.4,0 64.3,0 81.6,15.5 84.3,35.7"
   class="st13" />
		<path
   style="fill:#f8951d"
   inkscape:connector-curvature="0"
   id="path38"
   d="M 84.1,34 C 76.7,48.9 61.3,59.2 43.4,59.2 25.6,59.2 10.2,48.9 2.8,34 6.3,14.7 23.1,0 43.4,0 63.8,0 80.7,14.7 84.1,34"
   class="st14" />
		<path
   style="fill:#f8971d"
   inkscape:connector-curvature="0"
   id="path40"
   d="M 83.8,32.4 C 76.8,47.6 61.4,58.2 43.5,58.2 25.6,58.2 10.2,47.6 3.2,32.4 7.2,13.9 23.7,0 43.4,0 63.2,0 79.8,13.9 83.8,32.4"
   class="st15" />
		<path
   style="fill:#f8991d"
   inkscape:connector-curvature="0"
   id="path42"
   d="M 83.4,30.9 C 76.8,46.4 61.4,57.3 43.4,57.3 25.5,57.3 10.1,46.5 3.5,30.9 8.1,13.1 24.3,0 43.4,0 c 19.3,0 35.4,13.1 40,30.9"
   class="st16" />
		<path
   style="fill:#f99b1c"
   inkscape:connector-curvature="0"
   id="path44"
   d="M 83,29.4 C 76.8,45.2 61.5,56.4 43.5,56.4 25.5,56.4 10.2,45.2 4,29.4 9,12.4 24.8,0 43.4,0 62.1,0 77.9,12.4 83,29.4"
   class="st17" />
		<path
   style="fill:#f99d1c"
   inkscape:connector-curvature="0"
   id="path46"
   d="M 82.5,27.9 C 76.7,43.9 61.4,55.4 43.4,55.4 25.4,55.4 10.1,44 4.4,27.9 10,11.6 25.3,0 43.4,0 61.6,0 76.9,11.6 82.5,27.9"
   class="st18" />
		<path
   style="fill:#f99f1c"
   inkscape:connector-curvature="0"
   id="path48"
   d="M 82,26.4 C 76.7,42.6 61.5,54.3 43.5,54.3 25.5,54.3 10.3,42.6 5,26.4 10.9,11 25.9,0 43.4,0 61,0 76,11 82,26.4"
   class="st19" />
		<path
   style="fill:#faa21b"
   inkscape:connector-curvature="0"
   id="path50"
   d="M 81.4,25 C 76.6,41.4 61.4,53.4 43.4,53.4 25.4,53.4 10.3,41.4 5.5,25 11.8,10.3 26.4,0 43.4,0 c 17.1,0 31.7,10.3 38,25"
   class="st20" />
		<path
   style="fill:#faa41a"
   inkscape:connector-curvature="0"
   id="path52"
   d="M 80.8,23.6 C 76.5,40.2 61.4,52.4 43.5,52.4 25.6,52.4 10.5,40.2 6.2,23.6 12.8,9.6 27,0 43.4,0 59.9,0 74.2,9.6 80.8,23.6"
   class="st21" />
		<path
   style="fill:#faa61a"
   inkscape:connector-curvature="0"
   id="path54"
   d="M 80.1,22.3 C 76.3,39 61.3,51.5 43.4,51.5 25.6,51.5 10.6,39 6.8,22.3 13.7,9 27.5,0 43.4,0 c 16,0 29.8,9 36.7,22.3"
   class="st22" />
		<path
   style="fill:#fbaa19"
   inkscape:connector-curvature="0"
   id="path56"
   d="M 79.4,21 C 76.1,37.8 61.3,50.5 43.5,50.5 25.6,50.5 10.8,37.8 7.5,21 14.6,8.4 28,0 43.4,0 c 15.5,0 28.9,8.4 36,21"
   class="st23" />
		<path
   style="fill:#fbab18"
   inkscape:connector-curvature="0"
   id="path58"
   d="M 78.6,19.7 C 75.8,36.6 61.1,49.6 43.4,49.6 25.7,49.6 11,36.7 8.2,19.7 15.5,7.9 28.6,0 43.4,0 c 14.9,0 28,7.9 35.2,19.7"
   class="st24" />
		<path
   style="fill:#fbad18"
   inkscape:connector-curvature="0"
   id="path60"
   d="M 77.8,18.4 C 75.6,35.4 61,48.5 43.4,48.5 25.8,48.5 11.3,35.4 9,18.4 16.5,7.3 29.1,0 43.4,0 c 14.4,0 27,7.3 34.4,18.4"
   class="st25" />
		<path
   style="fill:#fcaf17"
   inkscape:connector-curvature="0"
   id="path62"
   d="M 77,17.2 C 75.3,34.2 60.9,47.6 43.4,47.6 26,47.6 11.6,34.2 9.9,17.2 17.4,6.8 29.6,0 43.4,0 57.3,0 69.5,6.8 77,17.2"
   class="st26" />
		<path
   style="fill:#fcb11f"
   inkscape:connector-curvature="0"
   id="path64"
   d="M 76.1,16 C 75,33.1 60.8,46.6 43.4,46.6 26,46.6 11.9,33.1 10.8,16 18.4,6.3 30.2,0 43.4,0 56.7,0 68.5,6.3 76.1,16"
   class="st27" />
		<path
   style="fill:#fcb325"
   inkscape:connector-curvature="0"
   id="path66"
   d="M 75.2,14.8 C 74.7,31.9 60.7,45.6 43.5,45.6 26.3,45.6 12.3,31.9 11.8,14.8 19.3,5.8 30.7,0 43.4,0 56.2,0 67.6,5.8 75.2,14.8"
   class="st28" />
		<path
   style="fill:#fcb52e"
   inkscape:connector-curvature="0"
   id="path68"
   d="M 12.8,13.9 V 13.7 C 20.3,5.3 31.3,0 43.4,0 55.6,0 66.5,5.3 74.1,13.7 v 0.2 C 74.1,30.8 60.4,44.6 43.4,44.6 26.5,44.6 12.8,30.8 12.8,13.9"
   class="st29" />
		<path
   style="fill:#fdb733"
   inkscape:connector-curvature="0"
   id="path70"
   d="m 13.7,13.9 c 0,-0.5 0,-0.9 0,-1.3 C 21.3,4.8 31.8,0 43.4,0 c 11.7,0 22.2,4.8 29.7,12.6 0,0.4 0,0.8 0,1.3 0,16.4 -13.3,29.7 -29.7,29.7 C 27,43.6 13.7,30.3 13.7,13.9"
   class="st30" />
		<path
   style="fill:#fdb93b"
   inkscape:connector-curvature="0"
   id="path72"
   d="m 14.7,13.9 c 0,-0.8 0,-1.6 0.1,-2.4 C 22.3,4.4 32.3,0 43.4,0 54.6,0 64.6,4.4 72,11.5 c 0.1,0.8 0.1,1.6 0.1,2.4 0,15.9 -12.9,28.7 -28.7,28.7 -15.8,0 -28.7,-12.9 -28.7,-28.7"
   class="st31" />
		<path
   style="fill:#fdbb40"
   inkscape:connector-curvature="0"
   id="path74"
   d="m 15.8,13.9 c 0,-1.2 0,-2.3 0.2,-3.4 C 23.3,3.9 32.9,0 43.4,0 54,0 63.6,3.9 70.9,10.5 c 0.2,1.1 0.2,2.2 0.2,3.4 0,15.3 -12.4,27.7 -27.7,27.7 -15.2,0 -27.6,-12.4 -27.6,-27.7"
   class="st32" />
		<path
   style="fill:#fdbd48"
   inkscape:connector-curvature="0"
   id="path76"
   d="m 16.8,13.9 c 0,-1.5 0.1,-3 0.3,-4.4 C 24.3,3.6 33.5,0 43.4,0 c 10,0 19.2,3.6 26.3,9.5 0.2,1.4 0.4,2.9 0.4,4.4 0,14.7 -11.9,26.7 -26.7,26.7 -14.7,0 -26.6,-12 -26.6,-26.7"
   class="st33" />
		<path
   style="fill:#febf50"
   inkscape:connector-curvature="0"
   id="path78"
   d="M 17.8,13.9 C 17.8,12.1 18,10.3 18.3,8.6 25.3,3.2 34,0 43.4,0 c 9.5,0 18.2,3.2 25.1,8.5 0.4,1.7 0.6,3.5 0.6,5.3 C 69.1,28 57.6,39.5 43.4,39.5 29.3,39.5 17.8,28.1 17.8,13.9"
   class="st34" />
		<path
   style="fill:#fec155"
   inkscape:connector-curvature="0"
   id="path80"
   d="m 18.8,13.9 c 0,-2.2 0.3,-4.3 0.8,-6.3 C 26.3,2.8 34.5,0 43.4,0 c 8.9,0 17.2,2.8 23.9,7.6 0.5,2 0.8,4.1 0.8,6.3 C 68.1,27.5 57,38.6 43.4,38.6 29.8,38.6 18.8,27.5 18.8,13.9"
   class="st35" />
		<path
   style="fill:#fec45c"
   inkscape:connector-curvature="0"
   id="path82"
   d="M 19.8,13.9 C 19.8,11.4 20.2,9 20.9,6.7 27.4,2.4 35.1,0 43.4,0 51.8,0 59.5,2.4 66,6.7 66.7,9 67.1,11.4 67.1,13.9 67.1,27 56.5,37.6 43.4,37.6 30.4,37.6 19.8,27 19.8,13.9"
   class="st36" />
		<path
   style="fill:#fec661"
   inkscape:connector-curvature="0"
   id="path84"
   d="m 20.8,13.9 c 0,-2.8 0.5,-5.5 1.4,-8 C 28.4,2.1 35.7,0 43.4,0 c 7.8,0 15,2.1 21.2,5.9 1,2.5 1.4,5.2 1.4,8 C 66,26.4 55.9,36.6 43.3,36.6 30.9,36.6 20.8,26.4 20.8,13.9"
   class="st37" />
		<path
   style="fill:#fec667"
   inkscape:connector-curvature="0"
   id="path86"
   d="m 21.8,13.9 c 0,-3.1 0.7,-6.1 1.9,-8.8 C 29.5,1.8 36.3,0 43.4,0 c 7.2,0 14,1.8 19.8,5.1 1.2,2.7 1.9,5.7 1.9,8.8 0,12 -9.7,21.7 -21.7,21.7 -11.9,0 -21.6,-9.8 -21.6,-21.7"
   class="st38" />
		<path
   style="fill:#ffca6e"
   inkscape:connector-curvature="0"
   id="path88"
   d="m 22.8,13.9 c 0,-3.5 0.9,-6.7 2.4,-9.6 C 30.6,1.5 36.9,0 43.4,0 50,0 56.3,1.5 61.8,4.3 c 1.5,2.9 2.4,6.1 2.4,9.6 0,11.4 -9.3,20.7 -20.7,20.7 C 32,34.5 22.8,25.3 22.8,13.9"
   class="st39" />
		<path
   style="fill:#ffca72"
   inkscape:connector-curvature="0"
   id="path90"
   d="M 23.8,13.9 C 23.8,10.1 24.9,6.6 26.7,3.5 31.8,1.2 37.5,0 43.4,0 c 6,0 11.6,1.2 16.8,3.5 1.9,3 2.9,6.5 2.9,10.4 0,10.8 -8.8,19.7 -19.7,19.7 C 32.6,33.5 23.8,24.7 23.8,13.9"
   class="st40" />
		<path
   style="fill:#ffce79"
   inkscape:connector-curvature="0"
   id="path92"
   d="m 24.8,13.9 c 0,-4.1 1.4,-8 3.6,-11.1 C 33,1 38.1,0 43.4,0 c 5.3,0 10.4,1 15.1,2.8 2.3,3.1 3.6,6.9 3.6,11.1 0,10.3 -8.4,18.7 -18.7,18.7 C 33.1,32.5 24.8,24.2 24.8,13.9"
   class="st41" />
		<path
   style="fill:#ffce7d"
   inkscape:connector-curvature="0"
   id="path94"
   d="M 25.8,13.9 C 25.8,9.4 27.5,5.3 30.2,2.2 34.4,0.7 38.8,0 43.4,0 48,0 52.5,0.7 56.6,2.2 59.4,5.3 61,9.4 61,13.9 c 0,9.8 -7.9,17.7 -17.7,17.7 -9.6,0 -17.5,-8 -17.5,-17.7"
   class="st42" />
		<path
   style="fill:#ffd283"
   inkscape:connector-curvature="0"
   id="path96"
   d="m 26.8,13.9 c 0,-4.9 2.1,-9.3 5.4,-12.3 3.6,-1 7.4,-1.5 11.2,-1.5 3.9,0 7.7,0.5 11.2,1.5 3.4,3 5.5,7.4 5.5,12.3 0,9.2 -7.5,16.7 -16.7,16.7 -9.2,0 -16.6,-7.5 -16.6,-16.7"
   class="st43" />
		<path
   style="fill:#ffd387"
   inkscape:connector-curvature="0"
   id="path98"
   d="m 27.8,13.9 c 0,-5.4 2.7,-10.1 6.8,-12.9 2.9,-0.6 5.8,-1 8.9,-1 3.1,0 6,0.3 8.9,1 4.1,2.8 6.8,7.5 6.8,12.9 0,8.7 -7,15.7 -15.7,15.7 C 34.8,29.5 27.8,22.5 27.8,13.9"
   class="st44" />
		<path
   style="fill:#ffd78d"
   inkscape:connector-curvature="0"
   id="path100"
   d="m 28.8,13.9 c 0,-6 3.6,-11.2 8.9,-13.5 1.8,-0.3 3.8,-0.4 5.7,-0.4 2,0 3.9,0.1 5.8,0.4 5.2,2.2 8.9,7.4 8.9,13.5 0,8.1 -6.6,14.7 -14.7,14.7 C 35.4,28.5 28.8,22 28.8,13.9"
   class="st45" />
		<path
   style="fill:#ffd793"
   inkscape:connector-curvature="0"
   id="path102"
   d="m 29.8,13.9 c 0,-7.5 6.1,-13.7 13.7,-13.7 7.6,0 13.7,6.1 13.7,13.7 0,7.5 -6.1,13.7 -13.7,13.7 C 35.9,27.5 29.8,21.4 29.8,13.9"
   class="st46" />
		<path
   style="fill:#ffd997"
   inkscape:connector-curvature="0"
   id="path104"
   d="m 30.8,13.9 c 0,-7 5.7,-12.7 12.7,-12.7 7,0 12.7,5.7 12.7,12.7 0,7 -5.7,12.7 -12.7,12.7 C 36.4,26.5 30.8,20.9 30.8,13.9"
   class="st47" />
		<path
   style="fill:#ffdb9d"
   inkscape:connector-curvature="0"
   id="path106"
   d="M 31.8,13.9 C 31.8,7.4 37,2.2 43.4,2.2 c 6.5,0 11.7,5.2 11.7,11.7 0,6.5 -5.2,11.7 -11.7,11.7 C 37,25.5 31.8,20.3 31.8,13.9"
   class="st48" />
		<path
   style="fill:#ffdda2"
   inkscape:connector-curvature="0"
   id="path108"
   d="M 32.8,13.9 C 32.8,8 37.6,3.2 43.4,3.2 c 5.9,0 10.7,4.8 10.7,10.7 0,5.9 -4.8,10.7 -10.7,10.7 -5.8,0 -10.6,-4.8 -10.6,-10.7"
   class="st49" />
		<path
   style="fill:#ffe0a8"
   inkscape:connector-curvature="0"
   id="path110"
   d="m 33.8,13.9 c 0,-5.3 4.3,-9.6 9.6,-9.6 5.3,0 9.7,4.3 9.7,9.6 0,5.3 -4.3,9.6 -9.7,9.6 -5.3,0 -9.6,-4.3 -9.6,-9.6"
   class="st50" />
		<path
   style="fill:#ffe2ae"
   inkscape:connector-curvature="0"
   id="path112"
   d="m 34.8,13.9 c 0,-4.8 3.9,-8.7 8.7,-8.7 4.8,0 8.7,3.9 8.7,8.7 0,4.8 -3.9,8.7 -8.7,8.7 -4.8,-0.1 -8.7,-4 -8.7,-8.7"
   class="st51" />
		<path
   style="fill:#ffe4b3"
   inkscape:connector-curvature="0"
   id="path114"
   d="m 35.8,13.9 c 0,-4.2 3.4,-7.7 7.7,-7.7 4.3,0 7.7,3.4 7.7,7.7 0,4.2 -3.4,7.7 -7.7,7.7 -4.3,-0.1 -7.7,-3.5 -7.7,-7.7"
   class="st52" />
		<path
   style="fill:#ffe6b9"
   inkscape:connector-curvature="0"
   id="path116"
   d="m 36.8,13.9 c 0,-3.7 3,-6.7 6.6,-6.7 3.7,0 6.7,3 6.7,6.7 0,3.7 -3,6.7 -6.7,6.7 -3.6,-0.1 -6.6,-3 -6.6,-6.7"
   class="st53" />
		<path
   style="fill:#ffe9be"
   inkscape:connector-curvature="0"
   id="path118"
   d="m 37.8,13.9 c 0,-3.1 2.5,-5.7 5.6,-5.7 3.1,0 5.7,2.5 5.7,5.7 0,3.1 -2.5,5.7 -5.7,5.7 -3.1,-0.1 -5.6,-2.6 -5.6,-5.7"
   class="st54" />
		<path
   style="fill:#ffebc4"
   inkscape:connector-curvature="0"
   id="path120"
   d="m 38.8,13.9 c 0,-2.6 2.1,-4.6 4.6,-4.6 2.6,0 4.7,2.1 4.7,4.6 0,2.6 -2.1,4.6 -4.7,4.6 -2.5,0 -4.6,-2.1 -4.6,-4.6"
   class="st55" />
		<path
   style="fill:#ffedc9"
   inkscape:connector-curvature="0"
   id="path122"
   d="m 39.8,13.9 c 0,-2 1.7,-3.6 3.6,-3.6 2,0 3.7,1.6 3.7,3.6 0,2 -1.7,3.6 -3.7,3.6 -2,0 -3.6,-1.6 -3.6,-3.6"
   class="st56" />
		<path
   style="fill:#ffefcf"
   inkscape:connector-curvature="0"
   id="path124"
   d="m 40.8,13.9 c 0,-1.4 1.2,-2.6 2.7,-2.6 1.5,0 2.7,1.2 2.7,2.6 0,1.4 -1.2,2.7 -2.7,2.7 -1.5,-0.1 -2.7,-1.3 -2.7,-2.7"
   class="st57" />
		<path
   inkscape:connector-curvature="0"
   id="path126"
   d="M 40,51.9 38.1,50 c -3.9,-1.2 -8,-1.9 -12.3,-1.9 L 39.6,61.9 Z M 30.2,42.1 21.4,33.3 C 19,33 16.5,32.8 14,32.8 9.4,32.8 4.8,33.3 0.5,34.3 0.6,33.5 0.8,32.6 1,31.9 c 7.1,-3.7 15.1,-6 23.5,-6.5 l 2.2,2.2 3,2.9 C 36,27.5 43.1,25.8 50.6,25.8 50.2,25.3 49.8,24.7 49.4,24.1 48,24 46.6,23.9 45.1,23.9 c -4.9,0 -9.6,0.7 -14,2.1 L 28.4,23.3 C 26.5,23.1 24.6,23 22.7,23 15.7,22.9 9,24 2.7,26.1 3,25.2 3.4,24.4 3.7,23.6 8.7,20 14.3,17.1 20.2,15.2 L 18.9,14 c 7.3,-3.8 15.7,-5.8 24.5,-5.8 5.3,0 10.3,0.7 15.1,2.1 1.7,1.7 3.4,3.6 4.9,5.5 0.5,-0.4 1,-0.7 1.6,-1.1 6.6,1.9 12.7,5 18.2,9 0.3,0.8 0.7,1.6 1,2.5 -5.1,-1.7 -10.4,-2.7 -15.9,-3 0.6,1.1 1.2,2.1 1.7,3.2 5.6,1.1 11,2.9 15.9,5.5 0.2,0.8 0.3,1.6 0.5,2.4 -4.3,-1 -8.8,-1.5 -13.5,-1.5 h -0.2 c 0.4,1 0.7,2.1 1,3.1 4.6,0.8 9,2.1 13.2,3.9 0,0.5 0,0.9 0,1.3 v 0.4 c -2.2,-0.3 -4.3,-0.4 -6.6,-0.4 -4.3,0 -8.5,0.5 -12.5,1.3 -1.3,-0.9 -2.7,-1.7 -4.1,-2.5 l -8.2,8.2 -8.3,8.3 0.8,20.5 c -1.5,0.2 -3,0.2 -4.6,0.2 -1.5,0 -3,-0.1 -4.5,-0.2 l 0.4,-8.6 0.1,-3.3 -17,-17 h -0.3 c -3.1,0.2 -6.1,0.6 -9,1.3 -0.3,-0.7 -0.6,-1.3 -0.9,-2 2.1,-1.1 4.3,-2.1 6.7,-2.9 L 16.5,42 C 15.8,41.9 15,41.8 14.3,41.7 13.5,41.6 12.6,41.5 11.8,41.4 10.1,41.3 8.4,41.2 6.7,41.2 c -2.2,0 -4.4,0.1 -6.6,0.4 v -0.4 c 0,-0.5 0,-0.9 0,-1.3 6,-2.6 12.5,-4.1 19.3,-4.6 l 7.2,7.2 c 1.2,-0.2 2.4,-0.3 3.6,-0.4 m 18.7,-6.7 8,8 3.6,-3.6 1,-1 c -4.1,-2 -8.5,-3.4 -13.1,-4 z m 6.3,9.7 -11.7,-11.7 -0.6,-0.6 c -4.7,1.1 -9.1,3 -13.1,5.5 l 3.8,3.8 c 1.8,-0.2 3.6,-0.1 5.3,0.1 0.7,2.2 1.1,4.3 1.5,6.6 l 5.6,5.7 z" />
		<path
   style="fill:#00aaad"
   inkscape:connector-curvature="0"
   id="path128"
   d="m 2.5,45.3 c 4.6,18.3 21.2,31.8 40.9,31.8 19.8,0 36.3,-13.5 41,-31.8 0.8,-0.1 1.7,-0.2 2.4,-0.3 C 84.9,67.3 66.2,84.8 43.4,84.8 20.7,84.8 2,67.3 0.1,45.1 c 0.8,0 1.6,0.1 2.4,0.2"
   class="st0" />
	</g>
</svg>