<?xml version="1.0" encoding="UTF-8" standalone="no"?>
<svg
   xmlns:dc="http://purl.org/dc/elements/1.1/"
   xmlns:cc="http://creativecommons.org/ns#"
   xmlns:rdf="http://www.w3.org/1999/02/22-rdf-syntax-ns#"
   xmlns:svg="http://www.w3.org/2000/svg"
   xmlns="http://www.w3.org/2000/svg"
   xmlns:sodipodi="http://sodipodi.sourceforge.net/DTD/sodipodi-0.dtd"
   xmlns:inkscape="http://www.inkscape.org/namespaces/inkscape"
   version="1.1"
   id="svg6758"
   viewBox="0 0 99.983576 75.183289"
   height="75.183289"
   width="99.983574"
   sodipodi:docname="Fujitsu-Logo.svg"
   inkscape:version="0.92.1 r15371">
  <sodipodi:namedview
     pagecolor="#ffffff"
     bordercolor="#666666"
     borderopacity="1"
     objecttolerance="10"
     gridtolerance="10"
     guidetolerance="10"
     inkscape:pageopacity="0"
     inkscape:pageshadow="2"
     inkscape:window-width="1920"
     inkscape:window-height="1051"
     id="namedview22"
     showgrid="false"
     fit-margin-top="0"
     fit-margin-left="0"
     fit-margin-right="0"
     fit-margin-bottom="0"
     inkscape:zoom="0.718"
     inkscape:cx="88.531966"
     inkscape:cy="-41.4112"
     inkscape:window-x="0"
     inkscape:window-y="0"
     inkscape:window-maximized="1"
     inkscape:current-layer="svg6758" />
  <defs
     id="defs6760" />
  <metadata
     id="metadata6763">
    <rdf:RDF>
      <cc:Work
         rdf:about="">
        <dc:format>image/svg+xml</dc:format>
        <dc:type
           rdf:resource="http://purl.org/dc/dcmitype/StillImage" />
        <dc:title></dc:title>
      </cc:Work>
    </rdf:RDF>
  </metadata>
  <g
     id="g5610"
     transform="matrix(4.2524486,0,0,-4.2524486,53.495803,45.207781)">
    <path
       inkscape:connector-curvature="0"
       d="m 0,0 c 0.93,-0.91 2.228,-1.469 3.645,-1.469 2.855,0 5.166,2.246 5.166,5.022 0,2.768 -2.311,5.018 -5.166,5.018 0,0 -3.977,0.367 -5.767,-4.581 l 0.006,3.714 c 1.332,1.695 3.394,2.927 5.761,2.927 4.028,0 7.287,-3.166 7.287,-7.078 0,-3.906 -3.259,-7.084 -7.287,-7.084 -2.012,0 -3.832,0.789 -5.147,2.076 l -2.506,2.739 c -0.687,0.667 -1.632,1.073 -2.668,1.073 -2.087,0 -3.779,-1.64 -3.779,-3.666 0,-2.034 1.692,-3.678 3.779,-3.678 0,0 2.791,-0.364 4.554,2.999 l 0.006,-2.974 c -1.08,-1.274 -2.729,-2.087 -4.56,-2.087 -3.258,0 -5.904,2.57 -5.904,5.74 0,3.164 2.646,5.728 5.904,5.728 1.623,0 3.097,-0.634 4.167,-1.68 z"
       style="fill:#e60012;fill-opacity:1;fill-rule:nonzero;stroke:none"
       id="path5612" />
  </g>
</svg>
