<?xml version="1.0" encoding="UTF-8" standalone="no"?>
<!-- Created with Inkscape (http://www.inkscape.org/) -->
<svg
   xmlns:dc="http://purl.org/dc/elements/1.1/"
   xmlns:cc="http://creativecommons.org/ns#"
   xmlns:rdf="http://www.w3.org/1999/02/22-rdf-syntax-ns#"
   xmlns:svg="http://www.w3.org/2000/svg"
   xmlns="http://www.w3.org/2000/svg"
   xmlns:sodipodi="http://sodipodi.sourceforge.net/DTD/sodipodi-0.dtd"
   xmlns:inkscape="http://www.inkscape.org/namespaces/inkscape"
   id="svg2491"
   sodipodi:version="0.32"
   inkscape:version="0.46"
   width="140.10001"
   height="129.71001"
   xml:space="preserve"
   sodipodi:docname="HANNspree.svg"
   version="1.0"
   inkscape:output_extension="org.inkscape.output.svg.inkscape"><metadata
     id="metadata2496"><rdf:RDF><cc:Work
         rdf:about=""><dc:format>image/svg+xml</dc:format><dc:type
           rdf:resource="http://purl.org/dc/dcmitype/StillImage" /></cc:Work></rdf:RDF></metadata><defs
     id="defs2494"><inkscape:perspective
       sodipodi:type="inkscape:persp3d"
       inkscape:vp_x="0 : 526.18109 : 1"
       inkscape:vp_y="0 : 1000 : 0"
       inkscape:vp_z="744.09448 : 526.18109 : 1"
       inkscape:persp3d-origin="372.04724 : 350.78739 : 1"
       id="perspective2498" /><clipPath
       clipPathUnits="userSpaceOnUse"
       id="clipPath2506"><path
         d="M 0,595.276 L 841.89,595.276 L 841.89,0 L 0,0 L 0,595.276 z"
         id="path2508" /></clipPath><linearGradient
       x1="0"
       y1="0"
       x2="1"
       y2="0"
       gradientUnits="userSpaceOnUse"
       gradientTransform="matrix(303.19922,0,0,-303.19922,117.44678,42.996094)"
       spreadMethod="pad"
       id="linearGradient2526"><stop
         style="stop-opacity:1;stop-color:#ffffff"
         offset="0"
         id="stop2528" /><stop
         style="stop-opacity:1;stop-color:#7b7979"
         offset="1"
         id="stop2530" /></linearGradient><inkscape:perspective
       id="perspective2754"
       inkscape:persp3d-origin="372.04724 : 350.78739 : 1"
       inkscape:vp_z="744.09448 : 526.18109 : 1"
       inkscape:vp_y="0 : 1000 : 0"
       inkscape:vp_x="0 : 526.18109 : 1"
       sodipodi:type="inkscape:persp3d" /></defs><sodipodi:namedview
     inkscape:window-height="669"
     inkscape:window-width="700"
     inkscape:pageshadow="2"
     inkscape:pageopacity="0.0"
     guidetolerance="10.0"
     gridtolerance="10.0"
     objecttolerance="10.0"
     borderopacity="1.0"
     bordercolor="#666666"
     pagecolor="#ffffff"
     id="base"
     showgrid="false"
     inkscape:zoom="2.8284271"
     inkscape:cx="70.552077"
     inkscape:cy="67.471499"
     inkscape:window-x="230"
     inkscape:window-y="230"
     inkscape:current-layer="g2504" /><g
     id="g2500"
     inkscape:groupmode="layer"
     inkscape:label="HT11_UM_DE"
     transform="matrix(1.25,0,0,-1.25,0,719.80628)"><g
       id="g2502"
       transform="translate(-92.8,-163.2)"><g
         id="g2504"
         clip-path="url(#clipPath2506)"
         transform="translate(-378.36467,201.56503)"><g
           id="g2514"><g
             id="g2516"><g
               id="g2522"><g
                 id="g2524" /></g></g></g><path
           d="M 764.574,39.782 L 764.574,37.825 L 766.461,37.825 L 766.461,39.782 L 767.607,39.782 L 767.607,34.706 L 766.461,34.706 L 766.461,36.821 L 764.574,36.821 L 764.574,34.706 L 763.428,34.706 L 763.428,39.782 L 764.574,39.782 z"
           style="fill:#ffffff;fill-opacity:1;fill-rule:nonzero;stroke:none"
           id="path2552" /><path
           d="M 771.26,36.868 L 770.939,37.944 C 770.859,38.245 770.77,38.63 770.691,38.923 L 770.672,38.923 C 770.605,38.622 770.52,38.237 770.447,37.944 L 770.135,36.868 L 771.26,36.868 z M 769.969,36.009 L 769.617,34.706 L 768.428,34.706 L 769.977,39.782 L 771.479,39.782 L 773.059,34.706 L 771.822,34.706 L 771.432,36.009 L 769.969,36.009 z"
           style="fill:#ffffff;fill-opacity:1;fill-rule:nonzero;stroke:none"
           id="path2554" /><path
           d="M 773.926,34.706 L 773.926,39.782 L 775.264,39.782 L 776.318,37.923 C 776.619,37.386 776.914,36.755 777.145,36.183 L 777.16,36.183 C 777.094,36.853 777.072,37.536 777.072,38.306 L 777.072,39.782 L 778.125,39.782 L 778.125,34.706 L 776.92,34.706 L 775.836,36.665 C 775.535,37.214 775.197,37.86 774.955,38.456 L 774.926,38.456 C 774.963,37.778 774.979,37.063 774.979,36.235 L 774.979,34.706 L 773.926,34.706 z"
           style="fill:#ffffff;fill-opacity:1;fill-rule:nonzero;stroke:none"
           id="path2556" /><path
           d="M 779.309,34.706 L 779.309,39.782 L 780.648,39.782 L 781.703,37.923 C 782.004,37.386 782.299,36.755 782.529,36.183 L 782.545,36.183 C 782.479,36.853 782.455,37.536 782.455,38.306 L 782.455,39.782 L 783.512,39.782 L 783.512,34.706 L 782.305,34.706 L 781.221,36.665 C 780.92,37.214 780.58,37.86 780.34,38.456 L 780.309,38.456 C 780.348,37.778 780.361,37.063 780.361,36.235 L 780.361,34.706 L 779.309,34.706 z"
           style="fill:#ffffff;fill-opacity:1;fill-rule:nonzero;stroke:none"
           id="path2558" /><path
           d="M 784.729,35.882 C 785.031,35.724 785.512,35.563 786.002,35.563 C 786.529,35.563 786.811,35.784 786.811,36.122 C 786.811,36.431 786.568,36.62 785.955,36.829 C 785.113,37.132 784.555,37.597 784.555,38.343 C 784.555,39.21 785.285,39.864 786.477,39.864 C 787.057,39.864 787.471,39.751 787.771,39.608 L 787.514,38.69 C 787.32,38.788 786.951,38.929 786.461,38.929 C 785.965,38.929 785.725,38.698 785.725,38.44 C 785.725,38.116 786.002,37.976 786.664,37.718 C 787.563,37.386 787.975,36.919 787.975,36.196 C 787.975,35.345 787.326,34.622 785.938,34.622 C 785.354,34.622 784.781,34.782 784.496,34.94 L 784.729,35.882 z"
           style="fill:#ffffff;fill-opacity:1;fill-rule:nonzero;stroke:none"
           id="path2560" /><path
           d="M 790.084,37.409 C 790.182,37.386 790.303,37.38 790.467,37.38 C 791.078,37.38 791.453,37.688 791.453,38.2 C 791.453,38.667 791.137,38.946 790.557,38.946 C 790.324,38.946 790.166,38.929 790.084,38.907 L 790.084,37.409 z M 788.945,39.714 C 789.299,39.776 789.799,39.819 790.496,39.819 C 791.203,39.819 791.717,39.683 792.055,39.405 C 792.379,39.157 792.592,38.735 792.592,38.237 C 792.592,37.733 792.432,37.313 792.131,37.034 C 791.74,36.671 791.152,36.499 790.477,36.499 C 790.324,36.499 790.189,36.505 790.084,36.528 L 790.084,34.706 L 788.945,34.706 L 788.945,39.714 z"
           style="fill:#ffffff;fill-opacity:1;fill-rule:nonzero;stroke:none"
           id="path2562" /><path
           d="M 794.645,37.53 L 795.098,37.53 C 795.67,37.53 796.008,37.817 796.008,38.261 C 796.008,38.72 795.693,38.962 795.166,38.962 C 794.889,38.962 794.73,38.946 794.645,38.923 L 794.645,37.53 z M 793.508,39.706 C 793.877,39.776 794.418,39.819 795.037,39.819 C 795.789,39.819 796.318,39.706 796.68,39.413 C 796.986,39.171 797.152,38.817 797.152,38.351 C 797.152,37.71 796.691,37.267 796.256,37.108 L 796.256,37.087 C 796.611,36.942 796.807,36.61 796.934,36.144 C 797.094,35.563 797.244,34.901 797.342,34.706 L 796.166,34.706 C 796.09,34.849 795.963,35.263 795.822,35.888 C 795.678,36.528 795.457,36.692 794.982,36.704 L 794.645,36.704 L 794.645,34.706 L 793.508,34.706 L 793.508,39.706 z"
           style="fill:#ffffff;fill-opacity:1;fill-rule:nonzero;stroke:none"
           id="path2564" /><path
           d="M 801.18,36.853 L 799.314,36.853 L 799.314,35.647 L 801.402,35.647 L 801.402,34.706 L 798.17,34.706 L 798.17,39.782 L 801.297,39.782 L 801.297,38.841 L 799.314,38.841 L 799.314,37.786 L 801.18,37.786 L 801.18,36.853 z"
           style="fill:#ffffff;fill-opacity:1;fill-rule:nonzero;stroke:none"
           id="path2566" /><path
           d="M 805.389,36.853 L 803.525,36.853 L 803.525,35.647 L 805.607,35.647 L 805.607,34.706 L 802.379,34.706 L 802.379,39.782 L 805.506,39.782 L 805.506,38.841 L 803.525,38.841 L 803.525,37.786 L 805.389,37.786 L 805.389,36.853 z"
           style="fill:#ffffff;fill-opacity:1;fill-rule:nonzero;stroke:none"
           id="path2568" /><path
           d="M 811.805,34.706 L 810.66,34.706 L 810.66,39.782 L 811.805,39.782 L 811.805,34.706 z"
           style="fill:#ffffff;fill-opacity:1;fill-rule:nonzero;stroke:none"
           id="path2570" /><path
           d="M 812.986,34.706 L 812.986,39.782 L 814.328,39.782 L 815.381,37.923 C 815.686,37.386 815.975,36.755 816.209,36.183 L 816.225,36.183 C 816.156,36.853 816.133,37.536 816.133,38.306 L 816.133,39.782 L 817.189,39.782 L 817.189,34.706 L 815.984,34.706 L 814.9,36.665 C 814.598,37.214 814.26,37.86 814.018,38.456 L 813.99,38.456 C 814.027,37.778 814.043,37.063 814.043,36.235 L 814.043,34.706 L 812.986,34.706 z"
           style="fill:#ffffff;fill-opacity:1;fill-rule:nonzero;stroke:none"
           id="path2572" /><path
           d="M 822.09,34.843 C 821.885,34.743 821.406,34.622 820.797,34.622 C 819.041,34.622 818.139,35.724 818.139,37.177 C 818.139,38.907 819.373,39.864 820.908,39.864 C 821.504,39.864 821.955,39.743 822.156,39.638 L 821.916,38.735 C 821.691,38.833 821.369,38.923 820.953,38.923 C 820.049,38.923 819.344,38.374 819.344,37.237 C 819.344,36.22 819.945,35.579 820.965,35.579 C 821.316,35.579 821.691,35.647 821.926,35.745 L 822.09,34.843 z"
           style="fill:#ffffff;fill-opacity:1;fill-rule:nonzero;stroke:none"
           id="path2574" /><path
           d="M 823.58,34.622 C 823.197,34.622 822.918,34.917 822.918,35.315 C 822.918,35.729 823.197,36.017 823.596,36.017 C 823.988,36.017 824.262,35.739 824.268,35.315 C 824.268,34.917 823.996,34.622 823.588,34.622 L 823.58,34.622 z"
           style="fill:#ffffff;fill-opacity:1;fill-rule:nonzero;stroke:none"
           id="path2576" /><path
           d="M 807.076,33.819 C 807.195,34.147 807.346,34.731 807.406,35.134 L 807.941,35.187 C 807.809,34.722 807.57,34.116 807.416,33.856 L 807.076,33.819 z"
           style="fill:#ffffff;fill-opacity:1;fill-rule:nonzero;stroke:none"
           id="path2578" /><path
           d="M 763.811,31.438 L 764.246,29.794 C 764.332,29.433 764.42,29.093 764.479,28.757 L 764.502,28.757 C 764.576,29.087 764.684,29.433 764.789,29.786 L 765.318,31.438 L 765.814,31.438 L 766.318,29.815 C 766.438,29.433 766.533,29.087 766.607,28.757 L 766.627,28.757 C 766.682,29.087 766.766,29.427 766.875,29.81 L 767.34,31.438 L 767.922,31.438 L 766.875,28.192 L 766.338,28.192 L 765.842,29.741 C 765.725,30.11 765.637,30.433 765.553,30.813 L 765.541,30.813 C 765.461,30.423 765.359,30.085 765.246,29.729 L 764.723,28.192 L 764.184,28.192 L 763.209,31.438 L 763.811,31.438 z"
           style="fill:#ffffff;fill-opacity:1;fill-rule:nonzero;stroke:none"
           id="path2580" /><path
           d="M 768.914,31.438 L 769.35,29.794 C 769.436,29.433 769.523,29.093 769.584,28.757 L 769.604,28.757 C 769.678,29.087 769.785,29.433 769.891,29.786 L 770.42,31.438 L 770.918,31.438 L 771.418,29.815 C 771.541,29.433 771.637,29.087 771.709,28.757 L 771.73,28.757 C 771.781,29.087 771.869,29.427 771.977,29.81 L 772.438,31.438 L 773.02,31.438 L 771.977,28.192 L 771.439,28.192 L 770.943,29.741 C 770.83,30.11 770.734,30.433 770.654,30.813 L 770.641,30.813 C 770.563,30.423 770.459,30.085 770.348,29.729 L 769.824,28.192 L 769.287,28.192 L 768.311,31.438 L 768.914,31.438 z"
           style="fill:#ffffff;fill-opacity:1;fill-rule:nonzero;stroke:none"
           id="path2582" /><path
           d="M 774.016,31.438 L 774.449,29.794 C 774.539,29.433 774.625,29.093 774.684,28.757 L 774.705,28.757 C 774.779,29.087 774.885,29.433 774.994,29.786 L 775.523,31.438 L 776.02,31.438 L 776.523,29.815 C 776.645,29.433 776.736,29.087 776.809,28.757 L 776.828,28.757 C 776.885,29.087 776.971,29.427 777.08,29.81 L 777.541,31.438 L 778.123,31.438 L 777.08,28.192 L 776.541,28.192 L 776.045,29.741 C 775.934,30.11 775.838,30.433 775.754,30.813 L 775.74,30.813 C 775.662,30.423 775.563,30.085 775.449,29.729 L 774.926,28.192 L 774.389,28.192 L 773.41,31.438 L 774.016,31.438 z"
           style="fill:#ffffff;fill-opacity:1;fill-rule:nonzero;stroke:none"
           id="path2584" /><path
           d="M 778.869,28.12 C 778.641,28.12 778.48,28.298 778.48,28.548 C 778.48,28.782 778.645,28.966 778.883,28.966 C 779.117,28.966 779.277,28.79 779.277,28.548 C 779.277,28.298 779.117,28.12 778.875,28.12 L 778.869,28.12 z"
           style="fill:#ffffff;fill-opacity:1;fill-rule:nonzero;stroke:none"
           id="path2586" /><path
           d="M 780.176,32.956 L 780.77,32.956 L 780.77,30.929 L 780.779,30.929 C 780.875,31.099 781.02,31.251 781.203,31.343 C 781.373,31.452 781.584,31.513 781.805,31.513 C 782.242,31.513 782.938,31.245 782.938,30.124 L 782.938,28.192 L 782.352,28.192 L 782.352,30.056 C 782.352,30.585 782.15,31.021 781.598,31.021 C 781.217,31.021 780.922,30.757 780.805,30.433 C 780.773,30.349 780.77,30.263 780.77,30.149 L 780.77,28.192 L 780.176,28.192 L 780.176,32.956 z"
           style="fill:#ffffff;fill-opacity:1;fill-rule:nonzero;stroke:none"
           id="path2588" /><path
           d="M 785.775,29.851 C 785.129,29.864 784.402,29.747 784.402,29.12 C 784.402,28.729 784.656,28.558 784.949,28.558 C 785.379,28.558 785.656,28.823 785.746,29.101 C 785.77,29.159 785.775,29.228 785.775,29.284 L 785.775,29.851 z M 786.35,28.976 C 786.35,28.688 786.361,28.413 786.398,28.192 L 785.869,28.192 L 785.816,28.603 L 785.793,28.603 C 785.621,28.345 785.264,28.12 784.801,28.12 C 784.145,28.12 783.811,28.583 783.811,29.056 C 783.811,29.837 784.508,30.263 785.762,30.255 L 785.762,30.325 C 785.762,30.591 785.688,31.081 785.025,31.077 C 784.715,31.077 784.402,30.989 784.172,30.837 L 784.035,31.229 C 784.303,31.396 784.701,31.513 785.109,31.513 C 786.111,31.513 786.35,30.837 786.35,30.183 L 786.35,28.976 z"
           style="fill:#ffffff;fill-opacity:1;fill-rule:nonzero;stroke:none"
           id="path2590" /><path
           d="M 787.461,30.562 C 787.461,30.901 787.455,31.173 787.436,31.438 L 787.961,31.438 L 787.992,30.907 L 788.008,30.907 C 788.168,31.21 788.543,31.513 789.08,31.513 C 789.527,31.513 790.227,31.245 790.227,30.128 L 790.227,28.192 L 789.635,28.192 L 789.635,30.062 C 789.635,30.585 789.443,31.026 788.887,31.026 C 788.5,31.026 788.201,30.757 788.094,30.423 C 788.064,30.349 788.051,30.243 788.051,30.149 L 788.051,28.192 L 787.461,28.192 L 787.461,30.562 z"
           style="fill:#ffffff;fill-opacity:1;fill-rule:nonzero;stroke:none"
           id="path2592" /><path
           d="M 791.352,30.562 C 791.352,30.901 791.348,31.173 791.328,31.438 L 791.852,31.438 L 791.881,30.907 L 791.898,30.907 C 792.059,31.21 792.434,31.513 792.969,31.513 C 793.416,31.513 794.113,31.245 794.113,30.128 L 794.113,28.192 L 793.525,28.192 L 793.525,30.062 C 793.525,30.585 793.332,31.026 792.773,31.026 C 792.391,31.026 792.088,30.757 791.984,30.423 C 791.957,30.349 791.943,30.243 791.943,30.149 L 791.943,28.192 L 791.352,28.192 L 791.352,30.562 z"
           style="fill:#ffffff;fill-opacity:1;fill-rule:nonzero;stroke:none"
           id="path2594" /><path
           d="M 795.162,28.79 C 795.342,28.687 795.648,28.563 795.943,28.563 C 796.369,28.563 796.566,28.771 796.566,29.046 C 796.566,29.325 796.4,29.483 795.969,29.64 C 795.383,29.858 795.107,30.167 795.107,30.562 C 795.107,31.081 795.535,31.513 796.227,31.513 C 796.553,31.513 796.84,31.421 797.018,31.313 L 796.877,30.888 C 796.748,30.96 796.516,31.077 796.213,31.077 C 795.863,31.077 795.678,30.872 795.678,30.632 C 795.678,30.358 795.863,30.235 796.283,30.079 C 796.84,29.87 797.141,29.591 797.141,29.101 C 797.141,28.515 796.689,28.12 795.934,28.12 C 795.578,28.12 795.25,28.212 795.02,28.345 L 795.162,28.79 z"
           style="fill:#ffffff;fill-opacity:1;fill-rule:nonzero;stroke:none"
           id="path2596" /><path
           d="M 798.652,29.519 C 798.652,29.433 798.658,29.347 798.682,29.271 C 798.781,28.862 799.143,28.583 799.559,28.583 C 800.184,28.583 800.543,29.093 800.543,29.837 C 800.543,30.481 800.207,31.038 799.584,31.038 C 799.184,31.038 798.801,30.761 798.688,30.321 C 798.672,30.235 798.652,30.149 798.652,30.079 L 798.652,29.519 z M 798.063,30.376 C 798.063,30.794 798.057,31.132 798.037,31.438 L 798.566,31.438 L 798.6,30.882 L 798.613,30.882 C 798.848,31.286 799.238,31.513 799.76,31.513 C 800.549,31.513 801.143,30.851 801.143,29.864 C 801.143,28.698 800.426,28.12 799.664,28.12 C 799.229,28.12 798.861,28.304 798.668,28.63 L 798.652,28.63 L 798.652,26.868 L 798.063,26.868 L 798.063,30.376 z"
           style="fill:#ffffff;fill-opacity:1;fill-rule:nonzero;stroke:none"
           id="path2598" /><path
           d="M 802.053,30.423 C 802.053,30.81 802.047,31.138 802.023,31.438 L 802.539,31.438 L 802.566,30.802 L 802.59,30.802 C 802.736,31.239 803.094,31.513 803.492,31.513 C 803.555,31.513 803.598,31.503 803.656,31.487 L 803.656,30.942 C 803.588,30.948 803.525,30.954 803.445,30.954 C 803.031,30.954 802.736,30.638 802.656,30.202 C 802.639,30.116 802.633,30.026 802.633,29.919 L 802.633,28.192 L 802.047,28.192 L 802.053,30.423 z"
           style="fill:#ffffff;fill-opacity:1;fill-rule:nonzero;stroke:none"
           id="path2600" /><path
           d="M 806.424,30.134 C 806.43,30.501 806.27,31.099 805.607,31.099 C 805.006,31.099 804.754,30.546 804.707,30.134 L 806.424,30.134 z M 804.697,29.712 C 804.715,28.917 805.215,28.591 805.809,28.591 C 806.227,28.591 806.49,28.661 806.705,28.749 L 806.811,28.331 C 806.6,28.235 806.242,28.128 805.727,28.128 C 804.734,28.128 804.129,28.79 804.129,29.759 C 804.129,30.747 804.715,31.519 805.66,31.519 C 806.719,31.519 806.992,30.585 806.992,29.985 C 806.992,29.87 806.988,29.774 806.973,29.706 L 804.697,29.712 z"
           style="fill:#ffffff;fill-opacity:1;fill-rule:nonzero;stroke:none"
           id="path2602" /><path
           d="M 809.951,30.134 C 809.959,30.501 809.791,31.099 809.137,31.099 C 808.533,31.099 808.279,30.546 808.234,30.134 L 809.951,30.134 z M 808.229,29.712 C 808.24,28.917 808.74,28.591 809.332,28.591 C 809.756,28.591 810.016,28.661 810.23,28.749 L 810.338,28.331 C 810.129,28.235 809.766,28.128 809.252,28.128 C 808.26,28.128 807.656,28.79 807.656,29.759 C 807.656,30.747 808.24,31.519 809.184,31.519 C 810.244,31.519 810.52,30.585 810.52,29.985 C 810.52,29.87 810.51,29.774 810.5,29.706 L 808.229,29.712 z"
           style="fill:#ffffff;fill-opacity:1;fill-rule:nonzero;stroke:none"
           id="path2604" /><path
           d="M 811.588,28.12 C 811.355,28.12 811.195,28.298 811.195,28.548 C 811.195,28.782 811.363,28.966 811.598,28.966 C 811.832,28.966 811.992,28.79 811.992,28.548 C 811.992,28.298 811.832,28.12 811.592,28.12 L 811.588,28.12 z"
           style="fill:#ffffff;fill-opacity:1;fill-rule:nonzero;stroke:none"
           id="path2606" /><path
           d="M 815.205,28.304 C 815.051,28.231 814.707,28.12 814.273,28.12 C 813.295,28.12 812.658,28.782 812.658,29.78 C 812.658,30.784 813.346,31.513 814.402,31.513 C 814.748,31.513 815.055,31.421 815.219,31.337 L 815.084,30.888 C 814.945,30.96 814.723,31.038 814.402,31.038 C 813.658,31.038 813.252,30.481 813.252,29.81 C 813.252,29.062 813.736,28.597 814.379,28.597 C 814.715,28.597 814.939,28.677 815.104,28.749 L 815.205,28.304 z"
           style="fill:#ffffff;fill-opacity:1;fill-rule:nonzero;stroke:none"
           id="path2608" /><path
           d="M 817.365,28.563 C 817.928,28.563 818.348,29.093 818.348,29.827 C 818.348,30.376 818.072,31.071 817.377,31.071 C 816.688,31.071 816.385,30.423 816.385,29.81 C 816.385,29.101 816.785,28.563 817.359,28.563 L 817.365,28.563 z M 817.346,28.12 C 816.473,28.12 815.789,28.765 815.789,29.786 C 815.789,30.872 816.504,31.513 817.398,31.513 C 818.326,31.513 818.959,30.837 818.959,29.851 C 818.959,28.646 818.123,28.12 817.352,28.12 L 817.346,28.12 z"
           style="fill:#ffffff;fill-opacity:1;fill-rule:nonzero;stroke:none"
           id="path2610" /><path
           d="M 819.871,30.562 C 819.871,30.901 819.855,31.173 819.846,31.438 L 820.359,31.438 L 820.389,30.913 L 820.408,30.913 C 820.592,31.226 820.891,31.513 821.436,31.513 C 821.873,31.513 822.205,31.245 822.346,30.862 L 822.355,30.862 C 822.461,31.046 822.592,31.183 822.729,31.286 C 822.924,31.433 823.131,31.513 823.436,31.513 C 823.875,31.513 824.508,31.229 824.508,30.104 L 824.508,28.192 L 823.932,28.192 L 823.932,30.032 C 823.932,30.663 823.699,31.026 823.23,31.026 C 822.887,31.026 822.629,30.784 822.527,30.495 C 822.498,30.407 822.479,30.306 822.479,30.202 L 822.479,28.192 L 821.904,28.192 L 821.904,30.134 C 821.904,30.663 821.676,31.026 821.227,31.026 C 820.863,31.026 820.592,30.737 820.494,30.437 C 820.457,30.349 820.445,30.251 820.445,30.149 L 820.445,28.192 L 819.871,28.192 L 819.871,30.562 z"
           style="fill:#ffffff;fill-opacity:1;fill-rule:nonzero;stroke:none"
           id="path2612" /><path
           d="M 387.792,19.138 L 404.808,19.138"
           style="fill:none;stroke:#d3d3d3;stroke-width:0.5;stroke-linecap:butt;stroke-linejoin:miter;stroke-miterlimit:4;stroke-dasharray:none;stroke-opacity:1"
           id="path2614" /><path
           d="M 404.811,18.997 L 404.808,35.966"
           style="fill:none;stroke:#d3d3d3;stroke-width:0.5;stroke-linecap:butt;stroke-linejoin:miter;stroke-miterlimit:4;stroke-dasharray:none;stroke-opacity:1"
           id="path2616" /><path
           d="M 488.81767,535.88199 L 488.81767,519.82299 L 472.76467,519.82299 L 472.76467,435.31199 L 581.64367,435.31199 L 581.64367,535.88199 L 488.81767,535.88199 z"
           style="fill:#b9df2d;fill-opacity:1;fill-rule:nonzero;stroke:none"
           id="path2618" /><path
           d="M 488.52467,491.58899 L 488.52467,487.81199 L 484.88067,487.81199 L 484.88067,491.58899 L 482.03267,491.58899 L 482.03267,481.28099 L 484.88067,481.28099 L 484.88067,485.34799 L 488.52467,485.34799 L 488.52467,481.28099 L 491.38867,481.28099 L 491.38867,491.58899 L 488.52467,491.58899 z"
           style="fill:#ffffff;fill-opacity:1;fill-rule:nonzero;stroke:none"
           id="path2620" /><path
           d="M 498.45467,485.83299 L 496.42567,485.83299 C 496.43467,485.85199 497.06167,488.29099 497.13067,488.63099 C 497.20867,488.96699 497.28067,489.31299 497.37267,489.60999 L 497.37867,489.60999 C 497.45467,489.33899 497.55267,489.03099 497.63667,488.72599 C 497.73767,488.35499 498.40967,485.98499 498.45467,485.83299 M 499.41367,491.58899 L 495.56967,491.58899 L 492.41967,481.28099 L 495.40367,481.28099 C 495.40367,481.28099 496.02867,483.72199 496.02867,483.73299 L 498.87467,483.73299 C 498.88467,483.72199 499.59967,481.28099 499.59967,481.28099 L 502.72967,481.28099 L 499.41967,491.58899 L 499.41367,491.58899"
           style="fill:#ffffff;fill-opacity:1;fill-rule:nonzero;stroke:none"
           id="path2622" /><path
           d="M 510.64367,491.58899 L 510.64367,488.98899 C 510.64367,487.48599 510.69067,486.18399 510.85067,484.76199 L 510.81567,484.76199 C 510.29267,486.13799 509.66367,487.50999 509.08767,488.53699 L 507.41567,491.58899 L 503.92967,491.58899 L 503.92967,481.28099 L 506.55667,481.28099 C 506.55667,481.28099 506.52667,487.23899 506.45867,488.56599 L 506.50167,488.56599 C 506.96867,487.45799 507.59967,486.15199 508.38867,484.68999 L 510.21267,481.28099 L 513.27667,481.28099 L 513.27667,491.58899 L 510.64367,491.58899"
           style="fill:#ffffff;fill-opacity:1;fill-rule:nonzero;stroke:none"
           id="path2624" /><path
           d="M 524.59767,491.58899 L 521.97967,491.58899 L 521.97967,488.98899 C 521.97967,487.48599 522.01367,486.18399 522.17967,484.76199 L 522.14767,484.76199 C 521.62467,486.13799 520.99567,487.50999 520.41767,488.53699 L 518.74367,491.58899 L 515.25567,491.58899 L 515.25567,481.28099 L 517.88467,481.28099 C 517.88467,481.28099 517.85067,487.23899 517.78667,488.56599 L 517.82567,488.56599 C 518.29067,487.45799 518.91967,486.15199 519.71267,484.68999 L 521.53467,481.28099 L 524.60467,481.28099 L 524.60467,491.58899 L 524.59767,491.58899"
           style="fill:#ffffff;fill-opacity:1;fill-rule:nonzero;stroke:none"
           id="path2626" /><path
           d="M 530.30467,487.11799 C 528.76567,487.62099 528.02067,488.03799 528.02067,489.04799 C 528.02067,489.49899 528.20667,489.91299 528.53067,490.19499 C 528.89767,490.52299 529.40767,490.68699 530.02067,490.68699 C 531.13067,490.68699 531.93667,490.27099 532.32967,490.02499 L 532.34167,490.02299 L 532.78467,491.16099 L 532.78067,491.17299 C 532.10467,491.59599 531.15767,491.84499 530.15767,491.84499 C 529.06767,491.84499 528.14067,491.53599 527.48767,490.94299 C 526.88467,490.40299 526.55467,489.67299 526.55467,488.87799 C 526.55467,487.59299 527.54867,486.60899 529.42767,486.01699 C 530.26567,485.75799 530.79467,485.50999 531.13467,485.20299 C 531.52067,484.87699 531.69467,484.48499 531.69467,483.94699 C 531.69467,483.45799 531.50167,483.03399 531.13067,482.71899 C 530.72267,482.36899 530.09567,482.18999 529.32567,482.18999 C 528.29067,482.18999 527.27667,482.59299 526.66367,482.97199 L 526.66367,482.97799 L 526.22267,481.78399 L 526.22967,481.77299 C 527.09367,481.28799 528.16967,481.02399 529.25767,481.02399 C 530.44667,481.02399 531.45267,481.33299 532.14967,481.90199 C 532.80267,482.44299 533.16967,483.21399 533.16967,484.07299 C 533.16567,485.56199 532.34167,486.44799 530.30467,487.11799"
           style="fill:#ffffff;fill-opacity:1;fill-rule:nonzero;stroke:none"
           id="path2628" /><path
           d="M 542.82567,486.52699 C 542.82567,485.25999 542.53067,484.18599 541.97767,483.42499 C 541.39067,482.63199 540.55067,482.20699 539.53267,482.20699 C 538.85267,482.20699 538.21467,482.42999 537.67567,482.84399 C 537.13667,483.27299 536.74967,483.86699 536.56367,484.58599 C 536.50967,484.83599 536.48767,485.10099 536.48767,485.37999 L 536.48767,487.33199 C 536.48767,487.59799 536.54867,487.89399 536.61467,488.15199 C 536.80067,488.87799 537.18667,489.51499 537.74967,489.96799 C 538.28667,490.40299 538.94867,490.64299 539.61067,490.64299 C 540.59167,490.64299 541.41767,490.21399 542.00567,489.40999 C 542.53067,488.66899 542.82567,487.64199 542.82567,486.52699 M 543.07167,490.37299 C 542.69667,490.83199 542.24567,491.19499 541.72067,491.44299 C 541.18867,491.68999 540.60867,491.81799 540.00167,491.81799 C 538.39367,491.81799 537.15567,491.10999 536.39567,489.77999 L 536.37467,489.77999 C 536.37467,489.79299 536.28867,491.58899 536.28867,491.58899 L 534.95667,491.58899 L 534.95667,491.57899 C 535.02667,490.44699 535.05067,489.43399 535.05067,488.26699 L 535.05067,477.05099 L 536.48767,477.05099 L 536.48767,482.76999 L 536.50967,482.76999 C 536.81767,482.23899 537.27467,481.80099 537.83167,481.50299 C 538.38467,481.20599 539.04067,481.04799 539.72967,481.04799 C 540.95467,481.04799 542.07567,481.54099 542.88867,482.42999 C 543.80267,483.41299 544.27267,484.84999 544.27267,486.58999 C 544.27267,487.35299 544.17367,488.07199 543.96467,488.72199 C 543.75967,489.35399 543.46267,489.91299 543.07167,490.37299"
           style="fill:#ffffff;fill-opacity:1;fill-rule:nonzero;stroke:none"
           id="path2630" /><path
           d="M 550.46667,491.84499 C 549.76567,491.84499 549.10067,491.62099 548.54867,491.17299 C 548.01767,490.74399 547.59167,490.13299 547.33167,489.39499 L 547.28267,489.39499 C 547.28267,489.41699 547.22267,491.58899 547.22267,491.58899 L 545.88067,491.58899 L 545.88067,491.57899 C 545.94067,490.59199 545.96467,489.57199 545.96467,488.22099 L 545.94267,481.28099 L 547.45467,481.28099 L 547.45467,486.78999 C 547.45467,487.09999 547.48367,487.42399 547.54467,487.72199 C 547.69867,488.52999 548.03467,489.21299 548.51567,489.70499 C 548.99967,490.18599 549.62267,490.44699 550.31767,490.44699 C 550.57567,490.44699 550.77067,490.44699 550.99967,490.39199 L 551.01567,490.39199 L 551.01567,491.78399 L 550.99967,491.78399 C 550.83167,491.82899 550.67367,491.84499 550.46667,491.84499"
           style="fill:#ffffff;fill-opacity:1;fill-rule:nonzero;stroke:none"
           id="path2632" /><path
           d="M 556.11867,490.73199 C 556.92567,490.73199 557.56967,490.47799 558.05467,489.99399 C 558.37467,489.67299 558.60667,489.24899 558.75367,488.73899 C 558.90167,488.25399 558.93467,487.80299 558.93467,487.49199 L 558.93467,487.41599 L 552.96667,487.41599 C 553.06167,488.24199 553.37267,489.03599 553.81367,489.61599 C 554.39967,490.35999 555.16367,490.73199 556.11867,490.73199 M 558.32367,491.33599 C 557.74367,491.67099 557.04267,491.84499 556.24967,491.84499 C 555.55967,491.84499 554.90767,491.70499 554.31167,491.43199 C 553.74567,491.17299 553.24367,490.77699 552.82167,490.29099 C 552.39367,489.79299 552.07367,489.19299 551.85267,488.51999 C 551.63267,487.83199 551.51567,487.07499 551.51567,486.25999 C 551.51567,484.74599 551.97267,483.45099 552.83567,482.52399 C 553.71267,481.57199 554.96667,481.07499 556.43867,481.07499 C 558.17567,481.07499 559.29067,481.47599 559.79667,481.72799 L 559.79867,481.72799 L 559.50367,482.81299 L 559.48767,482.80199 C 558.84567,482.52399 558.05467,482.24599 556.63667,482.24599 C 555.58167,482.24599 554.68667,482.57999 554.03467,483.20399 C 553.30267,483.91099 552.93167,484.96299 552.92567,486.32599 C 552.94267,486.32599 560.33567,486.30899 560.33567,486.30899 L 560.33567,486.31499 C 560.36667,486.51699 560.38267,486.71799 560.38267,487.09099 C 560.38267,487.60499 560.30967,488.93999 559.58367,490.09799 C 559.25367,490.62999 558.83167,491.04999 558.32367,491.33599"
           style="fill:#ffffff;fill-opacity:1;fill-rule:nonzero;stroke:none"
           id="path2634" /><path
           d="M 566.50367,490.73199 C 567.31367,490.73199 567.96867,490.47799 568.45467,489.99399 C 568.77067,489.67299 569.01167,489.24899 569.15767,488.73899 C 569.30267,488.25399 569.33967,487.80299 569.33967,487.49199 L 569.33967,487.41599 L 563.34967,487.41599 C 563.45867,488.24199 563.77267,489.03599 564.21467,489.61599 C 564.79067,490.35999 565.56767,490.73199 566.50367,490.73199 M 568.72067,491.33599 C 568.13467,491.67099 567.45067,491.84499 566.65367,491.84499 C 565.95867,491.84499 565.29667,491.70499 564.71667,491.43199 C 564.14767,491.17299 563.63467,490.77699 563.22067,490.29099 C 562.80067,489.79299 562.47767,489.19299 562.24967,488.51999 C 562.02867,487.83199 561.91767,487.07499 561.91767,486.25999 C 561.91767,484.74599 562.36267,483.45099 563.22767,482.52399 C 564.11467,481.57199 565.36267,481.07499 566.85467,481.07499 C 568.58767,481.07499 569.69067,481.47599 570.19267,481.72799 L 570.20267,481.72799 L 569.89967,482.81299 L 569.89967,482.80199 C 569.24567,482.52399 568.45467,482.24599 567.03267,482.24599 C 565.96667,482.24599 565.07767,482.57999 564.43667,483.20399 C 563.70867,483.91099 563.32967,484.96299 563.31767,486.32599 C 563.34367,486.32599 570.72967,486.30899 570.72967,486.30899 L 570.73967,486.31499 C 570.76567,486.51699 570.78467,486.71799 570.78467,487.09099 C 570.78467,487.60499 570.70467,488.93999 569.98767,490.09799 C 569.64967,490.62999 569.22967,491.04999 568.72067,491.33599"
           style="fill:#ffffff;fill-opacity:1;fill-rule:nonzero;stroke:none"
           id="path2636" /><path
           d="M 467.771,59.233 L 467.771,37.603 C 467.771,34.851 467.016,30.724 461.291,28.187 C 459.164,27.327 456.656,26.896 454.244,26.896 C 451.832,26.896 449.467,27.284 447.574,27.929 C 441.852,30.81 440.432,34.507 440.432,37.603 L 440.432,59.233 L 447.527,59.233 L 447.527,37.517 C 447.623,35.54 448.285,32.485 454.055,32.485 C 459.684,32.485 460.678,35.54 460.678,37.517 L 460.678,59.233 L 467.771,59.233 z"
           style="fill:#ffffff;fill-opacity:1;fill-rule:nonzero;stroke:none"
           id="path2638" /><path
           d="M 478.887,34.722 C 479.785,32.013 481.771,31.841 484.658,31.411 C 489.529,31.067 489.623,35.325 487.021,35.841 L 478.793,37.991 C 474.109,39.194 473.352,41.56 473.305,43.667 C 473.258,46.72 474.865,48.698 476.428,49.772 C 477.893,50.804 480.447,51.493 483.191,51.579 C 485.934,51.665 488.867,51.19 491.137,49.858 C 494.732,47.751 494.922,45.386 494.922,43.667 L 488.535,43.667 C 488.488,45.128 488.299,45.989 486.076,46.634 C 484.563,47.063 482.719,47.321 480.73,46.333 C 479.549,45.729 478.98,43.71 481.252,43.149 L 490.807,40.786 C 493.125,40.226 495.584,38.077 495.584,35.151 C 495.584,32.831 494.4,29.089 490.049,27.671 C 488.252,27.11 485.887,26.853 483.617,26.896 C 481.395,26.981 479.313,27.284 477.988,27.8 C 472.975,29.819 472.406,33.218 472.359,34.722 L 478.887,34.722 z"
           style="fill:#ffffff;fill-opacity:1;fill-rule:nonzero;stroke:none"
           id="path2640" /><path
           d="M 515.213,41.688 C 515.213,43.452 514.551,46.376 510.578,46.548 C 506.51,46.72 504.996,43.882 505.043,41.688 L 515.213,41.688 z M 505.043,37.646 C 504.902,36.399 504.902,35.108 505.848,33.905 C 507.361,32.013 509.537,31.54 511.43,31.841 C 513.32,32.185 514.93,33.261 515.26,34.464 L 521.787,34.464 C 520.652,29.95 514.598,26.896 510.105,26.896 C 507.598,26.896 505.232,27.628 503.436,28.659 C 501.07,30.079 499.51,32.185 498.848,34.206 C 498.752,34.593 498.516,35.626 498.375,37.044 C 498.279,38.421 498.279,40.226 498.611,42.032 C 500.266,51.147 507.219,51.579 510.152,51.579 C 515.166,51.579 518.287,49.3 519.896,46.978 C 522.213,43.581 522.213,40.44 522.072,37.646 L 505.043,37.646 z"
           style="fill:#ffffff;fill-opacity:1;fill-rule:nonzero;stroke:none"
           id="path2642" /><path
           d="M 526.564,51.19 L 533.188,51.19 L 533.188,46.677 L 533.281,46.677 C 533.707,48.052 534.039,48.87 536.355,50.331 C 537.492,51.104 539.006,51.88 541.086,51.579 L 541.086,45.429 C 538.248,45.729 533.992,46.075 533.188,41.001 L 533.188,27.886 L 526.564,27.886 L 526.564,51.19 z"
           style="fill:#ffffff;fill-opacity:1;fill-rule:nonzero;stroke:none"
           id="path2644" /><path
           d="M 553.236,59.233 L 553.236,54.202 C 553.236,52.911 552.951,50.417 549.877,48.784 C 548.979,48.353 547.797,48.181 546.85,48.052 L 546.85,50.03 C 547.748,50.159 549.168,50.761 549.83,51.579 C 550.586,52.31 550.775,53.341 550.492,53.856 L 546.85,53.856 L 546.85,59.233 L 553.236,59.233 z"
           style="fill:#ffffff;fill-opacity:1;fill-rule:nonzero;stroke:none"
           id="path2646" /><path
           d="M 568.803,31.411 C 573.676,31.067 573.77,35.325 571.168,35.841 L 562.938,37.991 C 558.256,39.194 557.498,41.56 557.451,43.667 C 557.404,46.72 559.012,48.698 560.572,49.772 C 562.039,50.804 564.594,51.493 567.336,51.579 C 570.08,51.665 573.014,51.19 575.283,49.858 C 578.879,47.751 579.066,45.386 579.066,43.667 L 572.682,43.667 C 572.635,45.128 572.445,45.989 570.223,46.634 C 568.709,47.063 566.863,47.321 564.877,46.333 C 563.695,45.729 563.127,43.71 565.396,43.149 L 574.951,40.786 C 577.27,40.226 579.729,38.077 579.729,35.151 C 579.45321,28.469135 573.28828,26.937316 567.762,26.896 C 565.539,26.981 563.459,27.284 562.133,27.8 C 557.119,29.819 556.553,33.218 556.506,34.722 C 562.20096,36.290488 563.79532,32.181167 568.803,31.411 z"
           style="fill:#ffffff;fill-opacity:1;fill-rule:nonzero;stroke:none"
           id="path2648"
           sodipodi:nodetypes="cccccscccccccccccc" /><path
           d="M 651.01,38.851 C 649.117,37.817 646.564,37.905 644.861,37.603 C 642.828,37.259 641.408,35.712 641.977,33.819 C 642.354,32.442 643.537,31.454 646.375,31.884 C 650.301,32.442 651.01,34.937 651.01,37.517 L 651.01,38.851 z M 651.768,27.886 C 651.293,28.444 651.01,29.39 651.057,30.208 C 648.74,28.229 646.705,26.896 642.828,26.896 C 637.625,26.896 635.07,29.562 635.26,34.077 C 635.4,37.345 636.82,40.526 642.686,41.431 C 645.145,41.517 647.793,42.032 649.355,42.505 C 650.537,42.892 651.105,44.011 651.01,45.128 C 651.01,46.591 649.686,47.235 646.658,47.235 C 642.875,47.235 642.402,45.128 642.307,43.452 L 636.063,43.452 C 636.158,50.89 643.158,51.579 646.658,51.579 C 649.213,51.579 651.436,51.19 652.713,50.718 C 655.268,49.772 657.301,47.88 657.301,44.183 L 657.301,31.454 C 657.254,30.423 657.916,29.39 658.768,28.702 L 658.768,27.886 L 651.768,27.886 z"
           style="fill:#ffffff;fill-opacity:1;fill-rule:nonzero;stroke:none"
           id="path2652" /><path
           d="M 663.309,51.19 L 669.93,51.19 L 669.93,47.665 L 670.025,47.665 C 671.303,50.116 673.762,51.579 676.316,51.579 C 682.182,51.579 686.154,49.343 686.154,43.495 L 686.154,27.886 L 679.531,27.886 L 679.531,41.731 C 679.531,43.796 679.248,46.247 674.754,46.247 C 670.734,46.247 669.93,44.226 669.93,42.333 L 669.93,27.886 L 663.309,27.886 L 663.309,51.19 z"
           style="fill:#ffffff;fill-opacity:1;fill-rule:nonzero;stroke:none"
           id="path2654" /><path
           d="M 715.055,27.886 L 708.432,27.886 L 708.432,30.767 L 708.338,30.767 C 706.492,27.886 704.412,27.196 702.094,26.896 C 698.451,26.938 692.492,27.284 692.207,34.979 L 692.207,51.19 L 698.83,51.19 L 698.83,36.743 C 698.736,34.679 698.736,32.056 703.607,32.228 C 707.627,32.616 708.291,34.679 708.432,36.142 L 708.432,51.19 L 715.055,51.19 L 715.055,27.886 z"
           style="fill:#ffffff;fill-opacity:1;fill-rule:nonzero;stroke:none"
           id="path2656" /><path
           d="M 735.109,38.851 C 733.217,37.817 730.662,37.905 728.959,37.603 C 726.926,37.259 725.508,35.712 726.074,33.819 C 726.453,32.442 727.635,31.454 730.473,31.884 C 734.398,32.442 735.109,34.937 735.109,37.517 L 735.109,38.851 z M 735.865,27.886 C 735.393,28.444 735.109,29.39 735.156,30.208 C 732.838,28.229 730.805,26.896 726.926,26.896 C 721.723,26.896 719.168,29.562 719.357,34.077 C 719.5,37.345 720.918,40.526 726.783,41.431 C 729.244,41.517 731.893,42.032 733.453,42.505 C 734.637,42.892 735.203,44.011 735.109,45.128 C 735.109,46.591 733.785,47.235 730.758,47.235 C 726.973,47.235 726.5,45.128 726.406,43.452 L 720.162,43.452 C 720.256,50.89 727.258,51.579 730.758,51.579 C 733.311,51.579 735.535,51.19 736.813,50.718 C 739.365,49.772 741.4,47.88 741.4,44.183 L 741.4,31.454 C 741.352,30.423 742.016,29.39 742.865,28.702 L 742.865,27.886 L 735.865,27.886 z"
           style="fill:#ffffff;fill-opacity:1;fill-rule:nonzero;stroke:none"
           id="path2658" /><path
           d="M 754.17,27.886 L 747.549,27.886 L 747.549,59.234 L 754.17,59.234 L 754.17,27.886 z"
           style="fill:#ffffff;fill-opacity:1;fill-rule:nonzero;stroke:none"
           id="path2660" /><path
           d="M 420.864,624.125 L 420.864,595.547"
           style="fill:none;stroke:#00adef;stroke-width:1;stroke-linecap:butt;stroke-linejoin:miter;stroke-miterlimit:1;stroke-dasharray:8, 3, 1, 3;stroke-dashoffset:0;stroke-opacity:1"
           id="path2662" /><path
           d="M 420.864,624.125 L 420.864,595.547"
           style="fill:none;stroke:#231f20;stroke-width:1;stroke-linecap:butt;stroke-linejoin:miter;stroke-miterlimit:1;stroke-dasharray:8, 3, 1, 3;stroke-dashoffset:0;stroke-opacity:1"
           id="path2664" /><path
           d="M 420.804,0.008 L 420.804,-28.107"
           style="fill:none;stroke:#231f20;stroke-width:1;stroke-linecap:butt;stroke-linejoin:miter;stroke-miterlimit:1;stroke-dasharray:8, 3, 1, 3;stroke-dashoffset:0;stroke-opacity:1"
           id="path2666" /></g></g></g></svg>