<?xml version="1.0" encoding="UTF-8" standalone="no"?>
<!-- Created with Inkscape (http://www.inkscape.org/) -->

<svg
   xmlns:dc="http://purl.org/dc/elements/1.1/"
   xmlns:cc="http://creativecommons.org/ns#"
   xmlns:rdf="http://www.w3.org/1999/02/22-rdf-syntax-ns#"
   xmlns:svg="http://www.w3.org/2000/svg"
   xmlns="http://www.w3.org/2000/svg"
   xmlns:sodipodi="http://sodipodi.sourceforge.net/DTD/sodipodi-0.dtd"
   xmlns:inkscape="http://www.inkscape.org/namespaces/inkscape"
   version="1.1"
   width="246.22205"
   height="81.736473"
   id="svg2"
   xml:space="preserve"
   inkscape:version="0.48.2 r9819"
   sodipodi:docname="HTC.svg"><metadata
     id="metadata22"><rdf:RDF><cc:Work
         rdf:about=""><dc:format>image/svg+xml</dc:format><dc:type
           rdf:resource="http://purl.org/dc/dcmitype/StillImage" /></cc:Work></rdf:RDF></metadata><sodipodi:namedview
     pagecolor="#ffffff"
     bordercolor="#666666"
     borderopacity="1"
     objecttolerance="10"
     gridtolerance="10"
     guidetolerance="10"
     inkscape:pageopacity="0"
     inkscape:pageshadow="2"
     inkscape:window-width="1600"
     inkscape:window-height="837"
     id="namedview20"
     showgrid="false"
     inkscape:zoom="1.3485714"
     inkscape:cx="126.34785"
     inkscape:cy="-0.17923649"
     inkscape:window-x="-8"
     inkscape:window-y="-8"
     inkscape:window-maximized="1"
     inkscape:current-layer="svg2"
     fit-margin-top="0"
     fit-margin-left="0"
     fit-margin-right="0"
     fit-margin-bottom="0" /><defs
     id="defs6"><inkscape:perspective
       sodipodi:type="inkscape:persp3d"
       inkscape:vp_x="0 : 87.5 : 1"
       inkscape:vp_y="0 : 1000 : 0"
       inkscape:vp_z="300 : 87.5 : 1"
       inkscape:persp3d-origin="150 : 58.333333 : 1"
       id="perspective24" /><clipPath
       id="clipPath18"><path
         d="M 0,0 360,0 360,360 0,360 0,0 z"
         id="path20"
         inkscape:connector-curvature="0" /></clipPath><clipPath
       id="clipPath34"><path
         d="m 289.631,22.252 45.354,0 0,25.188 -45.354,0 0,-25.188 z"
         id="path36"
         inkscape:connector-curvature="0" /></clipPath><clipPath
       id="clipPath46"><path
         d="m 289.631,22.252 45.354,0 0,25.188 -45.354,0 0,-25.188 z"
         id="path48"
         inkscape:connector-curvature="0" /></clipPath><clipPath
       id="clipPath58"><path
         d="m 87.874,92.126 190.078,0 0,164.409 -190.078,0 0,-164.409 z"
         id="path60"
         inkscape:connector-curvature="0" /></clipPath><clipPath
       id="clipPath66"><path
         d="m 87.874,92.126 190.077,0 0,164.409 -190.077,0 0,-164.409 z"
         id="path68"
         inkscape:connector-curvature="0" /></clipPath></defs><path
     d="m 225.74636,69.089146 c -13.0282,0.08455 -25.36693,0.188618 -28.80774,-0.117084 -6.95965,-0.604903 -11.61027,-5.157944 -12.15012,-11.857419 -0.36423,-4.396937 -0.36423,-8.039371 -0.0195,-11.506186 0.63091,-6.523858 6.08807,-12.735507 12.16962,-13.034707 2.17896,-0.117085 8.00686,-0.104065 18.5634,-0.05853 l 30.72002,0.05853 0,-12.742011 c 0,0 -24.46934,-0.02602 -31.82574,-0.05853 -9.87361,-0.04553 -14.84293,-0.05204 -17.99104,0.05853 -6.92711,0.266677 -12.72899,2.731825 -17.2365,7.310884 -4.27336,4.325388 -6.82307,11.206984 -7.20032,18.173138 -0.21464,3.759511 -0.28617,8.670291 0,11.590742 0.70898,7.493005 3.13511,13.372932 7.20032,17.490184 4.3449,4.422954 10.95982,7.226326 17.24301,7.310882 5.15794,0.06504 49.81027,0 49.81027,0 l 0,-12.735507 c 0,0 -13.56156,0.05204 -20.47567,0.117084"
     id="path38"
     style="fill:#8cc751;fill-opacity:1;fill-rule:nonzero;stroke:none"
     inkscape:connector-curvature="0" /><path
     d="m 87.067222,20.5147 0,12.729003 30.310258,0 0,48.242724 12.79405,0 0,-48.242724 30.31023,0 0,-12.729003 -73.414538,0 z"
     id="path40"
     style="fill:#8cc751;fill-opacity:1;fill-rule:nonzero;stroke:none"
     inkscape:connector-curvature="0" /><path
     d="M 73.778854,44.587281 C 73.687752,37.731702 71.268172,31.851774 66.57855,27.097097 61.687271,22.121274 54.226797,20.052892 49.342029,19.792719 c -4.247343,-0.240662 -20.983015,-0.162616 -24.911635,0 -5.535195,0.234156 -9.567899,1.886259 -11.590752,3.395266 -0.01945,0.0131 -0.0391,0.0065 -0.0391,-0.02602 L 12.800542,0 0,0 l 0,81.707571 12.781031,0 c 0,0 -0.253661,-33.445339 0.03255,-37.087772 0.507321,-6.471823 5.418111,-11.55822 11.681796,-12.104585 5.021345,-0.429287 20.091928,-0.312208 24.820571,0.0065 6.491344,0.448798 11.285049,5.522189 11.662304,12.358253 0.123653,2.517183 -0.0058,36.8276 -0.0058,36.8276 l 12.807052,0 c 0,0 0.03255,-34.18033 0,-37.120294"
     id="path50"
     style="fill:#8cc751;fill-opacity:1;fill-rule:nonzero;stroke:none"
     inkscape:connector-curvature="0" /></svg>