<?xml version="1.0" encoding="UTF-8" standalone="no"?>
<!-- Created with Inkscape (http://www.inkscape.org/) -->

<svg
   xmlns:dc="http://purl.org/dc/elements/1.1/"
   xmlns:cc="http://creativecommons.org/ns#"
   xmlns:rdf="http://www.w3.org/1999/02/22-rdf-syntax-ns#"
   xmlns:svg="http://www.w3.org/2000/svg"
   xmlns="http://www.w3.org/2000/svg"
   xmlns:sodipodi="http://sodipodi.sourceforge.net/DTD/sodipodi-0.dtd"
   xmlns:inkscape="http://www.inkscape.org/namespaces/inkscape"
   width="225.89999"
   height="82.260002"
   id="svg4790"
   version="1.1"
   inkscape:version="0.48.1 "
   sodipodi:docname="Neues Dokument 3">
  <defs
     id="defs4792" />
  <sodipodi:namedview
     id="base"
     pagecolor="#ffffff"
     bordercolor="#666666"
     borderopacity="1.0"
     inkscape:pageopacity="0.0"
     inkscape:pageshadow="2"
     inkscape:zoom="3.5400594"
     inkscape:cx="120.2472"
     inkscape:cy="64.642432"
     inkscape:document-units="px"
     inkscape:current-layer="layer1"
     showgrid="false"
     fit-margin-top="0"
     fit-margin-left="0"
     fit-margin-right="0"
     fit-margin-bottom="0"
     inkscape:window-width="1024"
     inkscape:window-height="708"
     inkscape:window-x="-4"
     inkscape:window-y="-4"
     inkscape:window-maximized="1" />
  <metadata
     id="metadata4795">
    <rdf:RDF>
      <cc:Work
         rdf:about="">
        <dc:format>image/svg+xml</dc:format>
        <dc:type
           rdf:resource="http://purl.org/dc/dcmitype/StillImage" />
        <dc:title></dc:title>
      </cc:Work>
    </rdf:RDF>
  </metadata>
  <g
     inkscape:label="Ebene 1"
     inkscape:groupmode="layer"
     id="layer1"
     transform="translate(-165.19473,-418.80549)">
    <path
       inkscape:connector-curvature="0"
       d="m 166.1966,500.06737 223.89625,0 0,-80.26375 -223.89625,0 0,80.26375 z"
       style="fill:#0066b3;fill-opacity:1;fill-rule:nonzero;stroke:none"
       id="path378" />
    <g
       id="g380"
       transform="matrix(1.25,0,0,-1.25,278.1429,496.44737)">
      <path
         inkscape:connector-curvature="0"
         d="M 0,0 C 48.662,0 88.109,13.186 88.109,29.45 88.109,45.715 48.662,58.9 0,58.9 -48.663,58.9 -88.111,45.715 -88.111,29.45 -88.111,13.186 -48.663,0 0,0"
         style="fill:#ffe511;fill-opacity:1;fill-rule:nonzero;stroke:none"
         id="path382" />
    </g>
    <g
       id="g388"
       transform="matrix(1.25,0,0,-1.25,341.6716,462.54867)">
      <path
         inkscape:connector-curvature="0"
         d="m 0,0 c 0,0 -1.694,4.178 -1.755,4.338 -0.215,0.5 -0.243,1.217 -0.243,1.217 l -0.025,0 c 0,0 -0.028,-0.717 -0.241,-1.217 C -2.328,4.178 -4.022,0 -4.022,0 L 0,0 z m 2.307,-8.98 c 0,0 0.723,0.808 0.468,1.787 l -1.148,2.895 -7.027,0 -1.15,-2.895 c -0.255,-0.979 0.469,-1.787 0.469,-1.787 l -14.2,0 c 0,0 0.797,0.681 1.308,1.83 l 7.533,19.856 c 0.51,1.255 -0.33,1.985 -0.33,1.985 l 22.602,0 c 0,0 -0.8,-0.741 -0.374,-2.017 L 18.426,-7.15 c 0.64,-1.277 1.502,-1.83 1.502,-1.83 l -17.621,0 z m -118.194,0 c 0.904,0.447 0.844,1.971 0.844,2.173 l 0,20.022 c 0,1.064 -0.695,1.49 -0.695,1.49 l 16.331,0 c 0,0 -0.695,-0.427 -0.695,-1.49 l 0,-20.023 c 0,-0.202 -0.062,-1.725 0.843,-2.173"
         style="fill:#0066b3;fill-opacity:1;fill-rule:nonzero;stroke:none"
         id="path390" />
    </g>
    <g
       id="g392"
       transform="matrix(1.25,0,0,-1.25,245.0404,455.95107)">
      <path
         inkscape:connector-curvature="0"
         d="M 0,0 5.487,7.651 C 6.275,8.797 5.38,9.427 5.38,9.427 c 0,0 16.082,0.004 16.082,0 0,-0.042 -0.758,-0.459 -1.471,-1.383 l -5.98,-8.269 7.539,-12.053 c 0.654,-0.877 1.215,-1.291 1.676,-1.641 0.28,-0.215 0.474,-0.338 0.474,-0.338 l -18.783,0 c 0,0 0.534,0.319 0.067,1.468 l -4.99,8.235 0,-7.531 c 0,-0.202 -0.203,-1.727 0.701,-2.173 l -16.038,10e-4 c 0.905,0.446 0.843,1.97 0.843,2.173 l 0,20.022 c 0,1.064 -0.694,1.489 -0.694,1.489 l 15.889,0 c 0,0 -0.701,-0.426 -0.701,-1.489 L 0,0 z m 54.249,-14.258 0,8.33 c 0,0 -1.014,-1.057 -2.492,-1.057 l -10.038,0 -0.002,1.889 7.705,0 c 0.429,0 1.749,-0.149 2.078,-0.585 l 0.011,7.225 C 51.164,1.06 49.851,0.95 49.422,0.95 l -7.706,0 0,1.889 10.041,0 c 1.478,0 2.489,-1.063 2.489,-1.063 l 0,7.651 -27.24,0 c 0,0 0.696,-0.426 0.696,-1.489 l 0,-20.023 c 0,-0.203 0.06,-1.726 -0.845,-2.174"
         style="fill:#0066b3;fill-opacity:1;fill-rule:nonzero;stroke:none"
         id="path394" />
    </g>
  </g>
</svg>
