<?xml version="1.0" encoding="UTF-8" standalone="no"?>
<svg
   xmlns:dc="http://purl.org/dc/elements/1.1/"
   xmlns:cc="http://creativecommons.org/ns#"
   xmlns:rdf="http://www.w3.org/1999/02/22-rdf-syntax-ns#"
   xmlns:svg="http://www.w3.org/2000/svg"
   xmlns="http://www.w3.org/2000/svg"
   height="53"
   width="44"
   version="1.1"
   data-lt-installed="true"
   viewBox="0 0 44 53"
   id="Color">
  <metadata
     id="metadata15">
    <rdf:RDF>
      <cc:Work
         rdf:about="">
        <dc:format>image/svg+xml</dc:format>
        <dc:type
           rdf:resource="http://purl.org/dc/dcmitype/StillImage" />
        <dc:title>Vector Smart Object</dc:title>
      </cc:Work>
    </rdf:RDF>
  </metadata>
  <defs
     id="defs4">
    <style
       id="style2">.cls-1{fill:#8ec63f;}.cls-2{fill:#712c84;}</style>
  </defs>
  <title
     id="title6">Vector Smart Object</title>
  <path
     style="fill:#8ec63f"
     id="path8"
     d="M 0,8 V 0 H 8 V 8 Z M 17,8 V 0 H 9 v 8 z m 9,0 V 0 h -8 v 8 z m 9,0 V 0 H 27 V 8 Z M 8,17 V 9 H 0 v 8 z m 9,0 V 9 H 9 v 8 z m 18,0 V 9 h -8 v 8 z m 9,0 V 9 h -8 v 8 z M 8,26 V 18 H 0 v 8 z m 9,0 V 18 H 9 v 8 z m 9,0 v -8 h -8 v 8 z m 9,0 v -8 h -8 v 8 z m 9,0 v -8 h -8 v 8 z M 8,35 V 27 H 0 v 8 z m 9,0 V 27 H 9 v 8 z m 18,0 v -8 h -8 v 8 z m 9,0 v -8 h -8 v 8 z M 8,44 V 36 H 0 v 8 z m 9,0 V 36 H 9 v 8 z m 18,0 v -8 h -8 v 8 z m 9,0 v -8 h -8 v 8 z M 8,53 V 45 H 0 v 8 z m 9,0 V 45 H 9 v 8 z m 9,0 v -8 h -8 v 8 z m 9,0 v -8 h -8 v 8 z m 9,0 v -8 h -8 v 8 z"
     class="cls-1" />
  <path
     style="fill:#712c84"
     id="path10"
     d="M 36,8 V 0 l 8,8 z"
     class="cls-2" />
</svg>
