<?xml version="1.0" encoding="UTF-8"?>
<!-- Generator: Adobe Illustrator 17.1.0, SVG Export Plug-In . SVG Version: 6.00 Build 0)  -->
<!DOCTYPE svg PUBLIC "-//W3C//DTD SVG 1.1//EN" "http://www.w3.org/Graphics/SVG/1.1/DTD/svg11.dtd">
<svg version="1.1" xmlns="http://www.w3.org/2000/svg" xmlns:xlink="http://www.w3.org/1999/xlink" x="0px" y="0px" viewBox="0 0 106.709 106.708" enable-background="new 0 0 106.709 106.708" xml:space="preserve"><script xmlns=""/>
<g id="grid">
</g>
<g id="Layer_2">
</g>
<g id="Layer_3">
</g>
<g id="Layer_4">
</g>
<g id="Layer_5">
</g>
<g id="Layer_6">
</g>
<g id="Layer_7">
</g>
<g id="Layer_8">
</g>
<g id="Layer_9">
</g>
<g id="Home">
	<g id="Footer">
	</g>
	<g id="Body">
	</g>
	<g id="Header">
	</g>
	<g id="Hover_Effects__x2B__Elements" display="none">
	</g>
</g>
<g id="SVG">
	<g>
		<rect x="0" y="0" fill-rule="evenodd" clip-rule="evenodd" fill="#FF4713" width="106.709" height="106.708"/>
		<path fill="#FFFFFF" d="M60.012,68.016c-0.039-0.379-0.141-0.65-0.306-0.813c-0.166-0.164-0.383-0.246-0.652-0.246    c-0.312,0-0.56,0.125-0.748,0.371c-0.118,0.155-0.194,0.383-0.225,0.688H60.012z M62.003,68.954h-3.926    c0.034,0.315,0.12,0.549,0.255,0.703c0.189,0.222,0.437,0.332,0.741,0.332c0.192,0,0.376-0.048,0.549-0.145    c0.107-0.061,0.22-0.167,0.342-0.322l1.93,0.177c-0.296,0.514-0.651,0.882-1.068,1.106c-0.417,0.222-1.015,0.333-1.795,0.333    c-0.677,0-1.209-0.095-1.598-0.286c-0.388-0.191-0.71-0.495-0.964-0.91c-0.255-0.416-0.383-0.904-0.383-1.465    c0-0.798,0.256-1.446,0.767-1.939c0.513-0.494,1.219-0.742,2.121-0.742c0.731,0,1.309,0.112,1.732,0.333    c0.424,0.22,0.747,0.542,0.968,0.961c0.222,0.42,0.332,0.967,0.332,1.641V68.954z M53.065,63.968h1.965v7.056h-1.965V63.968z     M48.349,68.483c0,0.404,0.084,0.705,0.255,0.9c0.169,0.196,0.384,0.294,0.644,0.294c0.228,0,0.419-0.094,0.573-0.283    c0.154-0.187,0.232-0.506,0.232-0.955c0-0.414-0.08-0.718-0.241-0.912c-0.16-0.196-0.357-0.293-0.587-0.293    c-0.251,0-0.46,0.099-0.626,0.294C48.431,67.725,48.349,68.044,48.349,68.483z M46.384,72.969v-7.056h1.833v0.756    c0.255-0.319,0.486-0.534,0.698-0.645c0.286-0.151,0.601-0.227,0.948-0.227c0.683,0,1.212,0.263,1.587,0.785    c0.373,0.522,0.56,1.17,0.56,1.94c0,0.849-0.204,1.498-0.611,1.947c-0.407,0.447-0.923,0.67-1.544,0.67    c-0.302,0-0.578-0.051-0.826-0.153c-0.248-0.104-0.471-0.256-0.667-0.458v2.441H46.384z M36.483,65.913h1.828v0.746    c0.264-0.312,0.529-0.532,0.797-0.665c0.268-0.131,0.592-0.197,0.971-0.197c0.407,0,0.729,0.072,0.966,0.217    c0.238,0.145,0.432,0.36,0.583,0.645c0.307-0.334,0.588-0.562,0.843-0.682c0.253-0.12,0.565-0.181,0.938-0.181    c0.548,0,0.977,0.163,1.285,0.49c0.309,0.325,0.462,0.834,0.462,1.528v3.21h-1.963v-2.911c0-0.232-0.044-0.404-0.135-0.516    c-0.132-0.176-0.296-0.264-0.491-0.264c-0.23,0-0.417,0.084-0.559,0.25c-0.141,0.168-0.21,0.435-0.21,0.805v2.637h-1.965v-2.816    c0-0.225-0.013-0.376-0.038-0.457c-0.043-0.128-0.115-0.232-0.217-0.31c-0.104-0.079-0.223-0.118-0.361-0.118    c-0.225,0-0.409,0.085-0.553,0.255c-0.145,0.171-0.217,0.45-0.217,0.838v2.609h-1.963V65.913z M33.209,65.913h1.96v5.111h-1.96    V65.913z M33.209,63.968h1.96v1.334h-1.96V63.968z M26.72,69.61l1.945-0.184c0.08,0.231,0.192,0.397,0.337,0.496    c0.145,0.1,0.337,0.15,0.578,0.15c0.263,0,0.467-0.056,0.611-0.169c0.112-0.082,0.167-0.187,0.167-0.312    c0-0.141-0.074-0.25-0.22-0.327c-0.107-0.054-0.388-0.121-0.843-0.202c-0.68-0.12-1.153-0.229-1.418-0.33    c-0.265-0.102-0.488-0.273-0.669-0.512c-0.182-0.24-0.273-0.514-0.273-0.823c0-0.337,0.099-0.628,0.294-0.871    c0.195-0.245,0.465-0.427,0.808-0.547c0.343-0.12,0.803-0.181,1.381-0.181c0.61,0,1.06,0.048,1.35,0.14    c0.291,0.094,0.532,0.238,0.726,0.434c0.194,0.196,0.355,0.46,0.485,0.794l-1.858,0.184c-0.049-0.164-0.128-0.284-0.241-0.361    c-0.154-0.104-0.34-0.154-0.559-0.154c-0.22,0-0.383,0.039-0.483,0.118c-0.102,0.079-0.151,0.174-0.151,0.286    c0,0.126,0.064,0.22,0.192,0.284c0.128,0.064,0.407,0.122,0.838,0.174c0.65,0.074,1.135,0.176,1.452,0.307    c0.319,0.131,0.562,0.319,0.729,0.564c0.169,0.243,0.253,0.511,0.253,0.803c0,0.296-0.089,0.583-0.268,0.863    c-0.177,0.279-0.458,0.501-0.841,0.665c-0.385,0.166-0.907,0.248-1.567,0.248c-0.933,0-1.598-0.133-1.995-0.399    C27.088,70.479,26.833,70.099,26.72,69.61z"/>
		<path fill="#FFFFFF" d="M94.601,69.498l0.856-0.135c0.048,0.343,0.182,0.606,0.402,0.79c0.218,0.182,0.526,0.274,0.922,0.274    c0.398,0,0.693-0.082,0.885-0.243c0.192-0.163,0.289-0.353,0.289-0.57c0-0.197-0.085-0.35-0.256-0.463    c-0.118-0.077-0.414-0.174-0.886-0.292c-0.634-0.161-1.076-0.299-1.321-0.417c-0.245-0.117-0.432-0.279-0.559-0.486    c-0.126-0.207-0.19-0.435-0.19-0.685c0-0.228,0.053-0.439,0.158-0.632c0.103-0.195,0.246-0.356,0.426-0.484    c0.135-0.099,0.319-0.184,0.55-0.253c0.233-0.069,0.483-0.104,0.749-0.104c0.401,0,0.752,0.059,1.056,0.174    c0.304,0.115,0.527,0.271,0.672,0.468c0.145,0.199,0.243,0.462,0.297,0.792l-0.846,0.117c-0.039-0.263-0.151-0.468-0.335-0.616    c-0.184-0.148-0.445-0.222-0.782-0.222c-0.398,0-0.682,0.066-0.851,0.197c-0.171,0.131-0.256,0.286-0.256,0.462    c0,0.113,0.036,0.214,0.107,0.304c0.071,0.094,0.181,0.169,0.332,0.232c0.087,0.031,0.342,0.105,0.766,0.22    c0.613,0.164,1.04,0.297,1.281,0.402c0.243,0.103,0.434,0.256,0.572,0.455c0.138,0.199,0.207,0.445,0.207,0.741    c0,0.289-0.086,0.56-0.253,0.816c-0.169,0.255-0.412,0.452-0.729,0.592c-0.317,0.139-0.677,0.209-1.078,0.209    c-0.665,0-1.171-0.138-1.52-0.414C94.917,70.449,94.696,70.04,94.601,69.498 M89.982,67.977h2.854    c-0.038-0.429-0.148-0.752-0.327-0.966c-0.276-0.334-0.634-0.501-1.073-0.501c-0.398,0-0.733,0.133-1.004,0.399    C90.161,67.175,90.012,67.531,89.982,67.977z M92.826,69.378l0.895,0.11c-0.141,0.524-0.403,0.93-0.784,1.219    c-0.383,0.287-0.871,0.432-1.464,0.432c-0.748,0-1.34-0.23-1.777-0.69c-0.439-0.46-0.657-1.105-0.657-1.937    c0-0.861,0.222-1.528,0.664-2.003c0.444-0.475,1.017-0.713,1.723-0.713c0.683,0,1.242,0.233,1.674,0.698    c0.434,0.465,0.65,1.12,0.65,1.963c0,0.053-0.002,0.13-0.005,0.232h-3.811c0.031,0.562,0.19,0.992,0.476,1.29    c0.286,0.299,0.641,0.448,1.068,0.448c0.317,0,0.588-0.084,0.813-0.251C92.517,70.01,92.694,69.744,92.826,69.378z M85.899,71.024    v-5.111h0.779v0.774c0.199-0.361,0.383-0.601,0.552-0.716c0.168-0.115,0.353-0.174,0.555-0.174c0.292,0,0.588,0.094,0.89,0.279    l-0.299,0.805c-0.21-0.126-0.422-0.189-0.634-0.189c-0.19,0-0.36,0.057-0.511,0.171c-0.151,0.115-0.258,0.273-0.322,0.475    c-0.097,0.307-0.144,0.644-0.144,1.01v2.676H85.899z M83.64,71.024v-0.751c-0.399,0.578-0.94,0.866-1.623,0.866    c-0.301,0-0.583-0.058-0.844-0.173c-0.261-0.115-0.455-0.261-0.582-0.435c-0.128-0.176-0.217-0.389-0.268-0.642    c-0.035-0.171-0.053-0.44-0.053-0.81v-3.166h0.866v2.834c0,0.453,0.018,0.757,0.053,0.915c0.056,0.228,0.171,0.406,0.347,0.537    c0.178,0.13,0.396,0.194,0.656,0.194c0.26,0,0.502-0.066,0.731-0.199c0.229-0.133,0.389-0.316,0.483-0.544    c0.095-0.23,0.143-0.563,0.143-0.999v-2.739h0.866v5.111H83.64z M79.306,70.248l0.125,0.766c-0.243,0.051-0.462,0.077-0.654,0.077    c-0.315,0-0.559-0.049-0.733-0.15c-0.173-0.098-0.294-0.23-0.365-0.393c-0.071-0.161-0.107-0.503-0.107-1.022v-2.94h-0.636v-0.674    h0.636v-1.266l0.862-0.519v1.786h0.871v0.674h-0.871v2.988c0,0.248,0.015,0.406,0.044,0.476c0.031,0.071,0.08,0.127,0.149,0.169    c0.069,0.041,0.168,0.062,0.296,0.062C79.022,70.283,79.148,70.272,79.306,70.248z M75.059,68.458    c-0.316,0.13-0.787,0.238-1.414,0.329c-0.357,0.051-0.61,0.108-0.756,0.173c-0.148,0.064-0.263,0.158-0.342,0.283    c-0.08,0.123-0.121,0.26-0.121,0.411c0,0.232,0.089,0.424,0.263,0.578c0.174,0.153,0.43,0.23,0.767,0.23    c0.333,0,0.631-0.072,0.89-0.219c0.26-0.146,0.452-0.347,0.573-0.599c0.094-0.196,0.14-0.485,0.14-0.866V68.458z M75.131,70.393    c-0.322,0.273-0.631,0.465-0.926,0.578c-0.297,0.112-0.616,0.168-0.956,0.168c-0.562,0-0.992-0.136-1.294-0.411    c-0.301-0.274-0.452-0.626-0.452-1.051c0-0.251,0.056-0.48,0.171-0.687c0.113-0.207,0.263-0.373,0.447-0.498    c0.186-0.125,0.393-0.22,0.624-0.284c0.169-0.044,0.426-0.089,0.769-0.13c0.7-0.084,1.216-0.182,1.546-0.299    c0.003-0.118,0.005-0.194,0.005-0.225c0-0.353-0.082-0.603-0.246-0.746c-0.22-0.197-0.55-0.294-0.986-0.294    c-0.407,0-0.708,0.071-0.904,0.214c-0.194,0.143-0.337,0.396-0.43,0.759l-0.846-0.117c0.077-0.361,0.204-0.656,0.38-0.877    c0.176-0.223,0.432-0.396,0.765-0.516c0.333-0.12,0.72-0.181,1.16-0.181c0.437,0,0.79,0.053,1.063,0.154    c0.273,0.104,0.473,0.232,0.603,0.388c0.128,0.156,0.217,0.351,0.27,0.59c0.028,0.148,0.042,0.414,0.042,0.798v1.155    c0,0.807,0.018,1.316,0.056,1.528c0.036,0.214,0.11,0.419,0.219,0.614h-0.905C75.215,70.845,75.156,70.635,75.131,70.393z     M66.831,67.977h2.853c-0.038-0.429-0.148-0.752-0.327-0.966c-0.276-0.334-0.634-0.501-1.073-0.501    c-0.398,0-0.733,0.133-1.004,0.399C67.01,67.175,66.861,67.531,66.831,67.977z M69.675,69.378l0.895,0.11    c-0.141,0.524-0.402,0.93-0.784,1.219c-0.383,0.287-0.871,0.432-1.464,0.432c-0.747,0-1.34-0.23-1.777-0.69    c-0.439-0.46-0.657-1.105-0.657-1.937c0-0.861,0.222-1.528,0.664-2.003c0.444-0.475,1.017-0.713,1.723-0.713    c0.684,0,1.242,0.233,1.674,0.698c0.434,0.465,0.65,1.12,0.65,1.963c0,0.053-0.002,0.13-0.005,0.232h-3.811    c0.031,0.562,0.191,0.992,0.476,1.29c0.286,0.299,0.641,0.448,1.068,0.448c0.317,0,0.588-0.084,0.813-0.251    C69.366,70.01,69.543,69.744,69.675,69.378z M63.507,71.024v-4.437h-0.764v-0.674h0.764V65.37c0-0.343,0.031-0.6,0.092-0.766    c0.084-0.225,0.23-0.407,0.44-0.547c0.21-0.14,0.504-0.209,0.884-0.209c0.243,0,0.513,0.028,0.808,0.087l-0.13,0.756    c-0.179-0.033-0.35-0.049-0.511-0.049c-0.263,0-0.448,0.056-0.557,0.169c-0.11,0.112-0.164,0.322-0.164,0.631v0.471h0.995v0.674    H64.37v4.437H63.507z"/>
		<path fill="#FFFFFF" d="M21.754,41.342v23.703c0,0,0.132,2.559-1.866,4.276c-2.338,2.007-3.56,1.582-3.56,1.582V41.342H21.754z"/>
		<path fill="#FFFFFF" d="M31.892,41.342v10.89c0,1.024,0.089,2.401,1.156,3.379c0.667,0.578,1.731,0.978,2.754,0.978    c1.021,0,2.088-0.4,2.755-0.978c1.067-0.978,1.159-2.355,1.159-3.379v-10.89h5.42V53.12c0,1.734-0.222,4.046-2.355,5.912    c-1.78,1.556-4.624,2.18-6.979,2.18c-2.355,0-5.202-0.624-6.979-2.18c-2.137-1.866-2.358-4.178-2.358-5.912V41.342H31.892z"/>
		<path fill="#FFFFFF" d="M59.93,45.917c-1.288-1.196-2.579-1.285-3.157-1.285c-1.288,0-2.091,0.621-2.091,1.556    c0,0.489,0.224,1.242,1.737,1.734l1.291,0.4c1.51,0.489,3.776,1.245,4.889,2.758c0.578,0.799,0.975,1.952,0.975,3.201    c0,1.731-0.576,3.465-2.131,4.888c-1.556,1.424-3.425,2.045-5.78,2.045c-4,0-6.269-1.912-7.468-3.201l2.844-3.29    c1.067,1.245,2.668,2.22,4.267,2.22c1.513,0,2.668-0.753,2.668-2.088c0-1.199-0.977-1.688-1.688-1.955l-1.245-0.446    c-1.377-0.489-2.979-1.11-4.135-2.309c-0.891-0.935-1.467-2.137-1.467-3.69c0-1.869,0.889-3.424,1.999-4.359    c1.512-1.199,3.468-1.377,5.023-1.377c1.424,0,3.689,0.178,6.137,2.044L59.93,45.917z"/>
		<polygon fill="#FFFFFF" points="73.769,45.963 73.769,60.591 68.346,60.591 68.346,45.963 66.212,45.963 66.212,41.342     68.346,41.342 68.346,34.763 73.769,34.763 73.769,41.342 77.502,41.342 77.502,45.963   "/>
		<path fill="#FFFFFF" d="M89.594,49.293c-0.34-0.34-0.811-0.551-1.33-0.551c-0.519,0-0.99,0.211-1.33,0.551    c-0.34,0.34-0.551,0.811-0.551,1.33c0,0.519,0.211,0.99,0.551,1.33c0.34,0.34,0.811,0.551,1.33,0.551    c0.519,0,0.99-0.211,1.33-0.551c0.34-0.34,0.551-0.811,0.551-1.33C90.145,50.103,89.934,49.633,89.594,49.293 M88.264,48.417    c0.609,0,1.161,0.247,1.56,0.646c0.399,0.399,0.646,0.951,0.646,1.56c0,0.609-0.247,1.161-0.646,1.56    c-0.399,0.399-0.951,0.646-1.56,0.646c-0.608,0-1.16-0.247-1.559-0.646c-0.399-0.399-0.646-0.951-0.646-1.56    c0-0.608,0.247-1.16,0.646-1.56C87.103,48.664,87.655,48.417,88.264,48.417z"/>
		<path fill="#FFFFFF" d="M87.687,49.529v1.01h0.332c0.103,0,0.191-0.003,0.264-0.01c0.073-0.007,0.139-0.02,0.196-0.037    c0.117-0.036,0.207-0.093,0.27-0.171c0.063-0.079,0.095-0.181,0.095-0.308c-0.001-0.118-0.032-0.213-0.091-0.286    c-0.059-0.072-0.141-0.124-0.245-0.155c-0.05-0.015-0.109-0.026-0.177-0.033c-0.069-0.006-0.156-0.01-0.262-0.01H87.687z     M87.687,50.842v1.142h-0.336v-2.759h0.716c0.121,0,0.224,0.004,0.308,0.013c0.085,0.009,0.162,0.023,0.232,0.042    c0.193,0.052,0.34,0.142,0.441,0.268c0.102,0.125,0.153,0.282,0.153,0.471c0,0.111-0.017,0.211-0.053,0.299    c-0.036,0.088-0.086,0.164-0.151,0.229c-0.065,0.065-0.142,0.117-0.232,0.159c-0.09,0.041-0.19,0.071-0.3,0.09v0.008l0.901,1.18    h-0.422l-0.85-1.142H87.687z"/>
		<path fill-rule="evenodd" clip-rule="evenodd" fill="#FFFFFF" d="M18.953,8.071c1.24-0.085,2.443,0.63,3.099,1.369    c0.704,0.8,1.163,2.02,0.948,3.294c-0.233,1.39-0.863,2.092-1.809,2.75c-0.884,0.633-1.592,1.583-1.569,2.922    c0.018,1.28,0.72,2.255,1.572,2.834c0.842,0.561,2.14,0.751,3.252,0.265c1.007-0.455,1.631-1.322,2.044-2.293    c0.24-0.581,0.379-1,0.713-1.441c0.319-0.422,0.808-0.787,1.159-1.001c2.198-1.291,4.656-0.264,5.619,1.643    c1.216,2.384-0.287,4.801-2.227,5.506c-1.168,0.419-2.504,0.244-3.422-0.282c-0.46-0.275-0.842-0.604-1.369-0.781    c-0.507-0.177-1.062-0.32-1.686-0.258c-1.777,0.19-3.073,1.488-3.115,3.385c-0.021,0.592,0.108,1.167,0.397,1.691    c0.473,0.852,1.404,1.586,2.436,1.853c0.555,0.142,1.238,0.119,1.827,0.26c1.557,0.386,2.846,1.672,3.031,3.483    c0.13,1.317-0.379,2.406-1.091,3.168c-0.698,0.742-1.81,1.31-3.067,1.212c-1.258-0.099-2.221-0.663-2.871-1.429    c-0.646-0.767-1.139-2.036-0.885-3.237c0.124-0.554,0.378-1.111,0.437-1.699c0.146-1.369-0.495-2.456-1.26-3.071    c-1.251-1.011-3.307-0.992-4.565,0.252c-0.741,0.738-1.229,1.899-0.92,3.223c0.144,0.619,0.36,1.14,0.379,1.794    c0.075,1.929-1.087,3.371-2.52,3.92c-1.105,0.418-2.527,0.287-3.485-0.252c-0.923-0.507-1.601-1.467-1.839-2.501    c-0.279-1.248,0.043-2.464,0.685-3.351c0.6-0.818,1.396-1.43,2.766-1.585c0.702-0.083,1.24-0.11,1.76-0.34    c1.312-0.572,2.664-1.968,2.184-4.099c-0.139-0.619-0.446-0.983-0.79-1.371c-0.35-0.393-0.733-0.717-1.206-0.953    c-0.933-0.452-2.109-0.32-2.956,0.134c-0.438,0.219-0.759,0.554-1.187,0.744c-1.523,0.69-3.308,0.298-4.329-0.614    c-0.673-0.587-1.213-1.433-1.377-2.454c-0.203-1.287,0.258-2.312,0.778-2.989c0.552-0.726,1.389-1.256,2.389-1.454    c1.136-0.234,2.237,0.071,2.961,0.551c0.802,0.503,1.332,1.218,1.669,2.144c0.384,1.047,0.756,1.701,1.608,2.247    c0.734,0.475,1.882,0.754,3.001,0.336c0.883-0.338,1.591-0.982,1.962-1.875c0.395-0.918,0.392-2.12-0.144-3.039    c-0.239-0.399-0.539-0.745-0.873-1.051c-0.324-0.295-0.696-0.557-0.997-0.911c-0.562-0.662-1.027-1.625-0.947-2.863    C15.262,9.767,16.812,8.232,18.953,8.071"/>
		<path fill-rule="evenodd" clip-rule="evenodd" fill="#FFFFFF" d="M81.228,52.928c-0.51-0.635-0.836-1.392-0.906-1.479    l-1.374,6.139c3.422,3.234,7.079,3.624,9.398,3.624c8.181,0,11.603-5.202,11.603-10.806c0-6.398-4.489-10.045-10.315-10.045    c-0.756,0-1.377,0.089-1.955,0.179l1.07-4.67h9.866v-4.978h-13.69l-3.483,15.56h0.326c2.134-1.602,4.178-1.912,5.691-1.912    c4.535,0,6.714,2.844,6.714,5.955c0,3.382-2.404,5.737-5.961,5.737C84.719,56.231,82.55,54.574,81.228,52.928"/>
	</g>
</g>
</svg>