<?xml version="1.0" encoding="UTF-8" standalone="no"?>
<svg
   xmlns:dc="http://purl.org/dc/elements/1.1/"
   xmlns:cc="http://creativecommons.org/ns#"
   xmlns:rdf="http://www.w3.org/1999/02/22-rdf-syntax-ns#"
   xmlns:svg="http://www.w3.org/2000/svg"
   xmlns="http://www.w3.org/2000/svg"
   xmlns:sodipodi="http://sodipodi.sourceforge.net/DTD/sodipodi-0.dtd"
   xmlns:inkscape="http://www.inkscape.org/namespaces/inkscape"
   width="178.85872"
   height="170.72034"
   preserveAspectRatio="xMidYMid meet"
   version="1.1"
   id="svg8"
   sodipodi:docname="Kazam.svg"
   inkscape:version="0.92.1 r15371">
  <metadata
     id="metadata14">
    <rdf:RDF>
      <cc:Work
         rdf:about="">
        <dc:format>image/svg+xml</dc:format>
        <dc:type
           rdf:resource="http://purl.org/dc/dcmitype/StillImage" />
        <dc:title>Layer 1</dc:title>
      </cc:Work>
    </rdf:RDF>
  </metadata>
  <defs
     id="defs12" />
  <sodipodi:namedview
     pagecolor="#ffffff"
     bordercolor="#666666"
     borderopacity="1"
     objecttolerance="10"
     gridtolerance="10"
     guidetolerance="10"
     inkscape:pageopacity="0"
     inkscape:pageshadow="2"
     inkscape:window-width="1920"
     inkscape:window-height="1051"
     id="namedview10"
     showgrid="false"
     fit-margin-top="0"
     fit-margin-left="0"
     fit-margin-right="0"
     fit-margin-bottom="0"
     inkscape:zoom="0.32597837"
     inkscape:cx="123.61181"
     inkscape:cy="-39.779972"
     inkscape:window-x="0"
     inkscape:window-y="0"
     inkscape:window-maximized="1"
     inkscape:current-layer="svg8" />
  <title
     id="title2">Layer 1</title>
  <path
     style="fill:#ae006f;stroke-width:0.1"
     inkscape:connector-curvature="0"
     id="path4"
     d="m 80.558717,22.2 c -13.4,39 -14.2,41.3 -15.3,42 -0.5,0.4 -15.8,0.8 -34,0.8 C -0.04128313,65.1 -1.6412831,65.2 0.75871687,66.8 7.0587169,71.2 44.658717,99.4 48.058717,102.2 l 3.9,3.3 -9.7,28 c -11.4,32.9 -12.6,36.5 -11.9,36.5 0.3,0 4,-2.4 8.2,-5.3 4.2,-3 13.6,-9.3 20.7,-14.2 7.2,-4.9 16.7,-11.4 21.2,-14.6 l 8.2,-5.8 25.300003,17.3 c 13.9,9.6 27.2,18.8 29.6,20.5 2.3,1.7 4.2,3 4.2,2.8 0,-0.2 -1.5,-4.8 -3.4,-10.3 -13.1,-38.3 -18.6,-54.6 -18.6,-55.2 0,-0.4 2,-2.1 4.3,-3.8 2.3,-1.7 14.2,-10.6 26.5,-19.8 l 22.3,-16.6 -33.7,-0.2 -33.7,-0.3 -2.8,-8 c -1.6,-4.4 -6.5,-18.9 -11.100003,-32.2 -4.6,-13.4 -8.5,-24.3 -8.8,-24.3 -0.3,0 -4,10 -8.2,22.2 z"
     sodipodi:nodetypes="cccccccsccccccscssccccccsc" />
</svg>
