<?xml version="1.0" encoding="UTF-8" standalone="no"?>
<!-- Generator: Adobe Illustrator 10.0, SVG Export Plug-In . SVG Version: 3.0.0 Build 76)  -->
<svg xmlns:ns4="http://ns.adobe.com/SaveForWeb/1.0/" xmlns:ns3="http://ns.adobe.com/Variables/1.0/" xmlns:ns2="http://ns.adobe.com/AdobeIllustrator/10.0/" xmlns:dc="http://purl.org/dc/elements/1.1/" xmlns:cc="http://creativecommons.org/ns#" xmlns:rdf="http://www.w3.org/1999/02/22-rdf-syntax-ns#" xmlns:svg="http://www.w3.org/2000/svg" xmlns="http://www.w3.org/2000/svg" xmlns:sodipodi="http://sodipodi.sourceforge.net/DTD/sodipodi-0.dtd" xmlns:inkscape="http://www.inkscape.org/namespaces/inkscape" ns2:viewOrigin="211.8345 480.3618" ns2:rulerOrigin="0 0" ns2:pageBounds="0 792 612 0" width="1000" height="905" viewBox="0 0 1000 904.99998" overflow="visible" enable-background="new 0 0 187.086 169.479" xml:space="preserve" id="svg2" version="1.1" inkscape:version="0.48.5 r10040" sodipodi:docname="Kodak_2016.svg" style="overflow:visible"><script xmlns=""/><defs id="defs27"/><sodipodi:namedview pagecolor="#ffffff" bordercolor="#666666" borderopacity="1" objecttolerance="10" gridtolerance="10" guidetolerance="10" inkscape:pageopacity="0" inkscape:pageshadow="2" inkscape:window-width="1366" inkscape:window-height="706" id="namedview25" showgrid="false" inkscape:zoom="0.50000001" inkscape:cx="1243.9264" inkscape:cy="396.1359" inkscape:window-x="-8" inkscape:window-y="-8" inkscape:window-maximized="1" inkscape:current-layer="svg2" fit-margin-top="0" fit-margin-left="0" fit-margin-right="0" fit-margin-bottom="0"/><metadata id="metadata4"><ns3:variableSets><ns3:variableSet varSetName="binding1" locked="none"><ns3:variables/><ns3:sampleDataSets/></ns3:variableSet></ns3:variableSets><ns4:sfw><ns4:slices/><ns4:sliceSourceBounds x="211.834" y="310.883" width="187.086" height="169.479" bottomLeftOrigin="true"/></ns4:sfw><rdf:RDF><cc:Work rdf:about=""><dc:format>image/svg+xml</dc:format><dc:type rdf:resource="http://purl.org/dc/dcmitype/StillImage"/></cc:Work></rdf:RDF></metadata><g id="g3078"><path id="path9" d="M 1000,905.00001 V 0 H 0 v 905.00001 h 1000 z" style="fill:#fab617;fill-opacity:1;fill-rule:evenodd"/><g id="g3074"><path style="fill:#e30613;fill-opacity:1" d="m 837.16909,124.42606 -216.13524,0 c -19.39675,0 -32.55883,9.04373 -48.49188,22.95715 L 213.00931,453.47845 c -2.07822,2.08702 -2.07822,3.47836 -2.07822,6.26104 0,2.08702 0.69274,4.17403 2.07822,6.26104 l 369.23104,310.26928 c 10.39112,8.34805 24.24594,13.91342 38.7935,13.91342 l 215.4425,0 c 27.0169,0 48.49188,-21.5658 48.49188,-48.69697 l 0,-567.66756 c 0,-26.43549 -21.47498,-49.39264 -47.79914,-49.39264 z" id="path3062"/><path style="fill:#e30613;fill-opacity:1" id="path7" d="m 197.76901,484.08798 c -4.15645,-6.26104 -11.08386,-15.30476 -11.08386,-24.34849 0,-6.95671 2.07822,-13.91342 5.54193,-19.47878 L 401.43491,149.47022 c 2.07822,-2.08701 2.07822,-5.56537 2.07822,-9.04372 0,-9.04373 -6.92741,-16.00044 -15.93305,-16.00044 l -216.82798,0 c -26.32416,0 -47.79913,22.95715 -47.79913,49.39264 l 0,567.66756 c 0,27.13117 21.47497,48.69697 47.79913,48.69697 0,0 213.36428,0 216.82798,0 9.00564,0 15.93305,-6.95671 15.93305,-16.00043 0,-3.47836 -1.38548,-6.95672 -2.77096,-10.43507 L 197.76901,484.08798 z" class="st0" inkscape:connector-curvature="0"/></g><g id="g3067"><path style="fill:#fab617;fill-opacity:1" d="M 774.125 296.9375 C 744.33713 296.9375 727.71875 311.5645 727.71875 338 C 727.71875 365.13117 744.33713 381.125 774.125 381.125 C 803.91287 381.125 820.53125 365.82684 820.53125 338 C 820.53125 311.5645 803.91287 296.9375 774.125 296.9375 z M 774.125 316.4375 C 790.05804 316.4375 797.6875 323.3909 797.6875 338 C 797.6875 354.6961 790.05804 361.65625 774.125 361.65625 C 758.19195 361.65625 751.25524 354.00043 750.5625 338 C 750.5625 322.69523 758.19195 316.4375 774.125 316.4375 z " transform="translate(0,-10e-6)" id="path3058"/><path style="fill:#fab617;fill-opacity:1" d="M 732.5625 415.90625 L 732.5625 498 L 778.28125 498 C 804.60542 498 818.46875 484.07684 818.46875 456.25 C 818.46875 429.11883 805.9909 415.90625 778.28125 415.90625 L 732.5625 415.90625 z M 755.4375 436.09375 L 778.28125 436.09375 C 790.05785 436.09375 795.59375 441.64091 795.59375 456.25 C 795.59375 470.85909 790.05785 478.53125 778.28125 478.53125 L 755.4375 478.53125 L 755.4375 436.09375 z " transform="translate(0,-10e-6)" id="path3056"/><path style="fill:#fab617;fill-opacity:1" d="m 732.56518,181.47109 22.86046,0 0,33.39221 33.25157,-33.39221 31.86609,0 -40.87172,40.34892 42.94995,40.34891 -32.55884,0 -33.94431,-33.3922 0,33.3922 -23.5532,0 0,-80.69783 z" id="path3060"/><path style="fill:#fab617;fill-opacity:1" d="m 788.67721,733.1382 -33.94432,-33.3922 0,33.3922 -22.16771,0 0,-80.69783 22.86046,0 0,33.39221 33.25157,-33.39221 30.48061,0 -39.48624,40.34892 42.94995,40.34891 -33.94432,0 z" id="path3054"/><path style="fill:#fab617;fill-opacity:1" d="M 760.96875 533.46875 L 726.34375 615.5625 L 750.5625 615.5625 L 756.125 601.65625 L 792.84375 601.65625 L 798.375 615.5625 L 823.3125 615.5625 L 788.6875 533.46875 L 760.96875 533.46875 z M 774.125 555.03125 L 785.90625 583.5625 L 763.03125 583.5625 L 774.125 555.03125 z " transform="translate(0,-10e-6)" id="path13-9"/></g></g></svg>