<?xml version="1.0" encoding="UTF-8" standalone="no"?>
<svg
   xmlns:dc="http://purl.org/dc/elements/1.1/"
   xmlns:cc="http://creativecommons.org/ns#"
   xmlns:rdf="http://www.w3.org/1999/02/22-rdf-syntax-ns#"
   xmlns:svg="http://www.w3.org/2000/svg"
   xmlns="http://www.w3.org/2000/svg"
   version="1.1"
   id="Layer_1"
   x="0px"
   y="0px"
   width="77.300003"
   height="77.238998"
   viewBox="0 0 77.300001 77.239"
   enable-background="new 0 0 176.132 77.239"
   xml:space="preserve"><metadata
   id="metadata19"><rdf:RDF><cc:Work
       rdf:about=""><dc:format>image/svg+xml</dc:format><dc:type
         rdf:resource="http://purl.org/dc/dcmitype/StillImage" /><dc:title></dc:title></cc:Work></rdf:RDF></metadata><defs
   id="defs17">
	
	
	
	
	
</defs>
<path
   fill="#a50034"
   d="M 38.65,77.239 C 59.978,77.239 77.3,59.968 77.3,38.628 77.3,17.287 59.978,0 38.65,0 17.289,0 0,17.287 0,38.628 0,59.968 17.289,77.239 38.65,77.239"
   id="path2" /><polygon
   fill="#ffffff"
   points="40.2,52.516 40.2,21.676 37.095,21.676 37.095,55.563 47.868,55.563 47.868,52.516 "
   id="polygon4" /><path
   fill="#ffffff"
   d="m 26.308,30.922 c 2.563,0 4.629,-2.084 4.629,-4.629 0,-2.547 -2.066,-4.639 -4.629,-4.639 -2.563,0 -4.629,2.092 -4.629,4.639 0,2.547 2.066,4.629 4.629,4.629"
   id="path6" /><path
   fill="#ffffff"
   d="M 40.199,6.304 C 39.795,6.284 39.027,6.259 38.66,6.259 20.82,6.259 6.301,20.783 6.301,38.612 c 0,8.66 3.365,16.777 9.46,22.881 6.12,6.09 14.241,9.455 22.899,9.455 8.625,0 16.744,-3.365 22.853,-9.455 6.11,-6.104 9.491,-14.221 9.491,-22.881 V 37.173 H 69.695 47.898 v 2.978 h 20.024 c 0,0.065 0,0.381 -0.014,0.463 C 66.89,55.856 54.16,67.928 38.66,67.928 30.814,67.928 23.457,64.877 17.92,59.336 12.365,53.818 9.304,46.467 9.304,38.611 c 0,-7.811 3.061,-15.2 8.616,-20.735 5.537,-5.53 12.894,-8.581 20.74,-8.581 0.338,0 1.16,0 1.539,0.02 z"
   id="path8" />
</svg>
