<?xml version="1.0" encoding="UTF-8" standalone="no"?>
<svg
   xmlns:dc="http://purl.org/dc/elements/1.1/"
   xmlns:cc="http://creativecommons.org/ns#"
   xmlns:rdf="http://www.w3.org/1999/02/22-rdf-syntax-ns#"
   xmlns:svg="http://www.w3.org/2000/svg"
   xmlns="http://www.w3.org/2000/svg"
   xmlns:sodipodi="http://sodipodi.sourceforge.net/DTD/sodipodi-0.dtd"
   xmlns:inkscape="http://www.inkscape.org/namespaces/inkscape"
   width="160pt"
   height="160pt"
   viewBox="0 0 160 160"
   version="1.1"
   id="svg42"
   sodipodi:docname="Lyf-logo.svg"
   inkscape:version="0.92.1 r15371">
  <metadata
     id="metadata48">
    <rdf:RDF>
      <cc:Work
         rdf:about="">
        <dc:format>image/svg+xml</dc:format>
        <dc:type
           rdf:resource="http://purl.org/dc/dcmitype/StillImage" />
        <dc:title></dc:title>
      </cc:Work>
    </rdf:RDF>
  </metadata>
  <defs
     id="defs46" />
  <sodipodi:namedview
     pagecolor="#ffffff"
     bordercolor="#666666"
     borderopacity="1"
     objecttolerance="10"
     gridtolerance="10"
     guidetolerance="10"
     inkscape:pageopacity="0"
     inkscape:pageshadow="2"
     inkscape:window-width="1920"
     inkscape:window-height="1051"
     id="namedview44"
     showgrid="false"
     fit-margin-top="2"
     fit-margin-left="2"
     fit-margin-right="2"
     fit-margin-bottom="2"
     inkscape:zoom="1.1346154"
     inkscape:cx="-55.062147"
     inkscape:cy="106.66667"
     inkscape:window-x="0"
     inkscape:window-y="0"
     inkscape:window-maximized="1"
     inkscape:current-layer="svg42" />
  <g
     id="#020f6fff"
     transform="translate(2,2)">
    <path
       d="M 0,0 H 156 V 156 H 0 V 0 m 24.72,44.77 c 0,15.16 0,30.31 0,45.47 11.36,-0.01 22.73,0 34.1,-0.01 -0.02,-3.9 -0.02,-7.81 0.02,-11.72 -6.7,-0.02 -13.39,-0.01 -20.09,-0.01 0.03,-11.24 0,-22.49 0.01,-33.73 -4.68,0 -9.36,0 -14.04,0 m 23.59,0 c 5.27,9.64 10.92,19.1 15.9,28.89 0.28,5.51 0.03,11.04 0.1,16.57 4.66,0.01 9.33,0 13.99,0.01 0.03,-5.09 -0.06,-10.18 0.01,-15.27 -0.12,-1.55 0.79,-2.86 1.49,-4.16 5,-8.65 9.84,-17.4 14.86,-26.04 -5.04,0.05 -10.08,-0.12 -15.12,0.07 -3.21,5.24 -5.31,11.1 -8.13,16.57 C 68.8,55.9 66.32,50.34 63.84,44.78 58.67,44.76 53.49,44.77 48.31,44.77 m 47.92,0 c 0.02,15.16 0.01,30.31 0,45.47 4.69,-0.01 9.38,0 14.07,0 0,-5.8 0,-11.6 0.01,-17.39 6.02,0 12.05,0 18.08,0 -0.01,-3.57 -0.01,-7.13 -0.01,-10.7 -6.02,0 -12.04,0 -18.07,0.01 -0.01,-1.91 -0.03,-3.81 -0.04,-5.72 7.03,0 14.07,-0.01 21.1,0.01 -0.02,-3.9 -0.01,-7.79 -0.01,-11.68 -11.71,0 -23.42,0 -35.13,0 m 28.62,52.41 c 0,1.53 0.01,3.07 0.02,4.6 -1.58,0.01 -3.15,0.01 -4.72,0.03 0.02,0.46 0.05,1.37 0.06,1.83 1.56,0.01 3.12,0.02 4.67,0.03 -0.01,1.53 -0.03,3.06 -0.04,4.59 0.48,0 1.46,0 1.95,-0.01 -0.02,-1.49 -0.04,-2.97 -0.06,-4.46 1.78,-0.43 4.62,0.72 5.21,-1.89 -1.73,-0.07 -3.46,-0.11 -5.19,-0.13 0.01,-1.52 0.02,-3.04 0.03,-4.56 -0.48,-0.01 -1.45,-0.02 -1.93,-0.03 m -100.32,7.85 c 1.29,2.09 4.12,2.22 6.14,3.28 -0.86,0.47 -1.69,1.02 -2.49,1.6 -1.32,-0.87 -2.66,-1.7 -4.02,-2.49 -0.56,5.36 9.39,5.06 7.7,-0.24 -1.54,-1.55 -3.96,-1.81 -5.85,-2.86 1.96,-1.89 4.3,0.01 6.41,0.55 -0.81,-4.1 -8.08,-4.43 -7.89,0.16 m 8.99,6.09 c 0.46,0.01 1.4,0.03 1.86,0.03 0.01,-2.15 0.03,-4.3 0.07,-6.44 0.91,2.47 1.66,5.07 3.35,7.15 0.95,-2.32 1.75,-4.69 2.64,-7.04 0.05,2.11 0.09,4.22 0.1,6.33 l 1.84,-0.02 c 0.05,-3.2 0.06,-6.41 0,-9.61 -3.92,-0.37 -3.71,4.03 -4.81,6.59 -1.25,-2.52 -1.09,-6.99 -5.02,-6.59 -0.07,3.2 -0.04,6.4 -0.03,9.6 m 10.93,0.52 c 1.73,-1.13 3.39,-2.49 5.51,-2.77 0.98,1.18 2.14,2.16 3.49,2.91 C 52.47,108.01 51.28,104.2 49,101 c -2.26,3.18 -3.39,6.96 -4.55,10.64 m 10.16,-9.84 c -0.02,3.11 -0.02,6.22 0.03,9.33 0.47,0.01 1.42,0.01 1.9,0.01 0.01,-0.94 0.04,-2.83 0.05,-3.77 0.76,0.08 2.29,0.24 3.05,0.32 0.4,1.66 0.79,3.43 2.61,4.07 -0.72,-3.03 -0.11,-6.25 -0.71,-9.21 -2.15,-1.05 -4.63,-0.58 -6.93,-0.75 m 8.73,1.75 c 0.71,0.02 2.14,0.07 2.85,0.09 0,2.5 0,5 0.01,7.5 0.51,0 1.51,0 2.02,-0.01 0,-2.49 -0.01,-4.99 -0.04,-7.48 0.69,-0.03 2.09,-0.09 2.79,-0.12 -0.04,-0.42 -0.12,-1.25 -0.16,-1.67 -2.47,0 -4.93,0 -7.39,0 -0.02,0.43 -0.06,1.27 -0.08,1.69 m 9,-1.77 c -0.03,3.12 -0.03,6.24 -0.01,9.37 0.48,-0.01 1.45,-0.02 1.93,-0.02 -0.01,-0.78 -0.02,-2.35 -0.03,-3.13 2.01,-0.28 5.51,-0.1 5.3,-3.06 0.19,-3.89 -4.66,-2.93 -7.19,-3.16 m 8.83,0.07 c -0.01,3.1 -0.02,6.2 0,9.3 0.5,-0.01 1.52,-0.02 2.03,-0.03 -0.01,-1.32 -0.02,-2.64 -0.02,-3.96 1.2,0 2.4,-0.01 3.61,-0.01 0,1.32 0,2.65 0,3.98 0.51,0 1.53,0 2.04,0 0.01,-3.09 0.01,-6.18 0,-9.27 -0.51,0 -1.53,0.01 -2.04,0.01 0.01,1.17 0.02,2.34 0.03,3.52 -1.22,0 -2.44,0 -3.66,0 0.01,-1.17 0.03,-2.34 0.04,-3.5 -0.5,-0.01 -1.52,-0.03 -2.03,-0.04 m 11.26,0.59 c -3.11,2.17 -2.35,7.8 1.42,8.79 3.41,1 6.5,-2.57 5.63,-5.83 -0.4,-3.2 -4.49,-4.89 -7.05,-2.96 m 8.94,-1.1 c -0.23,3.27 -0.19,6.55 -0.15,9.82 0.48,-0.01 1.44,-0.03 1.92,-0.04 0,-2.03 -0.01,-4.06 0,-6.09 1.65,2.36 2.73,5.45 5.59,6.63 0.25,-3.26 0.22,-6.53 0.19,-9.79 -0.46,-0.01 -1.36,-0.01 -1.82,-0.02 0.01,2.08 0.01,4.15 0.03,6.22 -1.7,-2.4 -2.77,-5.61 -5.76,-6.73 m 9.74,0.52 c -0.02,3.09 -0.03,6.18 -0.01,9.27 2.27,0 4.54,0 6.81,0 0,-0.44 0,-1.33 0.01,-1.77 -1.66,-0.02 -3.31,-0.02 -4.95,-0.03 -0.01,-0.53 -0.03,-1.58 -0.03,-2.1 1.54,-0.03 3.08,-0.06 4.62,-0.08 l -0.07,-1.62 c -1.52,-0.01 -3.04,-0.02 -4.56,-0.04 0.02,-0.46 0.04,-1.4 0.05,-1.86 1.61,-0.02 3.22,-0.02 4.83,-0.03 0.01,-0.43 0.04,-1.3 0.05,-1.73 -2.25,-0.01 -4.5,-0.01 -6.75,-0.01 z"
       id="path2"
       inkscape:connector-curvature="0"
       style="opacity:1;fill:#020f6f" />
    <path
       d="m 94.44,103.42 c 3.79,-0.96 4.28,6.45 0.52,6.1 -3.06,0.07 -3.33,-5.35 -0.52,-6.1 z"
       id="path4"
       inkscape:connector-curvature="0"
       style="opacity:1;fill:#020f6f" />
    <path
       d="m 56.97,104 c 0.95,-1.29 3.78,-0.06 2.66,1.51 -0.98,1.21 -3.84,0.08 -2.66,-1.51 z"
       id="path6"
       inkscape:connector-curvature="0"
       style="opacity:1;fill:#020f6f" />
    <path
       d="m 74.22,106.56 c 0.07,-0.92 0.22,-2.74 0.29,-3.65 1.38,0.53 2.66,1.24 3.84,2.14 -1.34,0.61 -2.73,1.07 -4.13,1.51 z"
       id="path8"
       inkscape:connector-curvature="0"
       style="opacity:1;fill:#020f6f" />
    <path
       d="m 48,105.47 c 1.26,-1.36 3.36,0.81 1.94,2.02 -1.28,1.32 -3.35,-0.8 -1.94,-2.02 z"
       id="path10"
       inkscape:connector-curvature="0"
       style="opacity:1;fill:#020f6f" />
  </g>
  <g
     id="#ffffffff"
     transform="translate(2,2)">
    <path
       d="m 24.72,44.77 c 4.68,0 9.36,0 14.04,0 -0.01,11.24 0.02,22.49 -0.01,33.73 6.7,0 13.39,-0.01 20.09,0.01 -0.04,3.91 -0.04,7.82 -0.02,11.72 -11.37,0.01 -22.74,0 -34.1,0.01 0,-15.16 0,-30.31 0,-45.47 z"
       id="path13"
       inkscape:connector-curvature="0"
       style="opacity:1;fill:#ffffff" />
    <path
       d="m 48.31,44.77 c 5.18,0 10.36,-0.01 15.53,0.01 2.48,5.56 4.96,11.12 7.57,16.63 2.82,-5.47 4.92,-11.33 8.13,-16.57 5.04,-0.19 10.08,-0.02 15.12,-0.07 -5.02,8.64 -9.86,17.39 -14.86,26.04 -0.7,1.3 -1.61,2.61 -1.49,4.16 -0.07,5.09 0.02,10.18 -0.01,15.27 -4.66,-0.01 -9.33,0 -13.99,-0.01 C 64.24,84.7 64.49,79.17 64.21,73.66 59.23,63.87 53.58,54.41 48.31,44.77 Z"
       id="path15"
       inkscape:connector-curvature="0"
       style="opacity:1;fill:#ffffff" />
    <path
       d="m 96.23,44.77 c 11.71,0 23.42,0 35.13,0 0,3.89 -0.01,7.78 0.01,11.68 -7.03,-0.02 -14.07,-0.01 -21.1,-0.01 0.01,1.91 0.03,3.81 0.04,5.72 6.03,-0.01 12.05,-0.01 18.07,-0.01 0,3.57 0,7.13 0.01,10.7 -6.03,0 -12.06,0 -18.08,0 -0.01,5.79 -0.01,11.59 -0.01,17.39 -4.69,0 -9.38,-0.01 -14.07,0 0.01,-15.16 0.02,-30.31 0,-45.47 z"
       id="path17"
       inkscape:connector-curvature="0"
       style="opacity:1;fill:#ffffff" />
    <path
       d="m 124.85,97.18 c 0.48,0.01 1.45,0.02 1.93,0.03 -0.01,1.52 -0.02,3.04 -0.03,4.56 1.73,0.02 3.46,0.06 5.19,0.13 -0.59,2.61 -3.43,1.46 -5.21,1.89 0.02,1.49 0.04,2.97 0.06,4.46 -0.49,0.01 -1.47,0.01 -1.95,0.01 0.01,-1.53 0.03,-3.06 0.04,-4.59 -1.55,-0.01 -3.11,-0.02 -4.67,-0.03 -0.01,-0.46 -0.04,-1.37 -0.06,-1.83 1.57,-0.02 3.14,-0.02 4.72,-0.03 -0.01,-1.53 -0.02,-3.07 -0.02,-4.6 z"
       id="path19"
       inkscape:connector-curvature="0"
       style="opacity:1;fill:#ffffff" />
    <path
       d="m 24.53,105.03 c -0.19,-4.59 7.08,-4.26 7.89,-0.16 -2.11,-0.54 -4.45,-2.44 -6.41,-0.55 1.89,1.05 4.31,1.31 5.85,2.86 1.69,5.3 -8.26,5.6 -7.7,0.24 1.36,0.79 2.7,1.62 4.02,2.49 0.8,-0.58 1.63,-1.13 2.49,-1.6 -2.02,-1.06 -4.85,-1.19 -6.14,-3.28 z"
       id="path21"
       inkscape:connector-curvature="0"
       style="opacity:1;fill:#ffffff" />
    <path
       d="m 33.52,111.12 c -0.01,-3.2 -0.04,-6.4 0.03,-9.6 3.93,-0.4 3.77,4.07 5.02,6.59 1.1,-2.56 0.89,-6.96 4.81,-6.59 0.06,3.2 0.05,6.41 0,9.61 l -1.84,0.02 c -0.01,-2.11 -0.05,-4.22 -0.1,-6.33 -0.89,2.35 -1.69,4.72 -2.64,7.04 -1.69,-2.08 -2.44,-4.68 -3.35,-7.15 -0.04,2.14 -0.06,4.29 -0.07,6.44 -0.46,0 -1.4,-0.02 -1.86,-0.03 z"
       id="path23"
       inkscape:connector-curvature="0"
       style="opacity:1;fill:#ffffff" />
    <path
       d="m 44.45,111.64 c 1.16,-3.68 2.29,-7.46 4.55,-10.64 2.28,3.2 3.47,7.01 4.45,10.78 -1.35,-0.75 -2.51,-1.73 -3.49,-2.91 -2.12,0.28 -3.78,1.64 -5.51,2.77 M 48,105.47 c -1.41,1.22 0.66,3.34 1.94,2.02 1.42,-1.21 -0.68,-3.38 -1.94,-2.02 z"
       id="path25"
       inkscape:connector-curvature="0"
       style="opacity:1;fill:#ffffff" />
    <path
       d="m 54.61,101.8 c 2.3,0.17 4.78,-0.3 6.93,0.75 0.6,2.96 -0.01,6.18 0.71,9.21 -1.82,-0.64 -2.21,-2.41 -2.61,-4.07 -0.76,-0.08 -2.29,-0.24 -3.05,-0.32 -0.01,0.94 -0.04,2.83 -0.05,3.77 -0.48,0 -1.43,0 -1.9,-0.01 -0.05,-3.11 -0.05,-6.22 -0.03,-9.33 m 2.36,2.2 c -1.18,1.59 1.68,2.72 2.66,1.51 1.12,-1.57 -1.71,-2.8 -2.66,-1.51 z"
       id="path27"
       inkscape:connector-curvature="0"
       style="opacity:1;fill:#ffffff" />
    <path
       d="m 63.34,103.55 c 0.02,-0.42 0.06,-1.26 0.08,-1.69 2.46,0 4.92,0 7.39,0 0.04,0.42 0.12,1.25 0.16,1.67 -0.7,0.03 -2.1,0.09 -2.79,0.12 0.03,2.49 0.04,4.99 0.04,7.48 -0.51,0.01 -1.51,0.01 -2.02,0.01 -0.01,-2.5 -0.01,-5 -0.01,-7.5 -0.71,-0.02 -2.14,-0.07 -2.85,-0.09 z"
       id="path29"
       inkscape:connector-curvature="0"
       style="opacity:1;fill:#ffffff" />
    <path
       d="m 72.34,101.78 c 2.53,0.23 7.38,-0.73 7.19,3.16 0.21,2.96 -3.29,2.78 -5.3,3.06 0.01,0.78 0.02,2.35 0.03,3.13 -0.48,0 -1.45,0.01 -1.93,0.02 -0.02,-3.13 -0.02,-6.25 0.01,-9.37 m 1.88,4.78 c 1.4,-0.44 2.79,-0.9 4.13,-1.51 -1.18,-0.9 -2.46,-1.61 -3.84,-2.14 -0.07,0.91 -0.22,2.73 -0.29,3.65 z"
       id="path31"
       inkscape:connector-curvature="0"
       style="opacity:1;fill:#ffffff" />
    <path
       d="m 81.17,101.85 c 0.51,0.01 1.53,0.03 2.03,0.04 -0.01,1.16 -0.03,2.33 -0.04,3.5 1.22,0 2.44,0 3.66,0 -0.01,-1.18 -0.02,-2.35 -0.03,-3.52 0.51,0 1.53,-0.01 2.04,-0.01 0.01,3.09 0.01,6.18 0,9.27 -0.51,0 -1.53,0 -2.04,0 0,-1.33 0,-2.66 0,-3.98 -1.21,0 -2.41,0.01 -3.61,0.01 0,1.32 0.01,2.64 0.02,3.96 -0.51,0.01 -1.53,0.02 -2.03,0.03 -0.02,-3.1 -0.01,-6.2 0,-9.3 z"
       id="path33"
       inkscape:connector-curvature="0"
       style="opacity:1;fill:#ffffff" />
    <path
       d="m 92.43,102.44 c 2.56,-1.93 6.65,-0.24 7.05,2.96 0.87,3.26 -2.22,6.83 -5.63,5.83 -3.77,-0.99 -4.53,-6.62 -1.42,-8.79 m 2.01,0.98 c -2.81,0.75 -2.54,6.17 0.52,6.1 3.76,0.35 3.27,-7.06 -0.52,-6.1 z"
       id="path35"
       inkscape:connector-curvature="0"
       style="opacity:1;fill:#ffffff" />
    <path
       d="m 101.37,101.34 c 2.99,1.12 4.06,4.33 5.76,6.73 -0.02,-2.07 -0.02,-4.14 -0.03,-6.22 0.46,0.01 1.36,0.01 1.82,0.02 0.03,3.26 0.06,6.53 -0.19,9.79 -2.86,-1.18 -3.94,-4.27 -5.59,-6.63 -0.01,2.03 0,4.06 0,6.09 -0.48,0.01 -1.44,0.03 -1.92,0.04 -0.04,-3.27 -0.08,-6.55 0.15,-9.82 z"
       id="path37"
       inkscape:connector-curvature="0"
       style="opacity:1;fill:#ffffff" />
    <path
       d="m 111.11,101.86 c 2.25,0 4.5,0 6.75,0.01 -0.01,0.43 -0.04,1.3 -0.05,1.73 -1.61,0.01 -3.22,0.01 -4.83,0.03 -0.01,0.46 -0.03,1.4 -0.05,1.86 1.52,0.02 3.04,0.03 4.56,0.04 l 0.07,1.62 c -1.54,0.02 -3.08,0.05 -4.62,0.08 0,0.52 0.02,1.57 0.03,2.1 1.64,0.01 3.29,0.01 4.95,0.03 -0.01,0.44 -0.01,1.33 -0.01,1.77 -2.27,0 -4.54,0 -6.81,0 -0.02,-3.09 -0.01,-6.18 0.01,-9.27 z"
       id="path39"
       inkscape:connector-curvature="0"
       style="opacity:1;fill:#ffffff" />
  </g>
</svg>
