<?xml version="1.0" encoding="UTF-8" standalone="no"?>
<!-- Generator: Adobe Illustrator 14.0.0, SVG Export Plug-In . SVG Version: 6.00 Build 43363)  -->

<svg
   xmlns:dc="http://purl.org/dc/elements/1.1/"
   xmlns:cc="http://creativecommons.org/ns#"
   xmlns:rdf="http://www.w3.org/1999/02/22-rdf-syntax-ns#"
   xmlns:svg="http://www.w3.org/2000/svg"
   xmlns="http://www.w3.org/2000/svg"
   xmlns:sodipodi="http://sodipodi.sourceforge.net/DTD/sodipodi-0.dtd"
   xmlns:inkscape="http://www.inkscape.org/namespaces/inkscape"
   version="1.1"
   id="Layer_1"
   x="0px"
   y="0px"
   width="44.954998"
   height="44.954998"
   viewBox="0 0 44.954998 44.954998"
   xml:space="preserve"
   inkscape:version="0.48.2 r9819"
   sodipodi:docname="M BLUE.svg"><metadata
   id="metadata29"><rdf:RDF><cc:Work
       rdf:about=""><dc:format>image/svg+xml</dc:format><dc:type
         rdf:resource="http://purl.org/dc/dcmitype/StillImage" /><dc:title /></cc:Work></rdf:RDF></metadata><defs
   id="defs27"><inkscape:perspective
   sodipodi:type="inkscape:persp3d"
   inkscape:vp_x="0 : 27 : 1"
   inkscape:vp_y="0 : 1000 : 0"
   inkscape:vp_z="250 : 27 : 1"
   inkscape:persp3d-origin="125 : 18 : 1"
   id="perspective31" />
	
	
	
	
	
	
	
	
	
	
</defs><sodipodi:namedview
   pagecolor="#ffffff"
   bordercolor="#666666"
   borderopacity="1"
   objecttolerance="10"
   gridtolerance="10"
   guidetolerance="10"
   inkscape:pageopacity="0"
   inkscape:pageshadow="2"
   inkscape:window-width="1600"
   inkscape:window-height="837"
   id="namedview25"
   showgrid="false"
   inkscape:zoom="12.218805"
   inkscape:cx="41.164469"
   inkscape:cy="20.143072"
   inkscape:window-x="-8"
   inkscape:window-y="-8"
   inkscape:window-maximized="1"
   inkscape:current-layer="Layer_1"
   fit-margin-top="0"
   fit-margin-left="0"
   fit-margin-right="0"
   fit-margin-bottom="0" />
<path
   inkscape:connector-curvature="0"
   id="path7"
   d="m 22.474,0 c 12.579,0 22.481,10.134 22.481,22.477 0,12.416 -10.067,22.478 -22.481,22.478 C 10.062,44.956 -4.5097179e-7,34.893 -4.5097179e-7,22.478 -4.5097179e-7,10.061 10.062,0 22.474,0 M 22.424,27.191 16.137,6.329 7.9959995,33.039 h 1.527 c 0,0 1.0270005,-4.646 2.6970005,-7.421 0.909,-1.507 2.31,-2.739 4.183,-2.705 1.319,0.026 2.462,0.747 3.889,2.743 0.858,1.195 2.179,4.244 2.179,4.244 0,0 1.322,-3.045 2.183,-4.244 1.423,-1.996 2.566,-2.717 3.889,-2.743 1.871,-0.034 3.275,1.198 4.18,2.708 1.671,2.771 2.697,7.418 2.697,7.418 h 1.531 l -8.146,-26.71 -6.286,20.862 -0.045,0.037 -0.05,-0.037 z"
   style="fill:#005daa" />
</svg>