<?xml version="1.0" encoding="UTF-8" standalone="no"?>
<svg
   xmlns:dc="http://purl.org/dc/elements/1.1/"
   xmlns:cc="http://creativecommons.org/ns#"
   xmlns:rdf="http://www.w3.org/1999/02/22-rdf-syntax-ns#"
   xmlns:svg="http://www.w3.org/2000/svg"
   xmlns="http://www.w3.org/2000/svg"
   height="35"
   width="35"
   data-lt-installed="true"
   xml:space="preserve"
   viewBox="0 0 35 35"
   y="0px"
   x="0px"
   id="Layer_1"
   version="1.1"><metadata
   id="metadata24"><rdf:RDF><cc:Work
       rdf:about=""><dc:format>image/svg+xml</dc:format><dc:type
         rdf:resource="http://purl.org/dc/dcmitype/StillImage" /><dc:title></dc:title></cc:Work></rdf:RDF></metadata><defs
   id="defs22" />
<style
   id="style2"
   type="text/css">
	.st0{fill:#E30613;}
	.st1{fill:#FFFFFF;}
</style>



<g
   id="XMLID_1_">
	<g
   id="g14">
		<path
   style="fill:#e30613"
   id="path10"
   d="m 35,3.5 v 28 C 35,33.4 33.4,35 31.5,35 H 3.5 C 1.6,35 0,33.4 0,31.5 V 3.5 C 0,1.6 1.6,0 3.5,0 h 28 C 33.4,0 35,1.6 35,3.5 Z M 17.5,30.4 C 24,30.4 27,25.2 27,20 27,12.7 22,4.5 17.5,4.5 13.1,4.5 8,12.8 8,20.1 c 0,5.1 2.9,10.3 9.5,10.3 z"
   class="st0" />
		<path
   style="fill:#ffffff"
   id="path12"
   d="M 27,20 C 27,25.2 24,30.4 17.5,30.4 10.9,30.4 8,25.2 8,20.1 8,12.8 13.1,4.5 17.5,4.5 22,4.5 27,12.7 27,20 Z"
   class="st1" />
	</g>
	<g
   id="g16">
	</g>
</g>
</svg>