<?xml version="1.0" encoding="UTF-8" standalone="no"?>
<svg
   xmlns:dc="http://purl.org/dc/elements/1.1/"
   xmlns:cc="http://creativecommons.org/ns#"
   xmlns:rdf="http://www.w3.org/1999/02/22-rdf-syntax-ns#"
   xmlns:svg="http://www.w3.org/2000/svg"
   xmlns="http://www.w3.org/2000/svg"
   xmlns:sodipodi="http://sodipodi.sourceforge.net/DTD/sodipodi-0.dtd"
   xmlns:inkscape="http://www.inkscape.org/namespaces/inkscape"
   version="1.1"
   width="375.03152"
   height="374.53317"
   id="svg52"
   sodipodi:docname="Nintendo_64_Logo.svg"
   inkscape:version="0.92.1 r15371">
  <metadata
     id="metadata58">
    <rdf:RDF>
      <cc:Work
         rdf:about="">
        <dc:format>image/svg+xml</dc:format>
        <dc:type
           rdf:resource="http://purl.org/dc/dcmitype/StillImage" />
        <dc:title></dc:title>
      </cc:Work>
    </rdf:RDF>
  </metadata>
  <defs
     id="defs56" />
  <sodipodi:namedview
     pagecolor="#ffffff"
     bordercolor="#666666"
     borderopacity="1"
     objecttolerance="10"
     gridtolerance="10"
     guidetolerance="10"
     inkscape:pageopacity="0"
     inkscape:pageshadow="2"
     inkscape:window-width="1920"
     inkscape:window-height="1051"
     id="namedview54"
     showgrid="false"
     fit-margin-top="0"
     fit-margin-left="0"
     fit-margin-right="0"
     fit-margin-bottom="0"
     inkscape:zoom="0.50942874"
     inkscape:cx="206.79844"
     inkscape:cy="231.61294"
     inkscape:window-x="0"
     inkscape:window-y="0"
     inkscape:window-maximized="1"
     inkscape:current-layer="svg52" />
  <g
     id="g4571"
     transform="translate(-49.090507,-88.711779)">
    <path
       style="fill:#0222a9;stroke-width:2.49190378"
       d="m 278.09648,205.83126 10.96437,-12.45952 v -84.22635 l -52.32998,20.18442 v 0 l -43.35913,77.24902 43.35913,-16.69575 z"
       id="path2"
       inkscape:connector-curvature="0" />
    <path
       style="fill:#011da9;stroke-width:2.49190378"
       d="M 371.04449,323.19994 V 181.16141 l 53.07755,-20.43361 v 223.52378 l -53.07755,22.42714 v 0 L 293.0479,304.75985 v 134.812 l -56.31703,23.67309 V 232.99301 l 56.31703,-21.43037 z"
       id="path4"
       inkscape:connector-curvature="0" />
    <path
       style="fill:#0222a9;stroke-width:2.49190378"
       d="M 152.25533,384.50077 102.41725,287.8149 v 118.86382 0 z"
       id="path6"
       inkscape:connector-curvature="0" />
    <path
       style="fill:#069330;stroke-width:2.49190378"
       d="m 155.4948,160.7278 v 0 l 24.91904,50.83484 12.9579,-4.98381 43.35913,-77.24902 -52.32998,-20.43361 z"
       id="path8"
       inkscape:connector-curvature="0" />
    <path
       style="fill:#069330;stroke-width:2.49190378"
       d="m 278.09648,205.83126 v 0 l 39.87046,-45.10346 53.07755,20.43361 V 323.19994 L 293.0479,211.56264 Z"
       id="path10"
       inkscape:connector-curvature="0" />
    <path
       style="fill:#069330;stroke-width:2.49190378"
       d="M 236.73087,463.24494 V 232.99301 L 180.41384,211.56264 V 328.43293 L 102.16806,181.16141 v 0 L 49.090507,160.7278 v 223.52378 l 53.077553,22.42714 V 287.8149 l 78.24578,151.75695 z"
       id="path12"
       inkscape:connector-curvature="0" />
    <path
       style="fill:#fe2015;stroke-width:2.49190378"
       d="m 102.41725,181.16141 53.07755,-20.43361 24.91904,50.83484 v 0 116.87029 z"
       id="path14"
       inkscape:connector-curvature="0" />
    <path
       style="fill:#fe2015;stroke-width:2.49190378"
       d="m 293.0479,360.3293 15.94818,22.42714 62.04841,23.92228 v 0 L 293.0479,304.75985 Z"
       id="path16"
       inkscape:connector-curvature="0" />
    <path
       style="fill:#ffc001;stroke-width:2.49190378"
       d="m 180.66303,211.56264 56.31703,-21.43037 56.31703,21.43037 v 0 l -56.31703,21.43037 z"
       id="path18"
       inkscape:connector-curvature="0" />
    <path
       style="fill:#ffc001;stroke-width:2.49190378"
       d="m 371.04449,140.29419 53.07755,20.43361 -53.07755,20.43361 -53.07755,-20.43361 v 0 z"
       id="path20"
       inkscape:connector-curvature="0" />
    <path
       style="fill:#ffc001;stroke-width:2.49190378"
       d="M 102.41725,140.29419 155.4948,160.7278 102.41725,181.16141 49.339697,160.7278 v 0 z"
       id="path22"
       inkscape:connector-curvature="0" />
    <path
       style="fill:#ffc001;stroke-width:2.49190378"
       d="m 236.73087,88.711779 -52.32998,20.184421 52.32998,20.43361 52.32998,-20.18442 v 0 z"
       id="path24"
       inkscape:connector-curvature="0" />
  </g>
</svg>
