<?xml version="1.0" encoding="UTF-8" standalone="no"?>
<!-- Created with Inkscape (http://www.inkscape.org/) -->

<svg
   xmlns:dc="http://purl.org/dc/elements/1.1/"
   xmlns:cc="http://creativecommons.org/ns#"
   xmlns:rdf="http://www.w3.org/1999/02/22-rdf-syntax-ns#"
   xmlns:svg="http://www.w3.org/2000/svg"
   xmlns="http://www.w3.org/2000/svg"
   xmlns:sodipodi="http://sodipodi.sourceforge.net/DTD/sodipodi-0.dtd"
   xmlns:inkscape="http://www.inkscape.org/namespaces/inkscape"
   version="1.1"
   id="svg2"
   xml:space="preserve"
   width="623.87531"
   height="412.83331"
   viewBox="0 0 623.8753 412.83331"
   sodipodi:docname="Nvidia.svg"
   inkscape:version="0.92.1 r15371"><metadata
     id="metadata8"><rdf:RDF><cc:Work
         rdf:about=""><dc:format>image/svg+xml</dc:format><dc:type
           rdf:resource="http://purl.org/dc/dcmitype/StillImage" /><dc:title></dc:title></cc:Work></rdf:RDF></metadata><defs
     id="defs6"><clipPath
       clipPathUnits="userSpaceOnUse"
       id="clipPath20"><path
         d="M 0,1 V 4851 H 6497 V 1 Z"
         id="path18"
         inkscape:connector-curvature="0" /></clipPath></defs><sodipodi:namedview
     pagecolor="#ffffff"
     bordercolor="#666666"
     borderopacity="1"
     objecttolerance="10"
     gridtolerance="10"
     guidetolerance="10"
     inkscape:pageopacity="0"
     inkscape:pageshadow="2"
     inkscape:window-width="1920"
     inkscape:window-height="1051"
     id="namedview4"
     showgrid="false"
     fit-margin-top="0"
     fit-margin-left="0"
     fit-margin-right="0"
     fit-margin-bottom="0"
     inkscape:zoom="0.36485064"
     inkscape:cx="277.6293"
     inkscape:cy="89.411992"
     inkscape:window-x="0"
     inkscape:window-y="0"
     inkscape:window-maximized="1"
     inkscape:current-layer="g14" /><g
     id="g10"
     inkscape:groupmode="layer"
     inkscape:label="ink_ext_XXXXXX"
     transform="matrix(1.3333333,0,0,-1.3333333,-54.125999,646.84132)"><g
       id="g12"
       transform="scale(0.1)"><g
         id="g14"><path
           inkscape:connector-curvature="0"
           id="path26"
           style="fill:#74c233;fill-opacity:1;fill-rule:nonzero;stroke:none"
           d="m 2151.77,3927.42 v 279.69 c 27.14,1.92 54.57,3.37 82.53,4.25 764.93,24.04 1266.78,-657.27 1266.78,-657.27 0,0 -542.02,-752.83 -1123.17,-752.83 -83.71,0 -158.61,13.49 -226.14,36.16 v 848.1 c 297.79,-35.97 357.66,-167.52 536.74,-465.94 l 398.18,335.72 c 0,0 -290.65,381.22 -780.63,381.22 -53.32,0 -104.27,-3.76 -154.29,-9.1 m 0,923.89 v -417.76 c 27.45,2.17 54.94,3.91 82.53,4.91 1063.75,35.84 1756.78,-872.4 1756.78,-872.4 0,0 -796.04,-967.97 -1625.32,-967.97 -75.99,0 -147.14,7.01 -213.99,18.85 v -258.23 c 57.18,-7.27 116.39,-11.55 178.2,-11.55 771.75,0 1329.86,394.09 1870.3,860.57 89.53,-71.75 456.39,-246.28 531.82,-322.77 C 4218.21,2454.8 3020.72,2108.1 2341.84,2108.1 c -65.42,0 -128.34,3.94 -190.07,9.88 v -362.92 h 2933.24 v 3096.25 z m 0,-2013.89 v -220.48 c -713.79,127.26 -911.9,869.24 -911.9,869.24 0,0 342.7,379.71 911.9,441.24 v -241.9 c -0.44,0 -0.73,0.11 -1.12,0.11 -298.67,35.88 -532.05,-243.21 -532.05,-243.21 0,0 130.75,-469.79 533.17,-605 M 884.008,3518.33 c 0,0 423.042,624.24 1267.762,688.78 v 226.44 C 1216.16,4358.46 405.945,3566.06 405.945,3566.06 c 0,0 458.86,-1326.63 1745.825,-1448.08 v 240.73 C 1207.37,2477.53 884.008,3518.33 884.008,3518.33" /></g></g></g></svg>