<?xml version="1.0" encoding="UTF-8" standalone="no"?>
<!-- Created with Inkscape (http://www.inkscape.org/) -->

<svg
   xmlns:dc="http://purl.org/dc/elements/1.1/"
   xmlns:cc="http://creativecommons.org/ns#"
   xmlns:rdf="http://www.w3.org/1999/02/22-rdf-syntax-ns#"
   xmlns:svg="http://www.w3.org/2000/svg"
   xmlns="http://www.w3.org/2000/svg"
   xmlns:sodipodi="http://sodipodi.sourceforge.net/DTD/sodipodi-0.dtd"
   xmlns:inkscape="http://www.inkscape.org/namespaces/inkscape"
   id="svg2383"
   sodipodi:version="0.32"
   inkscape:version="0.92.1 r15371"
   width="596.26282"
   height="595.73334"
   version="1.0"
   sodipodi:docname="Polaroid.svg"
   inkscape:output_extension="org.inkscape.output.svg.inkscape">
  <metadata
     id="metadata2388">
    <rdf:RDF>
      <cc:Work
         rdf:about="">
        <dc:format>image/svg+xml</dc:format>
        <dc:type
           rdf:resource="http://purl.org/dc/dcmitype/StillImage" />
        <dc:title></dc:title>
      </cc:Work>
    </rdf:RDF>
  </metadata>
  <defs
     id="defs2386">
    <inkscape:perspective
       sodipodi:type="inkscape:persp3d"
       inkscape:vp_x="0 : 561.25983 : 1"
       inkscape:vp_y="0 : 1066.6667 : 0"
       inkscape:vp_z="793.70078 : 561.25983 : 1"
       inkscape:persp3d-origin="396.85039 : 374.17322 : 1"
       id="perspective2390" />
  </defs>
  <sodipodi:namedview
     inkscape:window-height="1051"
     inkscape:window-width="1920"
     inkscape:pageshadow="2"
     inkscape:pageopacity="0.0"
     guidetolerance="10.0"
     gridtolerance="10.0"
     objecttolerance="10.0"
     borderopacity="1.0"
     bordercolor="#666666"
     pagecolor="#ffffff"
     id="base"
     showgrid="false"
     inkscape:zoom="0.18572892"
     inkscape:cx="466.41655"
     inkscape:cy="277.76669"
     inkscape:window-x="0"
     inkscape:window-y="0"
     inkscape:current-layer="svg2383"
     fit-margin-top="0"
     fit-margin-left="0"
     fit-margin-right="0"
     fit-margin-bottom="0"
     inkscape:window-maximized="1" />
  <path
     id="path2414"
     d="M 148.79761,446.93286 0,298.13238 149.06571,149.06667 298.13142,9.54e-4 447.19713,149.06667 596.26284,298.13238 447.46523,446.93286 c -81.83868,81.84026 -149.0389,148.80048 -149.33381,148.80048 -0.29491,0 -67.49513,-66.96022 -149.33381,-148.80048 z"
     style="fill:#fdc509;stroke-width:1.06666672"
     sodipodi:nodetypes="cccccccsc"
     inkscape:connector-curvature="0" />
  <path
     id="path2412"
     d="M 148.79761,446.93286 0,298.13238 149.06571,149.06667 298.13142,9.54e-4 447.19713,149.06667 596.26284,298.13238 447.46523,446.93286 c -81.83868,81.84026 -149.0389,148.80048 -149.33381,148.80048 -0.29491,0 -67.49513,-66.96022 -149.33381,-148.80048 z m 0.53526,-99.73431 49.05942,-49.06813 -49.33043,-49.33043 -49.330437,-49.33044 -49.330438,49.33044 -49.330439,49.33043 49.059424,49.06813 c 26.982683,26.98747 49.303343,49.06812 49.601453,49.06812 0.298107,0 22.618767,-22.08065 49.601447,-49.06812 z"
     style="fill:#a2cd55;stroke-width:1.06666672"
     sodipodi:nodetypes="cccccccsccccccccsc"
     inkscape:connector-curvature="0" />
  <path
     id="path2410"
     d="m 246.39392,544.34061 c -28.15771,-28.266 -50.32272,-50.73975 -49.2556,-49.94167 1.76925,1.32318 6.28096,-2.88969 51.1971,-47.80583 l 49.25687,-49.25686 -48.79709,-48.80576 c -26.83841,-26.84317 -48.79711,-49.43215 -48.79711,-50.19774 0,-0.76559 -0.38953,-1.15124 -0.8656,-0.85701 -0.47609,0.29424 -23.00628,-21.63743 -50.06708,-48.73705 L 99.863943,199.46667 198.93044,99.733337 297.99692,0 447.12988,149.06619 596.26284,298.13238 447.46523,446.93286 c -81.83868,81.84026 -149.04012,148.80048 -149.33654,148.80048 -0.29642,0 -23.57706,-23.12673 -51.73477,-51.39273 z"
     style="fill:#979c8f;stroke-width:1.06666672"
     sodipodi:nodetypes="cscccsscccccccsc"
     inkscape:connector-curvature="0" />
  <path
     id="path2408"
     d="M 248.32459,545.33334 199.05971,496 297.59953,396.8 396.13933,297.6 346.87297,248.26663 297.6066,198.93325 247.99952,248.53191 198.39243,298.13056 149.14936,248.8875 99.906303,199.64443 198.18442,100.62221 C 252.23739,46.159996 296.95869,1.6 297.56508,1.6 c 0.6064,0 67.78093,66.679675 149.27673,148.17706 l 148.17418,148.17706 -73.90719,74.6247 c -65.33587,65.97014 -222.20768,222.08785 -223.16063,222.08785 -0.19728,0 -22.52789,-22.2 -49.62358,-49.33333 z"
     style="fill:#936bac;stroke-width:1.06666672"
     sodipodi:nodetypes="cccccccccccscccsc"
     inkscape:connector-curvature="0" />
  <path
     id="path2406"
     d="M 248.17236,545.24097 198.75524,495.81528 347.28951,347.28859 495.82379,198.7619 l 49.59611,49.5961 49.5961,49.5961 -73.9072,74.62471 c -65.33587,65.97015 -222.20768,222.08786 -223.16063,222.08786 -0.19728,0 -22.59639,-22.24157 -49.77581,-49.4257 z M 149.15111,248.88924 99.906303,199.64443 198.18442,100.62221 C 252.23739,46.159996 296.96,1.6 297.568,1.6 c 0.608,0 23.18235,22.080817 50.16523,49.068484 l 49.05979,49.068483 -99.19854,99.198543 -99.19855,99.19855 z"
     style="fill:#69bf7a;stroke-width:1.06666672"
     sodipodi:nodetypes="cccccccsccccsccccc"
     inkscape:connector-curvature="0" />
  <path
     id="path2404"
     d="m 347.46036,447.19565 c -26.54425,-26.54905 -48.26227,-48.99003 -48.26227,-49.86882 0,-0.87881 44.28145,-45.87733 98.40322,-99.99674 l 98.40323,-98.39891 49.59354,49.60215 49.59354,49.60215 -98.66127,98.66559 c -54.2637,54.26608 -99.14422,98.6656 -99.73449,98.6656 -0.59029,0 -22.79126,-21.72195 -49.3355,-48.27102 z M 149.15111,248.88924 99.906303,199.64443 198.18442,100.62221 C 252.23739,46.159996 296.96,1.6 297.568,1.6 c 0.608,0 23.18235,22.080817 50.16523,49.068484 l 49.05979,49.068483 -99.19854,99.198543 -99.19855,99.19855 z"
     style="fill:#ef594e;stroke-width:1.06666672"
     sodipodi:nodetypes="cscccccsccccsccccc"
     inkscape:connector-curvature="0" />
  <path
     id="path2402"
     d="m 347.46036,447.19565 c -26.54425,-26.54905 -48.26227,-48.99003 -48.26227,-49.86882 0,-0.87881 44.28145,-45.87733 98.40322,-99.99674 l 98.40323,-98.39891 49.59354,49.60215 49.59354,49.60215 -98.66127,98.66559 c -54.2637,54.26608 -99.14422,98.6656 -99.73449,98.6656 -0.59029,0 -22.79126,-21.72195 -49.3355,-48.27102 z m -198.39991,-198.3999 -49.329067,-49.33763 49.599937,-49.59135 49.59996,-49.59135 48.06583,47.99562 c 26.4362,26.39759 48.48608,48.74772 48.99971,49.66694 0.73156,1.30921 -9.74087,12.34422 -48.3367,50.93336 l -49.27059,49.26204 z"
     style="fill:#e7891b;stroke-width:1.06666672"
     sodipodi:nodetypes="cscccccsccccccsccc"
     inkscape:connector-curvature="0" />
  <path
     id="path2400"
     d="m 347.46036,447.19565 c -26.54425,-26.54905 -48.26227,-48.99003 -48.26227,-49.86882 0,-0.87881 44.28145,-45.87733 98.40322,-99.99674 l 98.40323,-98.39891 49.59354,49.60215 49.59354,49.60215 -98.66127,98.66559 c -54.2637,54.26608 -99.14422,98.6656 -99.73449,98.6656 -0.59029,0 -22.79126,-21.72195 -49.3355,-48.27102 z"
     style="fill:#0094d3;stroke-width:1.06666672"
     sodipodi:nodetypes="cscccccsc"
     inkscape:connector-curvature="0" />
  <path
     id="path2398"
     d="m 347.46036,447.19565 c -26.54425,-26.54905 -48.26227,-48.99101 -48.26227,-49.87101 0,-0.88 21.96193,-23.55804 48.8043,-50.39566 l 48.80429,-48.79564 49.59139,49.59998 49.59137,49.59997 -49.058,49.06669 c -26.9819,26.98668 -49.54193,49.06669 -50.1334,49.06669 -0.59147,0 -22.79344,-21.72195 -49.33768,-48.27102 z"
     style="fill:#01b4b2;stroke-width:1.06666672"
     sodipodi:nodetypes="cscccccsc"
     inkscape:connector-curvature="0" />
</svg>
