<svg xmlns="http://www.w3.org/2000/svg" viewBox="0 0 60 60">
    <path d="M35.71 43.22a14.18 14.18 0 0 1-12.06-.49 15.29 15.29 0 0 1-1.95-1.24l-.34-.25-.2-.17c-.29-.24-.57-.48-.84-.74-.1-.09-.19-.2-.29-.3a14.83 14.83 0 0 1-1.51-1.83l-.08-.13a14.87 14.87 0 0 1-1.31-2.39 14.23 14.23 0 0 1 4.19-16.61 13.93 13.93 0 0 1 3.33-2zm0 0zM60 30A30 30 0 1 1 30 0a30 30 0 0 1 30 30zM36.39 44.8l-.67-1.59a7.4 7.4 0 0 0 .8-.39 14.18 14.18 0 0 0 6.72-18.23 13.1 13.1 0 0 0-1-1.86 14.21 14.21 0 0 0-13-6.76h-.49c-.16 0-.58.08-.86.13s-.36 0-.53.08-.54.13-.8.2l-.59.15c-.27.09-.54.2-.81.3l-.55.2-5.85-13.78a29 29 0 1 0 22.67 53.41z"/>
</svg>

