<?xml version="1.0" encoding="UTF-8" standalone="no"?>
<!-- Created with Inkscape (http://www.inkscape.org/) -->
<svg xmlns:dc="http://purl.org/dc/elements/1.1/" xmlns:cc="http://creativecommons.org/ns#" xmlns:rdf="http://www.w3.org/1999/02/22-rdf-syntax-ns#" xmlns:svg="http://www.w3.org/2000/svg" xmlns="http://www.w3.org/2000/svg" xmlns:sodipodi="http://sodipodi.sourceforge.net/DTD/sodipodi-0.dtd" xmlns:inkscape="http://www.inkscape.org/namespaces/inkscape" width="78.707207mm" height="21.385412mm" viewBox="0 0 78.707207 21.385412" version="1.1" id="svg1575" inkscape:version="0.92.3 (2405546, 2018-03-11)" sodipodi:docname="Safaricom logo.svg"><script xmlns=""/>
  <defs id="defs1569"/>
  <sodipodi:namedview id="base" pagecolor="#ffffff" bordercolor="#666666" borderopacity="1.0" inkscape:pageopacity="0.0" inkscape:pageshadow="2" inkscape:zoom="0.98994949" inkscape:cx="132.30595" inkscape:cy="-71.735612" inkscape:document-units="mm" inkscape:current-layer="layer1" showgrid="false" fit-margin-top="0" fit-margin-left="0" fit-margin-right="0" fit-margin-bottom="0" inkscape:window-width="1920" inkscape:window-height="1001" inkscape:window-x="-9" inkscape:window-y="-9" inkscape:window-maximized="1"/>
  <metadata id="metadata1572">
    <rdf:RDF>
      <cc:Work rdf:about="">
        <dc:format>image/svg+xml</dc:format>
        <dc:type rdf:resource="http://purl.org/dc/dcmitype/StillImage"/>
        <dc:title/>
      </cc:Work>
    </rdf:RDF>
  </metadata>
  <g inkscape:label="Layer 1" inkscape:groupmode="layer" id="layer1" transform="translate(171.64502,-107.14648)">
    <path inkscape:connector-curvature="0" id="path570" style="fill:#ea1a2d;fill-opacity:1;fill-rule:nonzero;stroke:none;stroke-width:0.68822938" d="m -144.39279,108.02882 c -1.20922,-2.11837 -8.25049,-0.29181 -15.72672,4.08188 -7.47625,4.37301 -12.55676,9.63521 -11.34753,11.75428 1.04061,1.82106 6.38746,0.72402 12.61662,-2.39436 0.27804,-0.1549 0.25877,-0.48795 -0.10398,-0.36751 -3.83964,1.43221 -7.04128,1.52099 -7.87128,0 -1.10118,-2.01719 2.38816,-6.10252 7.79213,-9.12455 5.40466,-3.0227 10.67857,-3.83825 11.78043,-1.82105 0.50378,0.92429 0.0433,2.2808 -1.12182,3.77149 -0.004,0.006 -0.008,0.0137 -0.0156,0.022 -0.43083,0.54164 -0.11705,0.70476 0.1906,0.44185 2.98072,-2.67378 4.53336,-5.08877 3.80659,-6.36406"/>
    <path style="fill:#3fb33c;fill-opacity:1;fill-rule:nonzero;stroke:none;stroke-width:0.68822938" d="m -121.67912,112.30976 v 2.11409 h 2.31975 v -2.11409 z m -15.66461,0.20667 c -0.8706,0 -1.53543,0.25306 -1.99311,0.75409 -0.45629,0.50241 -0.68655,1.19795 -0.68655,2.08989 v 0.18147 c 0.0336,0.002 0,1.72494 0,1.72494 v 4.86735 h 2.32176 v -4.86735 h 1.26825 v -1.72595 h -1.26825 v -0.15626 c 0,-0.32898 0.0899,-0.57233 0.26817,-0.73192 0.18032,-0.16098 0.40658,-0.23994 0.6805,-0.23994 0.16037,0 0.36689,0.0303 0.61397,0.0907 v -1.80358 c -0.30627,-0.12096 -0.70852,-0.18348 -1.20474,-0.18348 z m -15.92673,0.2601 c -0.73711,0 -1.38963,0.12776 -1.96085,0.3831 -0.57399,0.25601 -1.01721,0.60967 -1.33378,1.0646 -0.31794,0.45422 -0.47484,0.96236 -0.47484,1.52533 0,0.49278 0.0959,0.91062 0.28732,1.25817 0.19339,0.3455 0.52883,0.64734 1.00714,0.90128 0.47971,0.25533 1.14992,0.46977 2.01227,0.6432 0.68273,0.14521 1.14953,0.29694 1.39729,0.4456 0.24854,0.15416 0.37201,0.3457 0.37201,0.57969 0,0.25878 -0.13677,0.4601 -0.40931,0.60388 -0.2739,0.14177 -0.66781,0.21474 -1.18054,0.21474 -0.5038,0 -1.00583,-0.077 -1.50618,-0.22785 -0.49966,-0.15211 -0.97254,-0.36931 -1.41645,-0.6563 l -0.75611,1.72696 c 0.41845,0.3104 0.96264,0.55692 1.62816,0.73796 0.66482,0.18163 1.34266,0.27321 2.02538,0.27321 1.25601,0 2.23095,-0.25746 2.92262,-0.77224 0.69166,-0.51343 1.03839,-1.22196 1.03839,-2.12215 0,-0.47557 -0.0979,-0.88386 -0.29539,-1.22591 -0.19614,-0.34067 -0.5323,-0.64021 -1.00512,-0.89625 -0.47418,-0.25394 -1.12719,-0.47288 -1.95581,-0.65529 -0.51273,-0.11218 -0.89726,-0.21687 -1.15534,-0.31656 -0.25396,-0.0984 -0.42923,-0.20185 -0.52424,-0.30446 -0.0936,-0.10529 -0.13912,-0.23389 -0.13912,-0.39015 0,-0.28425 0.13055,-0.51218 0.3962,-0.68151 0.26497,-0.16792 0.61585,-0.25204 1.0515,-0.25204 0.44461,0 0.88887,0.0748 1.33277,0.22482 0.44459,0.15347 0.86734,0.37238 1.26926,0.65731 l 0.742,-1.72595 c -0.34962,-0.30282 -0.83503,-0.54743 -1.45375,-0.73393 -0.61941,-0.18586 -1.25755,-0.27926 -1.91548,-0.27926 z m 45.18118,2.58288 c -0.72747,0 -1.36015,0.13832 -1.89834,0.41636 -0.5389,0.27736 -0.95431,0.67441 -1.24406,1.19264 -0.29177,0.5203 -0.43653,1.12849 -0.43653,1.82979 0,0.70062 0.14472,1.30949 0.43653,1.82979 0.28975,0.5196 0.70516,0.91767 1.24406,1.19365 0.53819,0.27796 1.17087,0.41535 1.89834,0.41535 0.71645,0 1.34279,-0.14023 1.87617,-0.42241 0.53544,-0.28011 0.94692,-0.67716 1.23599,-1.19264 0.29187,-0.51412 0.43652,-1.12312 0.43652,-1.82374 0,-0.7013 -0.14471,-1.3093 -0.43652,-1.82273 -0.28907,-0.51478 -0.70055,-0.91286 -1.23599,-1.19365 -0.53338,-0.28153 -1.15972,-0.42241 -1.87617,-0.42241 z m -37.73399,0.001 c -0.54646,0 -1.03859,0.14807 -1.47492,0.44056 -0.43633,0.29457 -0.7772,0.7051 -1.02428,1.23297 -0.24846,0.52857 -0.37402,1.13428 -0.37402,1.81769 0,0.67378 0.12438,1.2693 0.36595,1.78342 0.24431,0.5148 0.58429,0.91024 1.01924,1.1876 0.43566,0.27727 0.93193,0.41636 1.48803,0.41636 0.42599,0 0.82028,-0.0912 1.17953,-0.26817 0.35995,-0.17618 0.63348,-0.42183 0.81862,-0.73292 v 0.89523 h 2.28346 v -6.59127 h -2.28346 v 0.8418 c -0.19614,-0.31038 -0.47055,-0.55828 -0.82567,-0.74401 -0.35376,-0.18645 -0.74649,-0.27926 -1.17248,-0.27926 z m 12.9658,0 c -0.54647,0 -1.0369,0.14807 -1.47391,0.44056 -0.43498,0.29457 -0.77785,0.7051 -1.0263,1.23297 -0.2463,0.52857 -0.371,1.13428 -0.371,1.81769 0,0.67378 0.12233,1.2693 0.36596,1.78342 0.24501,0.5148 0.58427,0.91024 1.01924,1.1876 0.43633,0.27727 0.9313,0.41636 1.48601,0.41636 0.4267,0 0.82134,-0.0912 1.17852,-0.26817 0.36064,-0.17618 0.63378,-0.42183 0.82165,-0.73292 v 0.89523 h 2.28244 v -6.59127 h -2.28244 v 0.8418 c -0.19683,-0.31038 -0.47225,-0.55828 -0.82669,-0.74401 -0.35443,-0.18645 -0.74678,-0.27926 -1.17348,-0.27926 z m 18.21623,0 c -0.71782,0 -1.35089,0.14477 -1.89733,0.43452 -0.54715,0.28974 -0.97282,0.69834 -1.27631,1.22691 -0.30343,0.52581 -0.45267,1.13744 -0.45267,1.82979 0,1.04611 0.31172,1.87208 0.93456,2.47702 0.62422,0.60564 1.48532,0.90834 2.58993,0.90834 0.52787,0 1.02678,-0.0686 1.49408,-0.20767 0.46388,-0.13834 0.8382,-0.33182 1.12106,-0.58372 l -0.59178,-1.5959 c -0.22988,0.18996 -0.49595,0.34207 -0.79947,0.45367 -0.3035,0.11354 -0.59627,0.16937 -0.87709,0.16937 -0.48795,0 -0.86101,-0.14029 -1.11702,-0.4204 -0.25667,-0.28218 -0.38511,-0.6998 -0.38511,-1.25313 0,-0.5444 0.12839,-0.95697 0.38511,-1.23296 0.25601,-0.2767 0.62358,-0.41637 1.1019,-0.41637 0.28288,0 0.57783,0.0574 0.88616,0.17037 0.30627,0.11218 0.57564,0.26242 0.80552,0.45165 l 0.59178,-1.61908 c -0.27529,-0.24363 -0.64148,-0.43626 -1.10191,-0.57868 -0.4625,-0.14253 -0.93379,-0.21373 -1.41141,-0.21373 z m 15.432742,0 c -0.461112,0 -0.868452,0.0956 -1.222882,0.2843 -0.35512,0.18996 -0.63087,0.4628 -0.82769,0.81862 l -0.11493,-0.92145 h -2.17962 c 0.0696,0.55333 0.10081,1.1858 0.10081,1.8933 v 4.69797 h 2.32278 v -3.58094 c 0,-0.4439 0.087,-0.78234 0.26313,-1.02529 0.17413,-0.24165 0.42558,-0.36293 0.74905,-0.36293 0.264952,0 0.456519,0.0861 0.57767,0.26011 0.11842,0.17206 0.179452,0.45158 0.179452,0.8418 v 3.86725 h 2.319749 v -3.58094 c 0,-0.4439 0.08927,-0.78234 0.268167,-1.02529 0.18032,-0.24165 0.431592,-0.36293 0.757121,-0.36293 0.272539,0 0.466661,0.0861 0.583719,0.26011 0.116273,0.17206 0.173397,0.45158 0.173397,0.8418 v 3.86725 h 2.31975 v -3.93178 c 0,-0.9587 -0.181331,-1.67398 -0.545408,-2.1413 -0.364072,-0.46661 -0.921661,-0.69966 -1.672516,-0.69966 -0.44459,0 -0.857104,0.10784 -1.236996,0.32463 -0.378535,0.21612 -0.685854,0.50495 -0.916412,0.86902 -0.333112,-0.79421 -0.965799,-1.19365 -1.898341,-1.19365 z m -23.868922,0.0242 c -0.426,0 -0.80994,0.10989 -1.15131,0.32462 -0.34275,0.21749 -0.59025,0.52883 -0.743,0.93557 l -0.14215,-1.10393 h -2.17861 c 0.0675,0.55335 0.10081,1.18681 0.10081,1.89431 v 4.69899 h 2.32177 v -3.30875 c 0,-0.94425 0.48729,-1.41544 1.46182,-1.41544 0.34136,0 0.69437,0.0867 1.06258,0.2601 v -2.14231 c -0.17136,-0.0942 -0.41394,-0.14316 -0.73191,-0.14316 z m 1.3983,0.15727 v 6.59229 h 2.31975 v -6.59229 z m 13.58984,1.5838 c 0.41706,0 0.73175,0.13546 0.93959,0.40729 0.20988,0.27324 0.31657,0.69399 0.31657,1.26523 0,1.12525 -0.41927,1.68764 -1.25616,1.68764 -0.42947,0 -0.74941,-0.13576 -0.96278,-0.4083 -0.21331,-0.27254 -0.3216,-0.69985 -0.3216,-1.27934 0,-0.57124 0.10825,-0.99199 0.3216,-1.26523 0.21337,-0.27174 0.53331,-0.40729 0.96278,-0.40729 z m -37.0172,0.0111 c 0.41156,0 0.72707,0.1461 0.94867,0.43653 0.22238,0.28906 0.33269,0.70636 0.33269,1.25212 0,0.53683 -0.11038,0.94597 -0.33269,1.23297 -0.2216,0.28428 -0.53711,0.42644 -0.94867,0.42644 -0.41776,0 -0.73846,-0.14027 -0.96076,-0.42039 -0.22357,-0.28148 -0.3337,-0.687 -0.3337,-1.21281 0,-0.54646 0.11556,-0.96755 0.3468,-1.26623 0.23058,-0.29792 0.54642,-0.44863 0.94766,-0.44863 z m 12.96681,0 c 0.41156,0 0.72674,0.1461 0.94766,0.43653 0.22367,0.28906 0.33471,0.70636 0.33471,1.25212 0,0.53683 -0.11104,0.94597 -0.33471,1.23297 -0.22092,0.28428 -0.5361,0.42644 -0.94766,0.42644 -0.41845,0 -0.73884,-0.14027 -0.95976,-0.42039 -0.22357,-0.28148 -0.3337,-0.687 -0.3337,-1.21281 0,-0.54646 0.11593,-0.96755 0.3458,-1.26623 0.23056,-0.29792 0.54642,-0.44863 0.94766,-0.44863 z m 10.46055,6.90179 v 0.67647 h 1.39024 v 3.78559 h 0.74401 v -3.78559 h 1.39729 v -0.67647 z m 10.8134,1.04545 c -0.63591,0 -0.97502,0.14664 -1.44165,0.42745 l 0.29538,0.50912 c 0.3338,-0.22978 0.66759,-0.34378 0.989,-0.34378 0.52787,0 0.79946,0.25511 0.79946,0.68251 v 0.10183 h -1.01319 c -0.80593,0.007 -1.26523,0.40051 -1.26523,1.01924 0,0.59874 0.45319,1.0515 1.17651,1.0515 0.48521,0 0.86915,-0.14655 1.10796,-0.44662 v 0.41436 h 0.71175 l -0.006,-2.22297 c -0.006,-0.74606 -0.49159,-1.19264 -1.35394,-1.19264 z m 9.39594,0 c -0.99448,0.007 -1.69369,0.70081 -1.69369,1.72695 0,1.01997 0.67949,1.71487 1.71184,1.71487 0.57949,0 1.0576,-0.21025 1.3852,-0.57364 l -0.38411,-0.41435 c -0.24569,0.25457 -0.57919,0.39519 -0.94463,0.39519 -0.52926,0 -0.92485,-0.3248 -1.0384,-0.84785 h 2.531465 c 0.0881,-1.22367 -0.390795,-2.00117 -1.567675,-2.00117 z m 7.170965,0 c -0.636615,0 -0.975725,0.14664 -1.441653,0.42745 l 0.29539,0.50912 c 0.333793,-0.22978 0.668267,-0.34378 0.988991,-0.34378 0.528555,0 0.799463,0.25511 0.799463,0.68251 v 0.10183 h -1.013189 c -0.806612,0.007 -1.266237,0.40051 -1.266237,1.01924 0,0.59874 0.453183,1.0515 1.176511,1.0515 0.485186,0 0.869455,-0.14655 1.108964,-0.44662 v 0.41436 h 0.712762 l -0.0081,-2.22297 c -0.0055,-0.74606 -0.490586,-1.19264 -1.352934,-1.19264 z m -24.177425,0.0252 1.23398,3.39141 h 0.742 l 0.85088,-2.51231 0.84986,2.51231 h 0.74906 l 1.22187,-3.39141 h -0.73695 l -0.85592,2.66454 -0.85088,-2.66454 h -0.74804 l -0.84382,2.66454 -0.86903,-2.66454 z m 9.41914,0 1.23397,3.39141 h 0.742 l 0.85087,-2.51231 0.84988,2.51231 h 0.74905 l 1.22087,-3.39141 h -0.73595 l -0.85592,2.66454 -0.85088,-2.66454 h -0.74804 l -0.84483,2.66454 -0.86802,-2.66454 z m 9.735689,0 v 0.59884 h 1.857011 l -1.91347,2.29455 v 0.49702 l 2.864151,0.008 v -0.59884 l -1.970931,-0.008 1.914477,-2.29454 v -0.48996 z m -2.142319,0.56053 c 0.54715,0 0.90617,0.33228 0.93153,0.88011 h -1.91447 c 0.0764,-0.54164 0.45437,-0.88011 0.98294,-0.88011 z m -9.66612,1.32673 h 0.90632 v 0.31252 c -0.0379,0.3689 -0.43452,0.6432 -0.95068,0.6432 -0.40331,0 -0.64824,-0.19782 -0.64824,-0.50407 0,-0.32479 0.22046,-0.45165 0.6926,-0.45165 z m 16.5669,0 h 0.906326 v 0.31252 c -0.03787,0.3689 -0.433838,0.6432 -0.950686,0.6432 -0.402624,0 -0.64824,-0.19782 -0.64824,-0.50407 0,-0.32479 0.219781,-0.45165 0.6926,-0.45165 z" id="path574" inkscape:connector-curvature="0"/>
  </g>
</svg>