<?xml version="1.0" encoding="UTF-8"?>
<!-- Generator: Adobe Illustrator 19.0.0, SVG Export Plug-In . SVG Version: 6.00 Build 0)  -->
<svg version="1.1" id="Layer_1" xmlns="http://www.w3.org/2000/svg" xmlns:xlink="http://www.w3.org/1999/xlink" x="0px" y="0px" viewBox="0 0 269.3 23.8" style="enable-background:new 0 0 269.3 23.8;" xml:space="preserve"><script xmlns=""/>
<style type="text/css">
	.st0{fill-rule:evenodd;clip-rule:evenodd;fill:#EB6430;}
</style>
<g>
	<path id="XMLID_5_" class="st0" d="M102.7,0h4.7c7.8,0.3,11.6,5.5,14.3,11c0.6,1.3,1.1,2.6,1.9,4c0.6,1,1.6,2.9,2.5,3.3   c0.9,0.4,2.6,0.2,3-0.3c0.5-0.7,0.3-2.9,0.3-4.3V0.3h10.4v9.3c0,3.2,0.3,6.5,0,9.3c-0.3,2.3-2.2,3.3-4.3,4c-1.6,0.5-3.2,0.8-5,1   h-4.9c-2.9-0.3-5.6-0.9-7.7-2.1c-2.2-1.2-3.1-3.3-4.4-5.6c-1.6-3-3-5.5-5-8.2c-0.7-0.9-2.2-3.1-3.7-2.9c-1.8,0.2-1.3,3-1.3,5.1   c0,4.5,0.1,9.4-0.1,13.3c-3.4-0.1-7.1,0.1-10.3-0.1V14c0-3.4-0.4-6.9,0-9.5c0.1-1,1-2.1,1.7-2.5C96.6,0.7,99.7,0.3,102.7,0"/>
	<path id="XMLID_4_" class="st0" d="M269.3,23.2v0.3h-11.1c-3.7-5.4-7.4-10.9-11-16.3c-0.5-0.7-1-2-2.3-1.7c-4.1,5.9-8,12-12,17.9   c-3.7-0.1-7.7,0.1-11.2-0.1c2-3.7,4.4-7.2,6.8-10.9c1.6-2.5,3.5-5.6,5.3-8c1.2-1.6,1.8-2.6,3.7-3.3c1.6-0.6,4-0.9,5.8-1   c4.3-0.3,9.8,0.3,11.9,1.9c0.7,0.5,1.3,1.6,1.9,2.4C261.6,10.6,265.3,17.1,269.3,23.2"/>
	<path id="XMLID_3_" class="st0" d="M0,8.6V6.2c0.2-0.9,0.7-1.7,1.4-2.4c4.3-4.5,13.9-3.3,22.9-3.3c5.1,0,10.2-0.1,14.4,0.1   c-0.1,1.6,0.1,3.4-0.1,4.8H26.4c-4.2,0-8.4-0.3-12.2,0c-1.8,0.2-3.3,0.6-3.7,2.3c0.6,1,1.4,1.6,2.6,1.7c2.6,0.3,5.6,0,8.4,0   c2.9,0,5.9-0.2,8.4,0c4.3,0.4,8.2,1.3,10.1,4.3c1.2,1.8,1.1,4.6-0.2,6.2c-4.1,5-14.4,3.8-23.7,3.8c-5,0-9.8,0.1-14.1-0.1   c0.1-1.6-0.1-3.5,0.1-5h19c2.2,0,4.5,0.3,6.4,0c1-0.2,2.5-1.2,2.4-2.3c-0.2-2.1-4-1.7-6.4-1.7C13.9,14.5,2.5,15.9,0,8.6"/>
	<path id="XMLID_2_" class="st0" d="M85.3,0.4v4.9H73.1c-4.1,0-8.3-0.3-12.1,0c-1.5,0.1-3.7,0.5-3.7,2c-0.1,1.1,1.4,1.9,2.3,2   c1.9,0.3,4.2,0,6.4,0h19.2v5.2H65.7c-2.3,0-4.7-0.3-6.5,0c-0.9,0.2-1.9,0.9-1.9,1.8c0,1.1,1,1.3,1.7,1.8c8.4,0.4,17.6,0.1,26.3,0.2   v5H70.9c-7,0-14.6,0.7-19.5-1.2c-2.4-0.9-4.2-2.3-4.9-4.8c-0.3-2.9,1-4.2,2.3-5.5c-2.3-1.4-3.2-5.3-1.3-7.7   c1.6-2.1,5.5-3.5,8.4-3.7c2.4-0.2,4.9,0,7.4,0H85.3z"/>
	<path id="XMLID_1_" class="st0" d="M207.8,23.8h-6.1c-3.3-0.2-6.2-1.3-8.2-3c-1.2-1-1.8-1.7-2.6-3.1c-0.3-0.5-0.6-1.1-0.9-1.6   c-1.8-2.9-3.8-6-5.4-9.2c-0.7-1.2-3.2-1.8-4-0.3c-0.3,4,0.5,8.9,0,12.5c-0.1,1-0.7,1.9-1.4,2.5c-1.7,1.4-5,1.9-7.6,2.2h-5.9   c-1.5-0.1-3-0.6-4.3-1.1c-1.3-0.5-2.6-1.1-3.5-1.9c-2-1.7-3.1-4.3-4.3-6.4c-2-3.4-3.9-6.9-5.9-10.3c-0.7-1.2-1.6-2.2-1.9-3.5h10.7   c2.8,4.6,6.3,10.6,9.4,15.4c0.5,0.8,1.2,2.5,2,2.7c2.8,0.8,2.4-1.7,2.4-3.7v-3.5c0-2.7-0.3-6.1,0.2-7.2c0.6-1.5,2.4-2,4-2.6   c1.8-0.7,3.6-1.1,5.5-1.2c5-0.4,9.2,0.4,12.1,2.1c2,1.1,3.1,3.2,4.3,5c1.8,2.6,3.7,5.7,5.6,8.5c0.5,0.7,1.2,2.4,2.1,2.6   c1,0.3,1.9-0.1,2.2-0.3c0.5-0.6,0.3-3,0.3-4.3c0-4.6-0.1-9.5,0.1-13.5h10.3v14.2c0,2.5,0.3,5-0.7,6.3   C214.7,22.8,210.9,23.6,207.8,23.8C207.8,23.7,207.8,23.8,207.8,23.8"/>
</g>
</svg>