<?xml version="1.0" encoding="UTF-8" standalone="no"?>
<!-- Created with Inkscape (http://www.inkscape.org/) -->

<svg
   xmlns:dc="http://purl.org/dc/elements/1.1/"
   xmlns:cc="http://creativecommons.org/ns#"
   xmlns:rdf="http://www.w3.org/1999/02/22-rdf-syntax-ns#"
   xmlns:svg="http://www.w3.org/2000/svg"
   xmlns="http://www.w3.org/2000/svg"
   xmlns:sodipodi="http://sodipodi.sourceforge.net/DTD/sodipodi-0.dtd"
   xmlns:inkscape="http://www.inkscape.org/namespaces/inkscape"
   width="139.03999"
   height="80.339996"
   id="svg2"
   version="1.1"
   inkscape:version="0.47 r22583"
   sodipodi:docname="New document 1">
  <defs
     id="defs4">
    <inkscape:perspective
       sodipodi:type="inkscape:persp3d"
       inkscape:vp_x="0 : 526.18109 : 1"
       inkscape:vp_y="0 : 1000 : 0"
       inkscape:vp_z="744.09448 : 526.18109 : 1"
       inkscape:persp3d-origin="372.04724 : 350.78739 : 1"
       id="perspective10" />
    <inkscape:perspective
       id="perspective2824"
       inkscape:persp3d-origin="0.5 : 0.33333333 : 1"
       inkscape:vp_z="1 : 0.5 : 1"
       inkscape:vp_y="0 : 1000 : 0"
       inkscape:vp_x="0 : 0.5 : 1"
       sodipodi:type="inkscape:persp3d" />
    <inkscape:perspective
       id="perspective26066"
       inkscape:persp3d-origin="0.5 : 0.33333333 : 1"
       inkscape:vp_z="1 : 0.5 : 1"
       inkscape:vp_y="0 : 1000 : 0"
       inkscape:vp_x="0 : 0.5 : 1"
       sodipodi:type="inkscape:persp3d" />
  </defs>
  <sodipodi:namedview
     id="base"
     pagecolor="#ffffff"
     bordercolor="#666666"
     borderopacity="1.0"
     inkscape:pageopacity="0.0"
     inkscape:pageshadow="2"
     inkscape:zoom="2"
     inkscape:cx="166.17009"
     inkscape:cy="-1.2141767"
     inkscape:document-units="px"
     inkscape:current-layer="layer1"
     showgrid="false"
     inkscape:window-width="1680"
     inkscape:window-height="1000"
     inkscape:window-x="-8"
     inkscape:window-y="-8"
     inkscape:window-maximized="1" />
  <metadata
     id="metadata7">
    <rdf:RDF>
      <cc:Work
         rdf:about="">
        <dc:format>image/svg+xml</dc:format>
        <dc:type
           rdf:resource="http://purl.org/dc/dcmitype/StillImage" />
        <dc:title></dc:title>
      </cc:Work>
    </rdf:RDF>
  </metadata>
  <g
     inkscape:label="Layer 1"
     inkscape:groupmode="layer"
     id="layer1"
     transform="translate(-322.17709,-247.71494)">
    <path
       d="m 325.04353,325.7821 132.6725,0 0,-1.11465 -132.6725,0 0,1.11465 z"
       style="fill:#8fafba;fill-opacity:1;fill-rule:nonzero;stroke:none"
       id="path14410" />
    <path
       d="m 359.76853,296.2646 0,13.8625 -6.995,0 0,-46.2575 6.995,0 0,2.235 c 1.7575,-1.895 3.9175,-2.84875 6.46875,-2.84875 9.555,0 14.3325,5.825 14.3325,17.495 0,5.4425 -1.31875,9.62625 -3.955,12.57 -2.6475,2.93375 -6.25,4.405 -10.82625,4.405 -2.19875,0 -4.205,-0.4875 -6.02,-1.46125 z m 0,-24.26125 0,17.4625 c 1.27,1.14375 2.75125,1.705 4.4525,1.705 3.23,0 5.55125,-0.84625 6.95625,-2.5525 1.415,-1.705 2.11125,-4.405 2.11125,-8.08 0,-3.93875 -0.69625,-6.70375 -2.0925,-8.3025 -1.40375,-1.60875 -3.71625,-2.40375 -6.94625,-2.40375 -1.68125,0 -3.1725,0.72 -4.48125,2.17125"
       style="fill:#231f20;fill-opacity:1;fill-rule:evenodd;stroke:none"
       id="path14412" />
    <path
       d="m 323.56478,293.8821 2.69625,-6.0225 c 2.2625,1.7975 4.81375,2.69625 7.655,2.69625 2.94375,0 4.42125,-1.05375 4.42125,-3.15125 0,-1.22875 -0.44375,-2.24125 -1.3325,-3.02625 -0.88875,-0.78625 -2.61375,-1.715 -5.17625,-2.79 -5.58875,-2.31375 -8.38875,-5.5675 -8.38875,-9.74125 0,-2.8 1.075,-4.99 3.21375,-6.55 2.13875,-1.57 4.87625,-2.345 8.2025,-2.345 3.3675,0 6.53875,0.75375 9.50375,2.2625 l -2.18,5.8775 c -1.6525,-1.415 -3.95625,-2.1175 -6.9,-2.1175 -2.645,0 -3.9675,1.04375 -3.9675,3.14 0,0.8275 0.43375,1.58125 1.3025,2.2425 0.8675,0.67125 2.72625,1.56 5.5675,2.67625 2.85125,1.12625 4.89625,2.47875 6.1475,4.08 1.25,1.59125 1.88,3.5125 1.88,5.775 0,3.00625 -1.11625,5.3725 -3.3475,7.0975 -2.23125,1.725 -5.25875,2.5925 -9.10125,2.5925 -2.16,0 -3.885,-0.175 -5.18625,-0.5375 -1.30125,-0.35125 -2.975,-1.07375 -5.01,-2.15875"
       style="fill:#231f20;fill-opacity:1;fill-rule:evenodd;stroke:none"
       id="path14414" />
    <path
       d="m 393.57353,249.73835 c 1.46375,0 2.71625,0.525 3.75625,1.565 1.03875,1.03875 1.565,2.29 1.565,3.755 0,1.465 -0.52625,2.73 -1.565,3.76875 -1.04,1.04 -2.2925,1.5525 -3.75625,1.5525 -1.46625,0 -2.73,-0.5125 -3.76875,-1.5525 -1.04,-1.03875 -1.5525,-2.30375 -1.5525,-3.76875 0,-1.465 0.5125,-2.71625 1.5525,-3.755 1.03875,-1.04 2.3025,-1.565 3.76875,-1.565"
       style="fill:#231f20;fill-opacity:1;fill-rule:evenodd;stroke:none"
       id="path14416" />
    <path
       d="m 389.66853,295.64835 0,-25.14625 -6.4925,0 0,-7.27125 14.9975,0 0,32.4175 -8.505,0"
       style="fill:#231f20;fill-opacity:1;fill-rule:evenodd;stroke:none"
       id="path14418" />
    <path
       d="m 427.77853,265.9746 -2.6275,5.66125 c -1.44375,-1.67375 -3.37375,-2.51 -5.8,-2.51 -2.33375,0 -4.17125,0.95 -5.5225,2.86125 -1.35125,1.90125 -2.03125,4.545 -2.03125,7.91375 0,6.7975 2.635,10.195 7.8975,10.195 2.275,0 4.28125,-0.92875 6.01875,-2.7775 l 2.26625,5.96 c -1.7875,1.37375 -3.34875,2.24125 -4.68375,2.60375 -1.335,0.36125 -2.9125,0.5475 -4.73375,0.5475 -4.07125,0 -7.2775,-1.4675 -9.6275,-4.38 -2.35,-2.91375 -3.53375,-6.96375 -3.53375,-12.14875 0,-5.10375 1.2925,-9.23625 3.86125,-12.37625 2.57625,-3.15125 6.085,-4.72125 10.525,-4.72125 3.0725,0 5.73375,1.05375 7.99125,3.17125"
       style="fill:#231f20;fill-opacity:1;fill-rule:evenodd;stroke:none"
       id="path14420" />
    <path
       d="m 458.90603,281.8871 -20.54,0 c 0.1275,2.52375 0.91625,4.4925 2.36375,5.88625 1.44875,1.4025 3.40125,2.1 5.8575,2.1 3.06125,0 5.38,-0.87875 6.975,-2.625 l 2.60375,5.64375 c -2.35625,2.11 -5.885,3.17 -10.5775,3.17 -4.38125,0 -7.855,-1.42375 -10.40375,-4.25125 -2.5475,-2.82625 -3.83125,-6.77375 -3.83125,-11.8425 0,-4.9875 1.4025,-9.03625 4.2075,-12.125 2.805,-3.09875 6.16,-4.64375 10.0825,-4.64375 4.17,0 7.51625,1.3625 10.045,4.10875 2.52125,2.73625 3.78625,6.22875 3.78625,10.47 0,0.9075 -0.1925,2.28125 -0.56875,4.10875 z m -20.3025,-5.56375 14.125,0 c -0.45875,-4.62375 -2.78625,-6.945 -6.975,-6.945 -3.83125,0 -6.215,2.32125 -7.15,6.945"
       style="fill:#231f20;fill-opacity:1;fill-rule:evenodd;stroke:none"
       id="path14422" />
    <path
       d="m 359.76853,294.9721 0,13.8625 -6.995,0 0,-46.2575 6.995,0 0,2.235 c 1.7575,-1.89625 3.9175,-2.84875 6.46875,-2.84875 9.555,0 14.3325,5.825 14.3325,17.495 0,5.4425 -1.31875,9.62625 -3.955,12.57 -2.6475,2.9325 -6.25,4.405 -10.82625,4.405 -2.19875,0 -4.205,-0.4875 -6.02,-1.46125 z m 0,-24.26125 0,17.4625 c 1.27,1.14375 2.75125,1.705 4.4525,1.705 3.23,0 5.55125,-0.8475 6.95625,-2.5525 1.415,-1.705 2.11125,-4.405 2.11125,-8.08 0,-3.93875 -0.69625,-6.70375 -2.0925,-8.3025 -1.40375,-1.61 -3.71625,-2.40375 -6.94625,-2.40375 -1.68125,0 -3.1725,0.72 -4.48125,2.17125"
       style="fill:#7e69a1;fill-opacity:1;fill-rule:evenodd;stroke:none"
       id="path14424" />
    <path
       d="m 323.56478,292.5896 2.69625,-6.0225 c 2.2625,1.7975 4.81375,2.69625 7.655,2.69625 2.94375,0 4.42125,-1.05375 4.42125,-3.15125 0,-1.22875 -0.44375,-2.2425 -1.3325,-3.02625 -0.88875,-0.78625 -2.61375,-1.715 -5.17625,-2.79 -5.58875,-2.31375 -8.38875,-5.5675 -8.38875,-9.74125 0,-2.8 1.075,-4.99 3.21375,-6.55 2.13875,-1.57 4.87625,-2.345 8.2025,-2.345 3.3675,0 6.53875,0.75375 9.50375,2.2625 l -2.18,5.8775 c -1.6525,-1.415 -3.95625,-2.1175 -6.9,-2.1175 -2.645,0 -3.9675,1.04375 -3.9675,3.14 0,0.8275 0.43375,1.58125 1.3025,2.2425 0.8675,0.67125 2.72625,1.56 5.5675,2.675 2.85125,1.1275 4.89625,2.48 6.1475,4.08125 1.25,1.59125 1.88,3.5125 1.88,5.775 0,3.00625 -1.11625,5.3725 -3.3475,7.09625 -2.23125,1.72625 -5.25875,2.59375 -9.10125,2.59375 -2.16,0 -3.885,-0.17625 -5.18625,-0.5375 -1.30125,-0.35125 -2.975,-1.07375 -5.01,-2.15875"
       style="fill:#e67816;fill-opacity:1;fill-rule:evenodd;stroke:none"
       id="path14426" />
    <path
       d="m 393.57353,248.4446 c 1.46375,0 2.71625,0.52625 3.75625,1.565 1.03875,1.04 1.565,2.29125 1.565,3.75625 0,1.465 -0.52625,2.73 -1.565,3.76875 -1.04,1.03875 -2.2925,1.5525 -3.75625,1.5525 -1.46625,0 -2.73,-0.51375 -3.76875,-1.5525 -1.04,-1.03875 -1.5525,-2.30375 -1.5525,-3.76875 0,-1.465 0.5125,-2.71625 1.5525,-3.75625 1.03875,-1.03875 2.3025,-1.565 3.76875,-1.565"
       style="fill:#67b94b;fill-opacity:1;fill-rule:evenodd;stroke:none"
       id="path14428" />
    <path
       d="m 389.66853,294.3546 0,-25.145 -6.4925,0 0,-7.27125 14.9975,0 0,32.41625 -8.505,0"
       style="fill:#67b94b;fill-opacity:1;fill-rule:evenodd;stroke:none"
       id="path14430" />
    <path
       d="m 427.77853,264.6821 -2.6275,5.66125 c -1.44375,-1.67375 -3.37375,-2.51125 -5.8,-2.51125 -2.33375,0 -4.17125,0.95125 -5.5225,2.8625 -1.35125,1.90125 -2.03125,4.545 -2.03125,7.9125 0,6.7975 2.635,10.19625 7.8975,10.19625 2.275,0 4.28125,-0.92875 6.01875,-2.77875 l 2.26625,5.96125 c -1.7875,1.37375 -3.34875,2.24125 -4.68375,2.60375 -1.335,0.36125 -2.9125,0.54625 -4.73375,0.54625 -4.07125,0 -7.2775,-1.46625 -9.6275,-4.38 -2.35,-2.9125 -3.53375,-6.9625 -3.53375,-12.14875 0,-5.1025 1.2925,-9.235 3.86125,-12.375 2.57625,-3.15125 6.085,-4.7225 10.525,-4.7225 3.0725,0 5.73375,1.055 7.99125,3.1725"
       style="fill:#299bc0;fill-opacity:1;fill-rule:evenodd;stroke:none"
       id="path14432" />
    <path
       d="m 458.90603,280.5946 -20.54,0 c 0.1275,2.52375 0.91625,4.4925 2.36375,5.88625 1.44875,1.4025 3.40125,2.09875 5.8575,2.09875 3.06125,0 5.38,-0.8775 6.975,-2.62375 l 2.60375,5.64375 c -2.35625,2.10875 -5.885,3.17 -10.5775,3.17 -4.38125,0 -7.855,-1.42375 -10.40375,-4.25125 -2.5475,-2.82625 -3.83125,-6.77375 -3.83125,-11.8425 0,-4.9875 1.4025,-9.03625 4.2075,-12.125 2.805,-3.1 6.16,-4.645 10.0825,-4.645 4.17,0 7.51625,1.36375 10.045,4.11 2.52125,2.73625 3.78625,6.22875 3.78625,10.47 0,0.9075 -0.1925,2.28125 -0.56875,4.10875 z m -20.3025,-5.56375 14.125,0 c -0.45875,-4.62375 -2.78625,-6.94625 -6.975,-6.94625 -3.83125,0 -6.215,2.3225 -7.15,6.94625"
       style="fill:#f1a400;fill-opacity:1;fill-rule:evenodd;stroke:none"
       id="path14434" />
    <path
       d="m 330.52478,314.1271 c -0.31375,-0.035 -0.62875,-0.0637 -0.94375,-0.085 -0.31625,-0.0225 -0.63625,-0.0325 -0.96,-0.0325 -0.0125,0.1925 -0.0225,0.3925 -0.03,0.59875 -0.007,0.2075 -0.0112,0.47625 -0.0112,0.81125 l 0,0.4125 c 0,1.18125 0.0112,2.055 0.0325,2.62 0.0188,0.565 0.0525,1.08125 0.0962,1.55 -0.29875,-0.02 -0.52125,-0.0338 -0.665,-0.0388 -0.14375,-0.006 -0.2575,-0.01 -0.34,-0.01 -0.1125,0 -0.245,0.004 -0.39375,0.01 -0.15,0.005 -0.3525,0.0188 -0.605,0.0388 0.04,-0.4725 0.0725,-0.965 0.0925,-1.48 0.02,-0.51375 0.03,-1.1575 0.03,-1.92875 0,-0.33125 -0.002,-0.72 -0.01,-1.16125 -0.008,-0.44375 -0.0175,-0.9175 -0.03,-1.4225 -0.32375,0 -0.64625,0.01 -0.9675,0.0325 -0.32125,0.0213 -0.63625,0.0512 -0.945,0.09 l 0.005,-0.035 c 0.025,-0.22625 0.035,-0.39 0.035,-0.4875 0,-0.04 -0.005,-0.1225 -0.02,-0.25 -0.006,-0.0775 -0.0113,-0.14125 -0.015,-0.19 0.76875,0.0275 1.36,0.045 1.77375,0.0575 0.41125,0.0112 0.76125,0.0162 1.05,0.0162 0.26875,0 0.59875,-0.005 0.99125,-0.015 0.3925,-0.0113 1.00125,-0.03 1.83,-0.0588 -0.0113,0.105 -0.0175,0.19375 -0.0238,0.265 -0.005,0.0725 -0.007,0.12875 -0.007,0.1725 0,0.0787 0.002,0.16125 0.007,0.25 0.006,0.0875 0.0125,0.17875 0.0238,0.27 z m 14.32125,5.875 c 0.0437,-0.35875 0.0775,-0.74 0.1,-1.145 0.0238,-0.405 0.0337,-0.93 0.0337,-1.575 l 0,-1.11 c 0,-0.735 -0.01,-1.32375 -0.0337,-1.76375 -0.0225,-0.44125 -0.0575,-0.855 -0.105,-1.23875 0.7,0.0238 1.18375,0.0375 1.45125,0.0425 0.26625,0.005 0.47,0.006 0.61125,0.006 0.24625,0 0.545,-0.004 0.89375,-0.01 0.3475,-0.006 0.79,-0.0175 1.32625,-0.0387 0,0.0275 -0.004,0.0675 -0.01,0.1225 -0.0175,0.16 -0.0263,0.2675 -0.0263,0.32625 0,0.06 0.009,0.1625 0.0263,0.30875 0.005,0.0575 0.009,0.10125 0.01,0.13125 -0.27375,-0.0225 -0.54875,-0.04 -0.825,-0.0512 -0.27625,-0.0125 -0.55625,-0.0175 -0.84125,-0.0175 -0.19125,0 -0.33375,0 -0.425,0.002 -0.0937,0.001 -0.17875,0.005 -0.2525,0.009 -0.0138,0.24875 -0.025,0.4975 -0.03,0.74125 -0.005,0.2425 -0.007,0.48625 -0.007,0.72625 l 0,0.52875 c 0.29,-0.006 0.6275,-0.0162 1.01125,-0.0325 0.385,-0.015 0.8175,-0.0325 1.3,-0.0562 -0.0138,0.0912 -0.025,0.17875 -0.0312,0.25875 -0.006,0.0812 -0.01,0.1525 -0.01,0.215 0,0.04 0.006,0.125 0.02,0.255 0.01,0.085 0.0175,0.1525 0.0213,0.205 -0.39625,-0.0275 -0.785,-0.0462 -1.17,-0.0625 -0.38625,-0.015 -0.76625,-0.0225 -1.14125,-0.0262 l 0,1.09 c 0,0.3 0.004,0.555 0.0125,0.765 0.01,0.21 0.025,0.39625 0.045,0.56375 0.39125,0 0.775,-0.009 1.15375,-0.0263 0.37875,-0.0187 0.75625,-0.0462 1.13875,-0.0812 -0.009,0.065 -0.0175,0.1325 -0.0213,0.2 -0.005,0.0687 -0.007,0.15875 -0.007,0.26875 0,0.0412 0.002,0.10375 0.009,0.185 0.007,0.0813 0.0125,0.17625 0.02,0.28375 -0.77625,-0.02 -1.355,-0.0325 -1.73625,-0.0388 -0.3825,-0.006 -0.68375,-0.01 -0.9075,-0.01 -0.26875,0 -0.535,0.004 -0.8025,0.0112 -0.265,0.009 -0.5325,0.02 -0.8,0.0375 z m 19.93875,0 c 0.0437,-0.35875 0.0775,-0.74 0.1,-1.145 0.0225,-0.405 0.0337,-0.93 0.0337,-1.575 l 0,-1.10875 c 0,-0.735 -0.0113,-1.3225 -0.0337,-1.765 -0.0225,-0.44125 -0.0563,-0.8525 -0.1,-1.23875 0.11625,0.007 0.27125,0.015 0.465,0.025 0.25625,0.01 0.42125,0.0137 0.49375,0.0137 0.1725,0 0.4625,-0.007 0.87125,-0.0275 0.0725,-0.004 0.13,-0.007 0.17,-0.0112 -0.035,0.3425 -0.06,0.67875 -0.0763,1.00875 -0.0187,0.33 -0.0275,0.6825 -0.0275,1.05375 l 0,2.61125 c 0,0.41 0.004,0.70125 0.0113,0.875 0.007,0.17125 0.0175,0.32375 0.0312,0.45375 0.3975,0 0.78625,-0.009 1.16625,-0.0263 0.38,-0.0187 0.7575,-0.0462 1.1325,-0.0812 -0.0113,0.0987 -0.0188,0.185 -0.0238,0.2625 -0.005,0.075 -0.006,0.145 -0.006,0.20625 0,0.0387 0.006,0.13375 0.0238,0.28375 0.007,0.075 0.0125,0.13625 0.0163,0.185 -0.77625,-0.02 -1.355,-0.0325 -1.73625,-0.0388 -0.3825,-0.006 -0.685,-0.01 -0.90875,-0.01 -0.2675,0 -0.535,0.004 -0.8,0.0112 -0.2675,0.009 -0.535,0.02 -0.8025,0.0375 z m 19.525,0 c 0.0438,-0.35875 0.0763,-0.74 0.1,-1.145 0.0225,-0.405 0.0337,-0.93 0.0337,-1.575 l 0,-1.11 c 0,-0.735 -0.0113,-1.32375 -0.0337,-1.76375 -0.0238,-0.44125 -0.0587,-0.855 -0.10625,-1.23875 0.70125,0.0238 1.185,0.0375 1.4525,0.0425 0.265,0.005 0.47,0.006 0.61,0.006 0.24625,0 0.54625,-0.004 0.89375,-0.01 0.34875,-0.006 0.79,-0.0175 1.3275,-0.0387 0,0.0275 -0.004,0.0675 -0.0113,0.1225 -0.0175,0.16 -0.0263,0.2675 -0.0263,0.32625 0,0.06 0.009,0.1625 0.0263,0.30875 0.005,0.0575 0.009,0.10125 0.0113,0.13125 -0.275,-0.0225 -0.54875,-0.04 -0.825,-0.0512 -0.27625,-0.0125 -0.55625,-0.0175 -0.84125,-0.0175 -0.1925,0 -0.335,0 -0.42625,0.002 -0.0925,0.001 -0.1775,0.005 -0.25125,0.009 -0.0138,0.24875 -0.025,0.4975 -0.03,0.74125 -0.006,0.2425 -0.007,0.48625 -0.007,0.72625 l 0,0.52875 c 0.28875,-0.006 0.62625,-0.0162 1.01,-0.0325 0.385,-0.015 0.81875,-0.0325 1.30125,-0.0562 -0.015,0.0912 -0.025,0.17875 -0.0325,0.25875 -0.005,0.0812 -0.009,0.1525 -0.009,0.215 0,0.04 0.005,0.125 0.02,0.255 0.01,0.085 0.0175,0.1525 0.0213,0.205 -0.39625,-0.0275 -0.785,-0.0462 -1.17125,-0.0625 -0.385,-0.015 -0.765,-0.0225 -1.14,-0.0262 l 0,1.09 c 0,0.3 0.004,0.555 0.0125,0.765 0.009,0.21 0.025,0.39625 0.0438,0.56375 0.3925,0 0.77625,-0.009 1.155,-0.0263 0.3775,-0.0187 0.75625,-0.0462 1.1375,-0.0812 -0.009,0.065 -0.0175,0.1325 -0.0212,0.2 -0.005,0.0687 -0.006,0.15875 -0.006,0.26875 0,0.0412 10e-4,0.10375 0.009,0.185 0.007,0.0813 0.0125,0.17625 0.0187,0.28375 -0.775,-0.02 -1.355,-0.0325 -1.73625,-0.0388 -0.38125,-0.006 -0.6825,-0.01 -0.90625,-0.01 -0.26875,0 -0.535,0.004 -0.8025,0.0112 -0.265,0.009 -0.5325,0.02 -0.8,0.0375 z m 25.615,-5.21 c -0.145,-0.3525 -0.37125,-0.61875 -0.68125,-0.79875 -0.31,-0.18125 -0.695,-0.27125 -1.155,-0.27125 -0.7275,0 -1.3,0.23625 -1.71375,0.7075 -0.41375,0.4725 -0.62125,1.12375 -0.62125,1.95375 0,0.99 0.205,1.74 0.615,2.25125 0.4075,0.5125 1.00625,0.7675 1.7925,0.7675 0.45,0 0.84625,-0.07 1.1875,-0.21 0.34125,-0.14 0.615,-0.345 0.8175,-0.6125 l 0.15875,0.0737 c -0.05,0.18375 -0.0975,0.35875 -0.13875,0.525 -0.0412,0.16875 -0.075,0.33125 -0.10375,0.49125 -0.31125,0.16 -0.65625,0.27875 -1.02875,0.3575 -0.375,0.0775 -0.78625,0.11625 -1.23125,0.11625 -1.24875,0 -2.22,-0.31375 -2.91625,-0.94125 -0.695,-0.62875 -1.04375,-1.51 -1.04375,-2.64375 0,-1.08375 0.36625,-1.94125 1.09875,-2.575 0.73125,-0.63375 1.7275,-0.95 2.98875,-0.95 0.43625,0 0.85875,0.0437 1.265,0.13125 0.40875,0.0888 0.81375,0.22375 1.215,0.405 -0.0762,0.2125 -0.1425,0.41875 -0.19875,0.62125 -0.0575,0.2025 -0.10625,0.4025 -0.14875,0.60125 l -0.1575,0 z m 17.30875,1.80125 c 0,0.90125 0.19,1.605 0.57,2.11375 0.38,0.5075 0.905,0.76125 1.575,0.76125 0.65625,0 1.175,-0.25625 1.56,-0.76875 0.3825,-0.5125 0.575,-1.215 0.575,-2.10625 0,-0.90875 -0.19,-1.61875 -0.57,-2.13125 -0.38,-0.51125 -0.90125,-0.76875 -1.565,-0.76875 -0.6675,0 -1.19125,0.2575 -1.5725,0.77125 -0.3825,0.51375 -0.5725,1.22375 -0.5725,2.12875 z m -1.9125,0.0888 c 0,-1.14625 0.36625,-2.04 1.0975,-2.67875 0.7325,-0.64 1.75,-0.96 3.05375,-0.96 1.2575,0 2.22875,0.295 2.9175,0.88625 0.6875,0.59 1.03125,1.42625 1.03125,2.5025 0,1.16875 -0.36125,2.07625 -1.0825,2.72125 -0.72125,0.64625 -1.74125,0.97 -3.05875,0.97 -1.27125,0 -2.2475,-0.29625 -2.9325,-0.88875 -0.685,-0.5925 -1.02625,-1.4425 -1.02625,-2.5525 z m 23.185,3.32 c 0.1375,-0.75875 0.25,-1.4025 0.3375,-1.92875 0.0888,-0.52875 0.16375,-1.02125 0.22875,-1.48 l 0.475,-3.42375 c 0.19625,0.0213 0.3475,0.0325 0.45125,0.0387 0.105,0.006 0.1975,0.01 0.27625,0.01 0.0863,0 0.18625,-0.004 0.30375,-0.01 0.11625,-0.007 0.2625,-0.02 0.43875,-0.0387 0.35375,0.88375 0.69,1.6925 1.005,2.425 0.31625,0.73375 0.6275,1.42625 0.93375,2.07875 l 1.32875,-2.73125 c 0.16875,-0.3525 0.31,-0.66625 0.42375,-0.94875 0.1125,-0.28125 0.21,-0.55625 0.28875,-0.82375 0.185,0.0213 0.3325,0.0325 0.44375,0.0387 0.10875,0.006 0.20375,0.01 0.2825,0.01 0.09,0 0.19125,-0.004 0.30125,-0.01 0.1125,-0.006 0.2575,-0.0175 0.43625,-0.0387 l 0.34,3.365 c 0.007,0.0787 0.0188,0.19875 0.0375,0.3625 0.14375,1.415 0.28625,2.45 0.42625,3.105 -0.2475,-0.02 -0.4425,-0.0325 -0.5875,-0.0388 -0.14375,-0.006 -0.2675,-0.01 -0.37125,-0.01 -0.11625,0 -0.2475,0.004 -0.39375,0.01 -0.14625,0.006 -0.3375,0.0188 -0.575,0.0388 -0.0113,-0.53375 -0.0525,-1.20375 -0.12875,-2.0075 -0.007,-0.0613 -0.0112,-0.10625 -0.0112,-0.13125 l -0.25625,-2.38375 c -0.37125,0.75875 -0.73,1.51375 -1.07375,2.26625 -0.3425,0.7525 -0.675,1.50375 -0.99375,2.25625 -0.0613,-0.008 -0.12125,-0.0113 -0.17625,-0.015 -0.0538,-0.004 -0.11875,-0.005 -0.195,-0.005 -0.0425,0 -0.12125,0.002 -0.2375,0.01 -0.0613,0.002 -0.1125,0.006 -0.15,0.01 -0.3125,-0.7625 -0.63875,-1.51 -0.98,-2.2475 -0.34,-0.73375 -0.69625,-1.4625 -1.07125,-2.1825 l -0.305,2.735 c -0.0175,0.23125 -0.035,0.49125 -0.0537,0.78 -0.02,0.2875 -0.0375,0.59375 -0.055,0.915 -0.17375,-0.02 -0.30625,-0.0325 -0.39375,-0.0388 -0.0863,-0.006 -0.15875,-0.01 -0.21375,-0.01 -0.0562,0 -0.1225,0.004 -0.20375,0.01 -0.0812,0.006 -0.19125,0.0188 -0.3325,0.0388"
       style="fill:#231f20;fill-opacity:1;fill-rule:nonzero;stroke:none"
       id="path14436" />
  </g>
</svg>
