<?xml version="1.0" encoding="UTF-8" standalone="no"?>
<!-- Created with Inkscape (http://www.inkscape.org/) -->

<svg
   xmlns:dc="http://purl.org/dc/elements/1.1/"
   xmlns:cc="http://creativecommons.org/ns#"
   xmlns:rdf="http://www.w3.org/1999/02/22-rdf-syntax-ns#"
   xmlns:svg="http://www.w3.org/2000/svg"
   xmlns="http://www.w3.org/2000/svg"
   xmlns:sodipodi="http://sodipodi.sourceforge.net/DTD/sodipodi-0.dtd"
   xmlns:inkscape="http://www.inkscape.org/namespaces/inkscape"
   width="24.46216mm"
   height="23.834213mm"
   viewBox="0 0 24.46216 23.834213"
   version="1.1"
   id="svg8"
   inkscape:version="0.92.1 r15371"
   sodipodi:docname="Tolino.svg">
  <defs
     id="defs2" />
  <sodipodi:namedview
     id="base"
     pagecolor="#ffffff"
     bordercolor="#666666"
     borderopacity="1.0"
     inkscape:pageopacity="0.0"
     inkscape:pageshadow="2"
     inkscape:zoom="3.959798"
     inkscape:cx="27.746461"
     inkscape:cy="28.049738"
     inkscape:document-units="mm"
     inkscape:current-layer="layer1"
     showgrid="false"
     fit-margin-top="0"
     fit-margin-left="0"
     fit-margin-right="0"
     fit-margin-bottom="0"
     inkscape:window-width="1920"
     inkscape:window-height="1051"
     inkscape:window-x="0"
     inkscape:window-y="0"
     inkscape:window-maximized="1" />
  <metadata
     id="metadata5">
    <rdf:RDF>
      <cc:Work
         rdf:about="">
        <dc:format>image/svg+xml</dc:format>
        <dc:type
           rdf:resource="http://purl.org/dc/dcmitype/StillImage" />
        <dc:title></dc:title>
      </cc:Work>
    </rdf:RDF>
  </metadata>
  <g
     inkscape:label="Ebene 1"
     inkscape:groupmode="layer"
     id="layer1"
     transform="translate(-99.053981,-123.95644)">
    <path
       style="fill:#399ec8;fill-opacity:1;stroke-width:0.08466667"
       d="m 111.93629,147.68917 c -1.22241,-0.34362 -2.10711,-1.1336 -2.47853,-2.21314 -0.12218,-0.35512 -0.18082,-0.80568 -0.21303,-1.63663 -0.0773,-1.99426 -0.14492,-2.34711 -0.4081,-2.12869 -0.14899,0.12365 -0.30649,0.0576 -0.30649,-0.12856 0,-0.39705 -0.49103,0.49366 -1.01899,1.84841 -0.42105,1.08041 -0.65328,1.47155 -1.14011,1.9203 -0.60465,0.55734 -1.19783,0.7856 -2.17134,0.83552 -1.01177,0.0519 -1.74276,-0.14331 -2.54126,-0.6786 -0.73814,-0.49483 -1.1076,-1.0612 -1.37682,-2.1106 -0.669286,-2.60879 -0.438836,-4.60482 0.68163,-5.90388 0.36554,-0.4238 1.16187,-0.96773 1.62512,-1.11003 0.17129,-0.0526 0.36858,-0.11466 0.43843,-0.13789 0.0854,-0.0284 0.0342,-0.0815 -0.15631,-0.16224 -0.61591,-0.2609 -1.55448,-1.10426 -1.83108,-1.64533 -0.29876,-0.58442 -0.36897,-0.92662 -0.55589,-2.70934 -0.19834,-1.89163 -0.28172,-2.3024 -0.799826,-3.94069 -0.65224,-2.0624 -0.74734,-2.65679 -0.51431,-3.21451 0.36947,-0.88428 1.649976,-0.81261 3.245186,0.18164 1.52683,0.95164 3.96328,3.20164 4.83209,4.46233 0.78362,1.13707 1.65803,3.19995 2.06902,4.88116 l 0.11366,0.46493 0.31678,-0.0273 c 0.18626,-0.0161 0.39927,0.0267 0.51697,0.10387 0.19547,0.12808 0.20684,0.12078 0.48245,-0.30976 1.0682,-1.66864 2.97408,-3.57312 4.34044,-4.33723 0.89276,-0.49926 2.55899,-1.21769 3.7421,-1.61348 2.28146,-0.76322 3.705,-0.81778 4.39355,-0.1684 0.2598,0.24503 0.29451,0.32757 0.29451,0.70037 0,0.57618 -0.33071,1.19239 -1.33777,2.49267 -1.20464,1.55537 -1.47135,1.98472 -2.38611,3.84102 -0.68618,1.39247 -0.91394,1.77434 -1.27164,2.13204 -0.47937,0.47937 -1.16231,0.7978 -2.09532,0.97699 -0.29104,0.0559 -0.52869,0.12151 -0.52811,0.14582 5.9e-4,0.0243 0.12903,0.12706 0.28546,0.22834 0.40738,0.26377 0.84947,0.83547 1.17078,1.51399 0.26664,0.56307 0.27837,0.6307 0.27823,1.60386 -1.7e-4,1.17347 -0.13539,1.69362 -0.77034,2.96333 -0.78303,1.56582 -1.52611,2.40162 -2.4743,2.78305 -0.53495,0.21519 -1.84522,0.26687 -2.45073,0.0966 z"
       id="path40"
       inkscape:connector-curvature="0" />
  </g>
</svg>
