<?xml version="1.0" encoding="UTF-8" standalone="no"?>
<svg xmlns:dc="http://purl.org/dc/elements/1.1/" xmlns:cc="http://creativecommons.org/ns#" xmlns:rdf="http://www.w3.org/1999/02/22-rdf-syntax-ns#" xmlns:svg="http://www.w3.org/2000/svg" xmlns="http://www.w3.org/2000/svg" version="1.1" id="svg2" viewBox="0 0 480 220" height="220" width="480"><script xmlns=""/>
  <defs id="defs4"/>
  <metadata id="metadata7">
    <rdf:RDF>
      <cc:Work rdf:about="">
        <dc:format>image/svg+xml</dc:format>
        <dc:type rdf:resource="http://purl.org/dc/dcmitype/StillImage"/>
        <dc:title/>
      </cc:Work>
    </rdf:RDF>
  </metadata>
  <g transform="translate(0,-832.36214)" id="layer1">
    <g id="g6473" transform="matrix(3.1204896,0,0,-3.1204896,-618.19688,2087.6059)">
      <g transform="matrix(2.3776479,0,0,2.3776479,259.74721,381.07242)" id="g170">
        <path id="path172" style="fill:#ec2127;fill-opacity:1;fill-rule:evenodd;stroke:none" d="m 0,0 -0.632,0 c -3.584,0 -6.484,-2.896 -6.484,-6.489 l 0,-9.248 4.671,0 0,9.022 c 0,1.355 1.088,2.434 2.445,2.434 l 2.731,0 L 2.731,0 0,0 Z m 23.511,-6.16 c 0.05,1.455 1.395,2.636 3.06,2.636 1.694,0 3.048,-1.168 3.072,-2.636 l -6.132,0 z m 10.667,-2.179 c -0.035,4.872 -2.685,8.707 -7.607,8.707 -4.222,0 -7.64,-3.416 -7.64,-8.119 0,-5.074 3.104,-8.078 7.674,-8.168 2.968,0 5.565,1.666 6.89,4.113 l -4.274,1.118 c -0.52,-0.778 -1.515,-1.318 -2.65,-1.318 -1.665,0 -3.01,1.195 -3.06,2.644 l 10.667,0 c 0.009,0.228 0,0.782 0,1.023 m -20.79,-1.045 c 0,-1.335 -1.089,-2.44 -2.449,-2.44 -1.346,0 -2.424,1.105 -2.424,2.44 l 0,7.13 C 8.515,-1.013 7.511,0 6.256,0 l -2.434,0 0,-8.773 c 0,-3.95 2.137,-7.146 7.117,-7.146 4.993,0 7.123,3.196 7.123,7.146 l 0,8.773 -4.674,0 0,-9.384 m -26.805,13.25 -4.67,0 0,-3.866 -2.205,0 0,-4.281 2.205,0 0,-5.018 c 0,-3.933 3.183,-6.438 7.114,-6.438 l 2.757,0 0,4.096 -2.764,0 c -1.344,0 -2.437,1.094 -2.437,2.438 l 0,4.922 3.061,0.011 c 1.191,0.051 2.14,1.028 2.14,2.244 l 0,2.026 -5.201,0 0,3.866"/>
      </g>
    </g>
  </g>
</svg>