<?xml version="1.0" encoding="utf-8"?>
<!-- Generator: Adobe Illustrator 13.0.1, SVG Export Plug-In . SVG Version: 6.00 Build 14948)  -->
<!DOCTYPE svg PUBLIC "-//W3C//DTD SVG 1.1//EN" "http://www.w3.org/Graphics/SVG/1.1/DTD/svg11.dtd" [
	<!ENTITY ns_flows "http://ns.adobe.com/Flows/1.0/">
	<!ENTITY ns_extend "http://ns.adobe.com/Extensibility/1.0/">
	<!ENTITY ns_ai "http://ns.adobe.com/AdobeIllustrator/10.0/">
	<!ENTITY ns_graphs "http://ns.adobe.com/Graphs/1.0/">
]>
<svg version="1.1" id="katman_1" xmlns:x="&ns_extend;" xmlns:i="&ns_ai;" xmlns:graph="&ns_graphs;"
	 xmlns="http://www.w3.org/2000/svg" xmlns:xlink="http://www.w3.org/1999/xlink" xmlns:a="http://ns.adobe.com/AdobeSVGViewerExtensions/3.0/"
	 x="0px" y="0px" width="849.096px" height="317.313px" viewBox="0 0 849.096 317.313" enable-background="new 0 0 849.096 317.313"
	 xml:space="preserve">
<linearGradient id="SVGID_1_" gradientUnits="userSpaceOnUse" x1="-254.7996" y1="701.7307" x2="594.2952" y2="701.7307" gradientTransform="matrix(1 0 0 1 254.7998 -524.4883)">
	<stop  offset="0" style="stop-color:#000000"/>
	<stop  offset="1" style="stop-color:#636263"/>
	<a:midPointStop  offset="0" style="stop-color:#000000"/>
	<a:midPointStop  offset="0.5" style="stop-color:#000000"/>
	<a:midPointStop  offset="1" style="stop-color:#636263"/>
</linearGradient>
<polygon fill="url(#SVGID_1_)" points="849.095,317.312 0,317.312 136.735,37.174 848.847,37.174 "/>
<polygon fill="#D80E1B" points="849.095,280.924 63.784,280.924 190.248,0 848.865,0 "/>
<path fill="#FFFFFF" d="M489.378,136.156l-14.651-9.105c-7.89-5.303-11.949-10.675-12.124-14.689
	c-0.256-5.854,1.803-8.422,4.888-11.568c3.86-3.229,10.78-5.105,10.78-5.105l22.184,0.107l0.649-13.321h-19.637l-13.118,0.077
	c0,0-21.441,1.416-31.813,8.104c-9.938,6.412-13.045,17.798-13.045,28.942c0,7.965,3.9,16.453,8.577,22.53
	c0.32,0.416,0.64,0.776,0.963,1.158c24.341,0,44.674,0,68.79,0C498.27,140.727,494.123,138.352,489.378,136.156z"/>
<path fill="#FFFFFF" d="M445.448,150.378l14.654,9.106c7.887,5.305,11.946,10.678,12.121,14.688
	c0.257,5.854-1.738,6.207-4.823,9.354c-3.858,3.23-10.891,2.52-10.891,2.52l-29.011-0.106l0.104,16.89l25.862-0.157l11.63-0.366
	c0,0,24.794-1.754,34.4-8.525c9.659-6.823,11.835-15.691,11.835-26.836c0-7.966-3.898-16.454-8.575-22.531
	c-0.321-0.416-0.643-0.777-0.964-1.158c-24.342,0-44.674,0-68.79,0C436.557,145.807,440.701,148.181,445.448,150.378z"/>
<polygon fill="#FFFFFF" points="416.994,82.383 416.994,96.688 371.42,96.688 371.42,136.009 409.949,136.009 409.949,149.383 
	371.839,149.383 371.839,186.679 418.084,186.679 418.084,202.931 338.263,202.931 338.263,82.383 "/>
<polygon fill="#FFFFFF" points="687.189,82.383 687.189,96.688 641.615,96.688 641.615,136.009 680.146,136.009 680.146,149.383 
	642.034,149.383 642.034,186.679 688.279,186.679 688.279,202.931 608.46,202.931 608.46,82.383 "/>
<path fill="#FFFFFF" d="M533.475,82.383l-27.346,0.011V95.06c0,0,28.682-0.079,27.346-0.079v107.951l37.555-0.329V96.688h26.938
	V82.383H533.475z"/>
<polyline fill="#FFFFFF" points="730.215,82.602 730.215,186.679 776.461,186.679 776.461,202.931 696.638,202.931 696.638,82.383 
	"/>
<path fill="#FFFFFF" d="M311.616,82.393l-25.86,80.758l-25.939-80.916h-39.222l35.422,118.479h1.301c9.981,0,24.948,0,34.947,0
	L330.76,82.392L311.616,82.393L311.616,82.393z"/>
<line fill="none" x1="729.795" y1="96.688" x2="729.795" y2="136.009"/>
<path fill="#FFFFFF" d="M465.748,141.628c-2.198,0.055-4.397,0.119-6.596,0.183c-3.961,0.116-7.92,0.234-11.882,0.313
	c-1.98,0.04-3.962,0.069-5.943,0.083c-1.798,0.012-3.666,0.063-5.44-0.31c-0.959-0.201-1.968-0.63-2.957-0.506
	c-0.725,0.091-1.093,0.631-0.47,1.236c0.559,0.543,1.379,0.668,2.061,0.925c1.351,0.507,2.564,1.334,3.951,1.769
	c4.922,1.542,10.055,1.542,15.122,1.798c13.175,0.668,26.599,0.747,39.751-0.474c2.852-0.265,13.173-1.872,5.035-3.818
	C487.914,140.324,476.357,141.362,465.748,141.628z"/>
</svg>
