<?xml version="1.0" encoding="UTF-8" standalone="no"?>
<!-- Created with Inkscape (http://www.inkscape.org/) -->

<svg
   xmlns:dc="http://purl.org/dc/elements/1.1/"
   xmlns:cc="http://creativecommons.org/ns#"
   xmlns:rdf="http://www.w3.org/1999/02/22-rdf-syntax-ns#"
   xmlns:svg="http://www.w3.org/2000/svg"
   xmlns="http://www.w3.org/2000/svg"
   xmlns:sodipodi="http://sodipodi.sourceforge.net/DTD/sodipodi-0.dtd"
   xmlns:inkscape="http://www.inkscape.org/namespaces/inkscape"
   id="svg2"
   version="1.1"
   inkscape:version="0.92.1 r15371"
   width="436.03622"
   height="315.04486"
   sodipodi:docname="Wiko_logo.svg">
  <metadata
     id="metadata8">
    <rdf:RDF>
      <cc:Work
         rdf:about="">
        <dc:format>image/svg+xml</dc:format>
        <dc:type
           rdf:resource="http://purl.org/dc/dcmitype/StillImage" />
        <dc:title></dc:title>
      </cc:Work>
    </rdf:RDF>
  </metadata>
  <defs
     id="defs6" />
  <sodipodi:namedview
     pagecolor="#ffffff"
     bordercolor="#666666"
     borderopacity="1"
     objecttolerance="10"
     gridtolerance="10"
     guidetolerance="10"
     inkscape:pageopacity="0"
     inkscape:pageshadow="2"
     inkscape:window-width="1920"
     inkscape:window-height="1051"
     id="namedview4"
     showgrid="false"
     inkscape:zoom="0.83039936"
     inkscape:cx="429.20264"
     inkscape:cy="363.60384"
     inkscape:window-x="0"
     inkscape:window-y="0"
     inkscape:window-maximized="1"
     inkscape:current-layer="svg2"
     fit-margin-top="0"
     fit-margin-left="0"
     fit-margin-right="0"
     fit-margin-bottom="0" />
  <path
     inkscape:connector-curvature="0"
     id="path2997"
     d="m 116.07739,315.03445 c -1.21229,-0.0824 -3.53515,-0.33847 -5.16191,-0.56902 -1.62676,-0.23055 -4.95422,-1.09529 -7.39436,-1.92164 -2.44015,-0.82635 -6.87676,-2.89991 -9.85916,-4.60789 l -5.42253,-3.10544 -8.62676,-8.50406 -8.62676,-8.50405 v -1.16405 c 0,-0.64022 -0.9106,-1.9999 -2.02355,-3.02149 -1.11295,-1.0216 -3.77492,-4.51762 -5.91549,-7.76894 -2.14057,-3.25132 -3.89195,-6.07648 -3.89195,-6.27813 0,-0.20164 -1.5578,-2.83665 -3.46178,-5.85557 -1.90398,-3.01892 -6.67334,-12.17098 -10.59859,-20.33791 -3.92524,-8.16693 -7.73359,-16.39314 -8.46299,-18.28047 -0.7294,-1.88733 -2.63704,-6.31111 -4.23921,-9.83061 l -2.91303,-6.3991 0.50108,-1.32445 0.50108,-1.32446 -1.20098,-0.77644 -1.20099,-0.77645 -2.28513,-6 c -1.25682,-3.3 -3.13022,-7.83332 -4.16313,-10.07405 -1.0329,-2.24073 -2.56929,-6.06573 -3.41421,-8.5 -0.84492,-2.43427 -2.91153,-7.57595 -4.59247,-11.42595 -1.68095,-3.85 -4.74699,-10.67531 -6.81343,-15.16735 l -3.75717,-8.16734 -1.52698,-5.977 C 0.68714,136.08524 0,132.30472 0,130.97144 c 0,-1.33329 0.65032,-4.64333 1.44516,-7.35566 l 1.44515,-4.9315 4.61941,-4.75 4.61941,-4.75 h 1.3298 1.32981 v -0.81479 c 0,-0.44813 1.47127,-1.52641 3.26949,-2.39617 1.79822,-0.86977 6.56759,-2.51041 10.59859,-3.64588 l 7.32909,-2.06448 6.55327,0.44621 6.55326,0.4462 2.56645,0.9897 2.56646,0.98971 v 0.95736 0.95736 l 1.72542,0.55546 1.72542,0.55545 2.50819,4.26193 c 1.3795,2.34407 3.23488,6.28694 4.12306,8.76194 0.88818,2.475 2.51415,8.325 3.61326,13 1.09912,4.675 2.73238,12.55 3.62949,17.5 0.8971,4.95 2.9444,14.625 4.54954,21.5 1.60515,6.875 4.70114,18.57139 6.87999,25.99198 l 3.96154,13.49198 3.43038,7.43167 3.43038,7.43167 4.47997,5.31877 4.47997,5.31877 4.06491,1.11021 4.06491,1.1102 5.238,-1.27453 5.23799,-1.27453 3.76108,-4.57809 c 2.0686,-2.51796 4.65119,-6.3781 5.73911,-8.5781 1.08793,-2.2 3.12351,-7.39029 4.52352,-11.53397 l 2.54547,-7.53397 2.56288,-12.96603 c 1.40958,-7.13132 2.99382,-16.56603 3.52054,-20.96603 0.52671,-4.4 1.44919,-14.075 2.04996,-21.5 0.60077,-7.425 1.20035,-15.88938 1.33242,-18.80972 0.13206,-2.92035 0.71097,-7.87035 1.28648,-11 0.5755,-3.12966 1.58607,-9.06528 2.24571,-13.19028 0.65962,-4.125 1.57475,-7.9275 2.03359,-8.45 0.45885,-0.5225 0.83427,-1.66485 0.83427,-2.53856 0,-0.87371 0.88732,-3.35385 1.97183,-5.51144 1.0845,-2.15759 1.97183,-4.41121 1.97183,-5.00805 0,-0.59684 0.66296,-1.96419 1.47325,-3.03856 0.81029,-1.07436 3.28817,-4.31589 5.5064,-7.20339 l 4.03315,-5.25 h 1.27429 c 0.70085,0 1.80078,-0.64345 2.44428,-1.4299 l 1.16999,-1.4299 6.04357,-2.0701 6.04357,-2.0701 h 6.33117 6.33116 l 4.92371,1.75 4.92372,1.75 5.06776,5.54568 5.06776,5.54568 3.68622,7.15596 3.68621,7.15596 3.04949,9.29836 c 1.67723,5.1141 5.0686,16.27336 7.5364,24.79836 2.46779,8.525 5.08108,17.75 5.8073,20.5 0.72621,2.75 2.62969,8.825 4.22994,13.5 1.60024,4.675 4.06235,11.65 5.47135,15.5 1.409,3.85 3.26156,8.575 4.11681,10.5 0.85526,1.925 2.46718,5.525 3.58204,8 1.11486,2.475 3.58984,7.2 5.49994,10.5 1.91011,3.3 5.03981,8.39057 6.9549,11.31237 1.91509,2.9218 5.27475,7.20858 7.4659,9.52617 2.19115,2.3176 5.97838,5.68057 8.41605,7.47327 l 4.43214,3.25946 6.2703,1.96436 6.2703,1.96437 h 4.43025 4.43024 l 3.2493,-1.56392 3.24931,-1.56392 5.0335,-5.05207 5.0335,-5.05207 v -1.41253 c 0,-0.77689 1.30533,-4.03532 2.90075,-7.24096 l 2.90074,-5.82844 2.16023,-8.39305 c 1.18813,-4.61617 2.54918,-10.19304 3.02456,-12.39304 0.47539,-2.2 1.52165,-8.5 2.32503,-14 0.80338,-5.5 1.88706,-12.025 2.40817,-14.5 0.52112,-2.475 1.44509,-9 2.05326,-14.5 0.60817,-5.5 1.91412,-15.4 2.90212,-22 0.98799,-6.6 2.27181,-15.6 2.85293,-20 0.58112,-4.4 1.31181,-11.6 1.62376,-16 0.31193,-4.4 1.22968,-13.174999 2.03943,-19.499999 0.80975,-6.325 1.8998,-13.418961 2.42234,-15.764351 0.52253,-2.34539 0.95005,-5.44318 0.95005,-6.88398 0,-1.4408 0.47286,-4.47184 1.0508,-6.73565 0.57794,-2.26381 1.74751,-6.36602 2.59905,-9.11602 0.85154,-2.75 2.88024,-7.58674 4.50821,-10.74831 l 2.95996,-5.74831 5.97485,-4.96307 5.97484,-4.96306 3.99431,-0.97615 c 2.19687,-0.53688 5.99079,-1.49572 8.43094,-2.13076 L 400.77457,0 l 9.81236,0.44973 9.81235,0.44973 0.37543,1.14241 c 0.2065,0.62833 0.89306,1.15663 1.52568,1.17401 0.63263,0.0174 2.37031,1.1208 3.8615,2.45204 1.4912,1.33123 2.71127,2.85987 2.71127,3.39697 0,0.53709 0.62257,1.60799 1.38349,2.37978 0.76091,0.77179 2.14605,3.61643 3.07808,6.32143 l 1.69461,4.91818 0.50345,7.26858 0.50344,7.26859 -1.25594,6.23141 -1.25594,6.23142 -2.41073,5.5 c -1.3259,3.025001 -3.01864,6.850001 -3.76164,8.500001 -0.74299,1.65 -2.28907,5.7 -3.43572,9 -1.14664,3.3 -2.46778,6.899999 -2.93586,7.999999 -0.46809,1.1 -1.72486,4.7 -2.79284,8 -1.06797,3.3 -3.15717,10.05 -4.64267,15 -1.4855,4.95 -3.26198,11.25 -3.94773,14 -0.68577,2.75 -2.42018,9.05 -3.85426,14 -1.43408,4.95 -3.00052,11.025 -3.48097,13.5 -0.48047,2.475 -4.05843,17.1 -7.95102,32.5 -3.8926,15.4 -7.44456,29.8 -7.89325,32 -0.4487,2.2 -2.3788,10.075 -4.2891,17.5 -1.91031,7.425 -4.55816,17.1 -5.88413,21.5 -1.32597,4.4 -3.22589,10.25 -4.22205,13 -0.99614,2.75 -2.14393,5.15 -2.55062,5.33333 -0.40669,0.18334 -0.73943,1.16279 -0.73943,2.17656 v 1.84323 l -4.1402,8.30284 c -2.27711,4.56657 -5.76732,10.78712 -7.75602,13.82344 -1.98871,3.03633 -5.51585,7.4474 -7.83811,9.80238 l -4.22229,4.28179 -6.01465,2.85254 c -3.30805,1.56889 -7.99029,3.31646 -10.40496,3.88348 l -4.39032,1.03094 -6.45475,-0.31541 c -3.55012,-0.17347 -8.2294,-0.56342 -10.39841,-0.86656 -2.16901,-0.30314 -5.71831,-1.1167 -7.88732,-1.80792 -2.16902,-0.69122 -4.1655,-1.50064 -4.43662,-1.7987 -0.27113,-0.29807 -2.48944,-1.56598 -4.92958,-2.81759 l -4.43662,-2.27565 -9.11971,-8.02583 -9.11972,-8.02583 -0.0114,-1.19852 -0.0114,-1.19852 -4.91815,-4.935 c -2.70497,-2.71426 -4.91813,-5.26961 -4.91813,-5.67858 0,-0.40896 -0.55772,-1.33821 -1.23938,-2.06499 -0.68165,-0.72679 -3.78728,-5.19685 -6.90141,-9.93348 -3.11411,-4.73662 -5.66203,-8.97619 -5.66203,-9.42126 0,-0.44506 -0.77641,-1.67203 -1.72535,-2.7266 -0.94894,-1.05457 -3.27817,-4.69621 -5.17606,-8.09255 -1.89788,-3.39634 -4.33802,-7.67405 -5.42253,-9.50603 -1.08451,-1.83198 -5.47416,-8.80076 -9.75478,-15.48619 -4.28061,-6.68543 -8.87826,-13.28032 -10.217,-14.65532 -1.33873,-1.375 -4.2695,-3.73557 -6.51282,-5.24572 l -4.07877,-2.74572 -3.08723,-0.004 -3.08725,-0.004 -3.1595,3.25 c -1.73774,1.7875 -3.83921,4.56784 -4.66995,6.17853 -0.83074,1.61069 -2.58439,5.88569 -3.89699,9.5 -1.3126,3.61431 -3.89168,11.29647 -5.73127,17.07147 -1.8396,5.775 -3.85882,12.525 -4.48717,15 -0.62835,2.475 -1.71603,5.85 -2.41708,7.5 -0.70104,1.65 -1.83118,4.575 -2.51141,6.5 -0.68023,1.925 -2.33297,5.975 -3.67274,9 -1.33977,3.025 -3.69188,8.2 -5.2269,11.5 -1.53503,3.3 -4.26002,8.0746 -6.05553,10.61021 -1.79552,2.53562 -4.65594,6.2054 -6.35649,8.15507 -1.70056,1.94966 -5.28922,5.07791 -7.97481,6.95166 -2.68559,1.87376 -6.17451,3.88083 -7.75315,4.46018 -1.57864,0.57934 -4.98402,1.564 -7.5675,2.18812 -2.58349,0.62412 -5.68912,1.06734 -6.90141,0.98493 z"
     style="fill:#01b2aa;fill-opacity:1;stroke-width:0.99293268"
     sodipodi:nodetypes="cscccccscsssssccccccscscsccsccccccsccccccccccccscccscccccccccscscscsccccscscscsccccccccccccccccscscscscccccccccsccccscscscscsssccccccccccccscccccccsccccscscsccsccscssccscccsccsccccccsccsscscccccccsscscsscscccscc" />
</svg>
