<?xml version="1.0" encoding="UTF-8" standalone="no"?>
<svg
   xmlns:dc="http://purl.org/dc/elements/1.1/"
   xmlns:cc="http://creativecommons.org/ns#"
   xmlns:rdf="http://www.w3.org/1999/02/22-rdf-syntax-ns#"
   xmlns:svg="http://www.w3.org/2000/svg"
   xmlns="http://www.w3.org/2000/svg"
   xmlns:sodipodi="http://sodipodi.sourceforge.net/DTD/sodipodi-0.dtd"
   xmlns:inkscape="http://www.inkscape.org/namespaces/inkscape"
   width="567.49194"
   height="590.09601"
   viewBox="0 0 567.49197 590.09601"
   version="1.1"
   id="svg20"
   sodipodi:docname="Wileyfox.svg"
   inkscape:version="0.92.1 r15371">
  <metadata
     id="metadata26">
    <rdf:RDF>
      <cc:Work
         rdf:about="">
        <dc:format>image/svg+xml</dc:format>
        <dc:type
           rdf:resource="http://purl.org/dc/dcmitype/StillImage" />
        <dc:title></dc:title>
      </cc:Work>
    </rdf:RDF>
  </metadata>
  <defs
     id="defs24" />
  <sodipodi:namedview
     pagecolor="#ffffff"
     bordercolor="#666666"
     borderopacity="1"
     objecttolerance="10"
     gridtolerance="10"
     guidetolerance="10"
     inkscape:pageopacity="0"
     inkscape:pageshadow="2"
     inkscape:window-width="1920"
     inkscape:window-height="1051"
     id="namedview22"
     showgrid="false"
     fit-margin-top="0"
     fit-margin-left="0"
     fit-margin-right="0"
     fit-margin-bottom="0"
     inkscape:zoom="0.16886299"
     inkscape:cx="1731.3101"
     inkscape:cy="62.648002"
     inkscape:window-x="0"
     inkscape:window-y="0"
     inkscape:window-maximized="1"
     inkscape:current-layer="svg20" />
  <path
     style="clip-rule:evenodd;fill:#e64216;fill-rule:evenodd"
     inkscape:connector-curvature="0"
     id="path2"
     d="m 258.68774,590.096 c -19.383,-14.691 -35.898,-30.771 -52.496,-46.688 -46.689,-44.775 -92.846,-90.074 -130.488005,-143.115 -23.906,-33.678 -44.303,-69.305 -59.754,-107.67 -1.104,-2.745 -1.869,-5.634 -2.654,-8.494 -0.326,-1.191 -0.283,-2.483 -0.523,-4.858 12.506,-1.818 24.662,-1.398 36.646,-0.084 30.115,3.301 60.377005,5.5 89.688005,14.372 22.746,6.883 41.758,19.021 57.592,36.461 3.367,3.705 5.455,8.066 6.609,13.07 15.121,65.537 30.344,131.053 45.609,196.557 2.914,12.502 6.223,24.914 9.15,37.414 0.885,3.767 2.227,7.613 0.621,13.035 z m 48.742,-0.69 c 1.809,-9.684 3.123,-18.615 5.162,-27.383 16.938,-72.863 33.891,-145.727 51.137,-218.52 3.518,-14.859 15.879,-23.01 27.033,-31.666 22.736,-17.646 50.178,-22.758 77.459,-27.062 21.787,-3.436 43.953,-4.538 65.973,-6.382 6.467,-0.542 13.016,-0.083 20.447,-0.083 -1.412,13.85 -7.422,24.14 -12.266,34.705 -26.463,57.73 -63.078,108.551 -106.242,154.846 -37.389,40.1 -76.613,78.318 -117.729,114.592 -2.888,2.551 -5.544,5.492 -10.974,6.953 z M 549.09574,0 c 21.639,78.928 22.811,156.312 10.668,236.512 -71.865,-38.588 -141.063,-77.085 -211.045,-117.462 58.305,-55.61 123.174,-95.551 200.377,-119.05 z M 18.025735,0.035 c 77.633,23.503 142.455005,63.546 200.555005,119.035 -69.998,40.455 -139.277005,78.67 -211.3630045,117.707 -11.19,-80.755 -10.659,-158.15 10.8079995,-236.742 z" />
</svg>
