<?xml version="1.0" encoding="UTF-8"?>
<!-- Generator: Adobe Illustrator 23.0.1, SVG Export Plug-In . SVG Version: 6.00 Build 0)  -->
<svg version="1.1" id="Livello_1" xmlns="http://www.w3.org/2000/svg" xmlns:xlink="http://www.w3.org/1999/xlink" x="0px" y="0px" viewBox="0 0 150 150" enable-background="new 0 0 150 150" xml:space="preserve">
<g>
	<path fill-rule="evenodd" clip-rule="evenodd" fill="#FF6900" d="M134.4,15.7C120.2,1.6,99.9,0,75,0C50.1,0,29.7,1.6,15.6,15.7   C1.4,29.9,0,50.2,0,75.1c0,24.9,1.4,45.2,15.6,59.4C29.7,148.6,50.1,150,75,150s45.3-1.4,59.4-15.6c14.1-14.1,15.6-34.5,15.6-59.4   C150,50.2,148.5,29.8,134.4,15.7L134.4,15.7z"/>
	<g>
		<path fill-rule="evenodd" clip-rule="evenodd" fill="#FFFFFF" d="M120.5,46.9c0.5,0,1,0.4,1,1v57.4c0,0.5-0.4,1-1,1h-12.6    c-0.5,0-1-0.4-1-1V47.8c0-0.5,0.4-1,1-1H120.5z"/>
		<path fill-rule="evenodd" clip-rule="evenodd" fill="#FFFFFF" d="M65.9,46.9c9.5,0,19.4,0.4,24.3,5.3c4.8,4.8,5.3,14.4,5.4,23.7    l0,29.3c0,0.5-0.4,1-1,1H82c-0.5,0-1-0.4-1-1V75.4c0-5.2-0.3-10.6-3-13.2c-2.3-2.3-6.6-2.8-11.1-3H44.2c-0.5,0-1,0.4-1,1v45.1    c0,0.5-0.4,1-1,1H29.6c-0.5,0-1-0.4-1-1V47.8c0-0.5,0.4-1,1-1H65.9z"/>
		<path fill-rule="evenodd" clip-rule="evenodd" fill="#FFFFFF" d="M68.7,69.7c0.5,0,1,0.4,1,1v34.5c0,0.5-0.4,1-1,1H55.5    c-0.5,0-1-0.4-1-1V70.7c0-0.5,0.4-1,1-1H68.7z"/>
	</g>
</g>
</svg>